<svg width="19" height="22" viewBox="0 0 19 22" fill="none" xmlns="http://www.w3.org/2000/svg">
<path d="M14.5294 16.5H4.47059V9.35C4.47059 6.6 6.70588 4.4 9.5 4.4C12.2941 4.4 14.5294 6.6 14.5294 9.35V16.5ZM16.7647 15.4V9.35C16.7647 5.973 14.3729 3.146 11.1765 2.398V1.65C11.1765 1.21239 10.9998 0.792709 10.6854 0.483274C10.371 0.173839 9.94463 0 9.5 0C9.05537 0 8.62896 0.173839 8.31456 0.483274C8.00016 0.792709 7.82353 1.21239 7.82353 1.65V2.398C4.61588 3.146 2.23529 5.973 2.23529 9.35V15.4L0 17.6V18.7H19V17.6L16.7647 15.4ZM9.5 22C10.0928 22 10.6614 21.7682 11.0806 21.3556C11.4998 20.9431 11.7353 20.3835 11.7353 19.8H7.26471C7.26471 20.3835 7.50021 20.9431 7.91941 21.3556C8.33861 21.7682 8.90716 22 9.5 22Z" fill="#686B6F"/>
</svg>
