<svg width="40" height="40" viewBox="0 0 40 40" fill="none" xmlns="http://www.w3.org/2000/svg">
<path d="M37.0246 39.0245C36.7619 39.0249 36.5017 38.9735 36.259 38.8729C36.0164 38.7723 35.796 38.6247 35.6106 38.4386L0.61061 3.43855C0.41959 3.25406 0.267247 3.03339 0.162429 2.78938C0.057611 2.54537 0.00238314 2.28297 7.55034e-05 2.01741C-0.00223213 1.75185 0.0483785 1.48854 0.14894 1.24275C0.249502 0.996959 0.398045 0.773554 0.58583 0.585769C0.773615 0.397983 0.996898 0.249563 1.24269 0.149001C1.48848 0.0484394 1.75185 -0.00223222 2.01741 7.54176e-05C2.28297 0.00238305 2.54544 0.0576109 2.78944 0.162429C3.03345 0.267247 3.25412 0.419651 3.43861 0.610671L38.4386 35.6107C38.7179 35.8904 38.908 36.2466 38.9849 36.6344C39.0619 37.0221 39.0222 37.4239 38.8709 37.7891C38.7196 38.1543 38.4634 38.4664 38.1348 38.6861C37.8062 38.9058 37.4199 39.0242 37.0246 39.0245Z" fill="#40CCC3"/>
<path d="M2.02346 39.0252C1.62796 39.0251 1.24138 38.9078 0.912563 38.6881C0.583743 38.4683 0.327453 38.156 0.176113 37.7906C0.0247729 37.4252 -0.0147916 37.0232 0.0623435 36.6353C0.139479 36.2474 0.329905 35.8911 0.609524 35.6114L35.6095 0.611404C35.9867 0.247088 36.4919 0.0453234 37.0163 0.0498802C37.5407 0.0544371 38.0423 0.264757 38.4131 0.635574C38.7839 1.00639 38.9943 1.50815 38.9989 2.03255C39.0034 2.55694 38.8018 3.06208 38.4375 3.43928L3.43747 38.4393C3.25209 38.6254 3.03171 38.773 2.78903 38.8736C2.54635 38.9742 2.28616 39.0257 2.02346 39.0252Z" fill="#40CCC3"/>
</svg>
