<svg width="38" height="38" viewBox="0 0 38 38" fill="none" xmlns="http://www.w3.org/2000/svg">
<path d="M19.0001 23.298C16.6961 23.2982 14.4438 22.6152 12.528 21.3353C10.6122 20.0554 9.11893 18.2361 8.23709 16.1076C7.35525 13.979 7.12446 11.6368 7.57382 9.37701C8.02319 7.11726 9.13253 5.04153 10.7616 3.41229C12.3907 1.78305 14.4664 0.673465 16.7261 0.223904C18.9858 -0.225656 21.3281 0.00499886 23.4568 0.886655C25.5854 1.76831 27.4047 3.26137 28.6848 5.17706C29.9648 7.09275 30.6481 9.34502 30.6481 11.649C30.6449 14.7374 29.4167 17.6983 27.233 19.8822C25.0493 22.0661 22.0885 23.2946 19.0001 23.298ZM19.0001 3.99801C17.4873 3.99782 16.0083 4.44624 14.7503 5.28656C13.4924 6.12688 12.5118 7.32133 11.9327 8.71893C11.3536 10.1165 11.2019 11.6545 11.4969 13.1383C11.7918 14.6221 12.5201 15.9851 13.5897 17.055C14.6593 18.1248 16.0221 18.8535 17.5058 19.1488C18.9896 19.4442 20.5276 19.2929 21.9253 18.7141C23.3231 18.1354 24.5178 17.1552 25.3584 15.8974C26.1991 14.6396 26.6479 13.1608 26.6481 11.648C26.6457 9.62018 25.8393 7.67605 24.4055 6.24197C22.9718 4.80789 21.0279 4.00092 19.0001 3.99801Z" fill="#2C3149"/>
<path d="M36 37.9998C35.4696 37.9998 34.9608 37.7891 34.5858 37.414C34.2107 37.039 34 36.5302 34 35.9998C33.996 32.6328 32.6567 29.4048 30.2759 27.0239C27.895 24.6431 24.667 23.3038 21.3 23.2998H16.7C13.333 23.3038 10.105 24.6431 7.72412 27.0239C5.34327 29.4048 4.00397 32.6328 4 35.9998C4 36.5302 3.78926 37.039 3.41418 37.414C3.03911 37.7891 2.53043 37.9998 2 37.9998C1.46957 37.9998 0.960827 37.7891 0.585754 37.414C0.210682 37.039 0 36.5302 0 35.9998C0.00529288 31.5723 1.76644 27.3277 4.89716 24.197C8.02787 21.0662 12.2725 19.3051 16.7 19.2998H21.3C25.7275 19.3051 29.9721 21.0662 33.1028 24.197C36.2336 27.3277 37.9947 31.5723 38 35.9998C38 36.5302 37.7893 37.039 37.4142 37.414C37.0391 37.7891 36.5304 37.9998 36 37.9998Z" fill="#2C3149"/>
</svg>
