<svg width="22" height="21" viewBox="0 0 22 21" fill="none" xmlns="http://www.w3.org/2000/svg">
<path d="M19.337 2.10516C19.1967 1.965 18.9693 1.96489 18.829 2.10516L15.1052 5.82883C14.9649 5.96911 14.9649 6.19645 15.1052 6.33676C15.1754 6.40688 15.2672 6.44192 15.3592 6.44192C15.4511 6.44192 15.543 6.40688 15.6132 6.33676L19.337 2.61309C19.4772 2.47278 19.4772 2.2454 19.337 2.10516Z" fill="white" stroke="white" stroke-width="0.6"/>
<path d="M16.2721 9.43586L20.8947 4.81329C21.035 4.67297 21.035 4.44563 20.8947 4.30536C20.7544 4.1652 20.5271 4.16508 20.3868 4.30536L15.7643 8.92793C15.1948 9.49739 14.324 9.6468 13.5975 9.29985C13.453 9.23086 13.2804 9.26575 13.1741 9.38551L11.6034 11.1552C11.6028 11.1558 11.6021 11.1564 11.6015 11.1571C11.6009 11.1578 11.6004 11.1586 11.5998 11.1593L4.81113 18.8076C4.80941 18.8095 4.80769 18.8115 4.80601 18.8135C4.78363 18.8398 4.7625 18.8629 4.74109 18.8843C4.29285 19.3325 3.56355 19.3325 3.11551 18.8843C2.8984 18.6673 2.77883 18.3786 2.77883 18.0715C2.77883 17.7645 2.8984 17.4758 3.1159 17.2583C3.13676 17.2373 3.1598 17.2163 3.18633 17.1937C3.18836 17.192 3.19031 17.1903 3.19227 17.1886L7.43633 13.4216C7.58469 13.29 7.59816 13.063 7.46652 12.9147C7.33484 12.7663 7.10781 12.7527 6.95953 12.8845L2.71828 16.6489C2.67773 16.6835 2.64145 16.717 2.60762 16.7508C2.25484 17.1036 2.06055 17.5726 2.06055 18.0715C2.06055 18.5704 2.2548 19.0395 2.60758 19.3922C2.97176 19.7563 3.45 19.9384 3.92836 19.9384C4.40652 19.9384 4.88488 19.7564 5.24879 19.3924C5.28328 19.358 5.31668 19.3217 5.35098 19.2815L10.5241 13.4532L15.6973 19.2816C15.7316 19.3218 15.765 19.3581 15.7992 19.3923C16.1633 19.7564 16.6416 19.9384 17.1199 19.9384C17.5982 19.9384 18.0765 19.7564 18.4407 19.3923C19.1688 18.664 19.1688 17.4792 18.4409 16.7511C18.4065 16.7166 18.3701 16.6832 18.33 16.649L12.3772 11.3654L13.5419 10.0532C14.4855 10.3875 15.5532 10.1547 16.2721 9.43586ZM17.8559 17.1886C17.8579 17.1904 17.8599 17.1921 17.8619 17.1938C17.8882 17.2161 17.9112 17.2373 17.9327 17.2587C18.3809 17.7069 18.3809 18.4361 17.9327 18.8843C17.4845 19.3324 16.7552 19.3324 16.3069 18.8841C16.2857 18.8629 16.2644 18.8397 16.2421 18.8134C16.2404 18.8114 16.2387 18.8095 16.2369 18.8075L11.0043 12.9121L11.9003 11.9025L17.8559 17.1886Z" fill="white" stroke="white" stroke-width="0.7"/>
<path d="M17.6945 1.10515C17.5542 0.964951 17.3268 0.964951 17.1866 1.10515L12.5641 5.72776C11.8451 6.44667 11.6123 7.51429 11.9466 8.45811L10.5241 9.72069L9.15703 8.50725C9.86402 7.11616 9.60593 5.42714 8.48429 4.30546C7.37031 3.19147 6.07999 2.40753 4.85105 2.09811C3.56812 1.77519 2.4682 1.99077 1.75359 2.70534C1.03898 3.41991 0.823355 4.51999 1.14636 5.80284C1.45582 7.03171 2.23972 8.32202 3.35378 9.43596C4.47542 10.5577 6.16441 10.8158 7.55558 10.1087C7.55558 10.1087 8.89249 11.6149 8.90945 11.634C8.98042 11.714 9.07906 11.7548 9.1782 11.7548C9.263 11.7548 9.34808 11.7249 9.41648 11.6642L12.6144 8.82577C12.7341 8.71948 12.769 8.54682 12.7 8.40237C12.353 7.67577 12.5025 6.80507 13.0719 6.23565L17.6945 1.61308C17.8348 1.47276 17.8348 1.24542 17.6945 1.10515ZM9.20824 10.8887L7.90089 9.41581C7.78511 9.28538 7.59222 9.25686 7.44378 9.34854C6.2923 10.0586 4.81925 9.88581 3.8616 8.92811C2.838 7.90456 2.12109 6.73241 1.84285 5.62745C1.58406 4.59944 1.73273 3.74202 2.26152 3.21327C2.79023 2.68444 3.64765 2.53585 4.67562 2.79468C5.78058 3.07288 6.95281 3.78976 7.97632 4.81335C8.93398 5.77097 9.10679 7.24401 8.39671 8.3955C8.30515 8.54397 8.33355 8.73679 8.46398 8.85261L9.98304 10.2009L9.20824 10.8887Z" fill="white" stroke="white" stroke-width="0.7"/>
</svg>
