<svg width="20" height="20" viewBox="0 0 20 20" fill="none" xmlns="http://www.w3.org/2000/svg">
<path fill-rule="evenodd" clip-rule="evenodd" d="M0 3V17C0 18.6569 1.34315 20 3 20H9C10.6569 20 12 18.6569 12 17V16C13.6569 16 15 14.6569 15 13V7C15 6.59984 15.235 6.25457 15.5746 6.09473C16.002 6.61017 16.6324 6.95119 17.3432 6.99517L17.978 8.4494C18.1989 8.9556 18.7883 9.1868 19.2945 8.9659C19.8007 8.7449 20.0319 8.1555 19.811 7.64935L19.2258 6.30872C19.7028 5.85346 20 5.21144 20 4.5C20 3.11929 18.8807 2 17.5 2C16.2336 2 15.1872 2.94158 15.0225 4.16284C13.8456 4.56824 13 5.68537 13 7V13C13 13.5523 12.5523 14 12 14V3C12 1.34315 10.6569 0 9 0H3C1.34315 0 0 1.34315 0 3ZM3 2C2.44772 2 2 2.44772 2 3V6H10V3C10 2.44772 9.5523 2 9 2H3ZM10 8H2V17C2 17.5523 2.44772 18 3 18H9C9.5523 18 10 17.5523 10 17V15V8ZM18 4.5C18 4.22386 17.7761 4 17.5 4C17.2239 4 17 4.22386 17 4.5C17 4.77614 17.2239 5 17.5 5C17.7761 5 18 4.77614 18 4.5Z" fill="white"/>
</svg>
