<svg width="51" height="50" viewBox="0 0 51 50" fill="none" xmlns="http://www.w3.org/2000/svg">
<circle opacity="0.5" cx="25.54" cy="25" r="25" fill="#BA73E7"/>
<path fill-rule="evenodd" clip-rule="evenodd" d="M18.5801 20V34C18.5801 35.6569 19.9232 37 21.5801 37H27.5801C29.237 37 30.5801 35.6569 30.5801 34V33C32.237 33 33.5801 31.6569 33.5801 30V24C33.5801 23.5998 33.8151 23.2546 34.1547 23.0947C34.5821 23.6102 35.2125 23.9512 35.9233 23.9952L36.5581 25.4494C36.779 25.9556 37.3684 26.1868 37.8746 25.9659C38.3808 25.7449 38.612 25.1555 38.3911 24.6494L37.8059 23.3087C38.2829 22.8535 38.5801 22.2114 38.5801 21.5C38.5801 20.1193 37.4608 19 36.0801 19C34.8137 19 33.7673 19.9416 33.6026 21.1628C32.4257 21.5682 31.5801 22.6854 31.5801 24V30C31.5801 30.5523 31.1324 31 30.5801 31V20C30.5801 18.3432 29.237 17 27.5801 17H21.5801C19.9232 17 18.5801 18.3432 18.5801 20ZM21.5801 19C21.0278 19 20.5801 19.4477 20.5801 20V23H28.5801V20C28.5801 19.4477 28.1324 19 27.5801 19H21.5801ZM28.5801 25H20.5801V34C20.5801 34.5523 21.0278 35 21.5801 35H27.5801C28.1324 35 28.5801 34.5523 28.5801 34V32V25ZM36.5801 21.5C36.5801 21.2239 36.3562 21 36.0801 21C35.804 21 35.5801 21.2239 35.5801 21.5C35.5801 21.7761 35.804 22 36.0801 22C36.3562 22 36.5801 21.7761 36.5801 21.5Z" fill="white"/>
</svg>
