<svg width="20" height="19" viewBox="0 0 20 19" fill="none" xmlns="http://www.w3.org/2000/svg">
<path d="M19.5871 8.74207L11.5234 0.625234C11.513 0.614786 11.5023 0.604648 11.4914 0.594819C10.6109 -0.195764 9.28036 -0.198589 8.39649 0.58828C8.3855 0.59807 8.37482 0.608169 8.36441 0.61854L0.227214 8.73971C-0.0753055 9.04169 -0.0758085 9.53169 0.226131 9.83421C0.528109 10.1367 1.01811 10.1372 1.32059 9.83529L1.93476 9.22232V15.9044C1.93476 17.6113 3.32346 19 5.03038 19H7.81644C8.24387 19 8.59035 18.6535 8.59035 18.2261V11.9188H11.299V18.2261C11.299 18.6535 11.6455 19 12.0729 19H14.7816C16.4885 19 17.8772 17.6113 17.8772 15.9044C17.8772 15.4769 17.5307 15.1305 17.1033 15.1305C16.6759 15.1305 16.3294 15.4769 16.3294 15.9044C16.3294 16.7578 15.6351 17.4522 14.7816 17.4522H12.8468V11.1449C12.8468 10.7174 12.5004 10.371 12.0729 10.371H7.81644C7.38902 10.371 7.04254 10.7174 7.04254 11.1449V17.4522H5.03038C4.17692 17.4522 3.48257 16.7578 3.48257 15.9044V7.70098C3.48257 7.69324 3.48246 7.68554 3.48222 7.67788L9.43956 1.73231C9.7295 1.48609 10.1548 1.48702 10.4436 1.73443L16.3294 7.65907V12.0348C16.3294 12.4623 16.6759 12.8088 17.1033 12.8088C17.5307 12.8088 17.8772 12.4623 17.8772 12.0348V9.21706L18.4891 9.83297C18.6403 9.98524 18.8391 10.0614 19.0381 10.0614C19.2353 10.0614 19.4326 9.98647 19.5835 9.83653C19.8867 9.53529 19.8884 9.04529 19.5871 8.74207Z" fill="#0DCABF"/>
</svg>
