<svg width="12" height="10" viewBox="0 0 12 10" fill="none" xmlns="http://www.w3.org/2000/svg">
<path d="M0.615687 8.18088L11.3846 8.18088C11.5478 8.18088 11.7044 8.24573 11.8198 8.36113C11.9352 8.47653 12 8.63305 12 8.79625C12 8.95946 11.9352 9.11597 11.8198 9.23137C11.7044 9.34678 11.5478 9.41162 11.3846 9.41162L0.615687 9.41162C0.452481 9.41162 0.295969 9.34678 0.180565 9.23137C0.0651617 9.11597 0.00031952 8.95946 0.000319535 8.79625C0.000319549 8.63305 0.0651618 8.47653 0.180565 8.36113C0.295969 8.24573 0.452481 8.18088 0.615687 8.18088Z" fill="#2C3149"/>
<path d="M0.615177 0.00022017L4.20494 0.000220483C4.36815 0.000220498 4.52466 0.0650627 4.64007 0.180467C4.75547 0.295871 4.82031 0.452383 4.82031 0.615589C4.82031 0.778795 4.75547 0.935307 4.64007 1.05071C4.52466 1.16611 4.36815 1.23096 4.20494 1.23096L0.615177 1.23096C0.451972 1.23096 0.295459 1.16611 0.180055 1.05071C0.064651 0.935307 -0.000191172 0.778794 -0.000191158 0.615588C-0.000191144 0.452383 0.0646511 0.29587 0.180055 0.180466C0.295459 0.0650624 0.451972 0.000220155 0.615177 0.00022017Z" fill="#2C3149"/>
<path d="M0.615593 4.0886L7.79479 4.0886C7.95799 4.0886 8.11451 4.15344 8.22991 4.26885C8.34531 4.38425 8.41016 4.54076 8.41016 4.70397C8.41016 4.86717 8.34531 5.02369 8.22991 5.13909C8.11451 5.25449 7.95799 5.31934 7.79479 5.31934L0.615592 5.31934C0.452387 5.31934 0.295856 5.25449 0.180451 5.13909C0.0650482 5.02369 0.000224153 4.86717 0.000224167 4.70397C0.000224182 4.54076 0.0650483 4.38425 0.180451 4.26884C0.295856 4.15344 0.452387 4.0886 0.615593 4.0886Z" fill="#2C3149"/>
</svg>
