<svg width="441" height="239" viewBox="0 0 441 239" fill="none" xmlns="http://www.w3.org/2000/svg">
<path d="M123.981 196.096H127.629V198.664H123.981V196.096ZM131.157 187.912H134.205V210.136H131.157V187.912ZM126.621 188.248H129.621V209.128H126.621V188.248ZM120.093 189.472C123.045 189.472 124.941 192.52 124.941 197.536C124.941 202.576 123.045 205.624 120.093 205.624C117.165 205.624 115.293 202.576 115.293 197.536C115.293 192.52 117.165 189.472 120.093 189.472ZM120.093 192.472C118.893 192.472 118.197 194.152 118.197 197.536C118.197 200.944 118.893 202.6 120.093 202.6C121.341 202.6 122.037 200.944 122.037 197.536C122.037 194.152 121.341 192.472 120.093 192.472ZM152.587 187.888H155.779V210.184H152.587V187.888ZM149.107 195.904H153.235V198.472H149.107V195.904ZM137.947 202.408H139.771C143.371 202.408 146.227 202.336 149.443 201.784L149.731 204.376C146.443 204.928 143.467 205.048 139.771 205.048H137.947V202.408ZM137.899 189.784H147.907V198.136H141.115V203.2H137.947V195.616H144.763V192.328H137.899V189.784ZM173.465 187.888H176.681V210.112H173.465V187.888ZM175.841 196.384H179.753V199H175.841V196.384ZM167.633 190.192H170.753C170.753 196.864 168.209 202.576 160.817 206.296L159.041 203.872C164.873 200.848 167.633 196.768 167.633 190.744V190.192ZM160.265 190.192H169.265V192.76H160.265V190.192ZM189.53 188.896H192.698V191.512H197.042V188.896H200.21V198.616H189.53V188.896ZM192.698 193.912V196.12H197.042V193.912H192.698ZM203.186 187.912H206.378V199.192H203.186V187.912ZM205.082 192.184H209.306V194.776H205.082V192.184ZM191.69 200.056H206.378V206.104H194.906V208.744H191.738V203.824H203.234V202.504H191.69V200.056ZM191.738 207.52H207.026V209.992H191.738V207.52ZM214.968 189.256H217.464V191.824C217.464 195.592 215.952 199.36 212.328 200.896L210.648 198.424C213.744 197.056 214.968 194.32 214.968 191.824V189.256ZM215.544 189.256H218.04V191.824C218.04 194.2 219.24 196.6 222.168 197.752L220.464 200.176C217.008 198.808 215.544 195.448 215.544 191.824V189.256ZM226.872 187.936H229.896V201.496H226.872V187.936ZM224.208 193.312H227.736V195.88H224.208V193.312ZM222.168 188.344H225.144V200.8H222.168V188.344ZM222.36 201.808C227.016 201.808 230.016 203.368 230.016 205.984C230.016 208.576 227.016 210.136 222.36 210.136C217.68 210.136 214.728 208.576 214.728 205.984C214.728 203.368 217.68 201.808 222.36 201.808ZM222.36 204.208C219.504 204.208 217.896 204.808 217.896 205.984C217.896 207.16 219.504 207.736 222.36 207.736C225.216 207.736 226.8 207.16 226.8 205.984C226.8 204.808 225.216 204.208 222.36 204.208ZM248.95 187.936H251.974V201.592H248.95V187.936ZM246.238 193.6H249.79V196.168H246.238V193.6ZM244.366 188.224H247.342V201.376H244.366V188.224ZM232.942 190.048H243.718V192.52H232.942V190.048ZM238.366 193.192C241.15 193.192 243.166 194.776 243.166 197.08C243.166 199.384 241.15 200.968 238.366 200.968C235.582 200.968 233.566 199.384 233.566 197.08C233.566 194.776 235.582 193.192 238.366 193.192ZM238.366 195.496C237.19 195.496 236.398 196.048 236.398 197.08C236.398 198.112 237.19 198.688 238.366 198.688C239.518 198.688 240.31 198.112 240.31 197.08C240.31 196.048 239.518 195.496 238.366 195.496ZM236.758 188.056H239.902V191.8H236.758V188.056ZM238.39 202.312H240.79V202.744C240.79 205.888 239.254 208.744 235.75 209.872L234.286 207.52C237.142 206.68 238.39 204.688 238.39 202.744V202.312ZM239.23 202.312H241.51V202.744C241.51 204.712 242.566 206.752 245.23 207.736L243.958 210.088C240.502 208.888 239.23 205.792 239.23 202.744V202.312ZM246.406 202.312H248.686V202.744C248.686 205.6 247.39 208.84 243.958 210.088L242.71 207.736C245.302 206.656 246.406 204.544 246.406 202.744V202.312ZM247.198 202.312H249.574V202.744C249.574 204.808 250.798 206.752 253.702 207.52L252.214 209.872C248.662 208.792 247.198 206.008 247.198 202.744V202.312ZM257.468 201.232H260.612V203.104H269.516V201.232H272.684V209.896H257.468V201.232ZM260.612 205.48V207.4H269.516V205.48H260.612ZM255.116 197.608H275.204V200.128H255.116V197.608ZM263.54 188.152H266.276V188.824C266.276 192.688 262.964 195.88 257.228 196.624L256.1 194.152C261.116 193.552 263.54 191.08 263.54 188.824V188.152ZM264.068 188.152H266.804V188.824C266.804 191.056 269.228 193.552 274.22 194.152L273.092 196.624C267.356 195.88 264.068 192.664 264.068 188.824V188.152ZM292.578 187.912H295.77V210.136H292.578V187.912ZM278.37 190.024H281.538V203.824H278.37V190.024ZM278.37 201.952H280.338C283.578 201.952 287.178 201.712 290.85 200.992L291.21 203.632C287.394 204.424 283.722 204.664 280.338 204.664H278.37V201.952ZM313.481 187.888H316.697V210.184H313.481V187.888ZM315.977 196.12H319.913V198.736H315.977V196.12ZM300.137 202.192H302.009C305.753 202.192 308.705 202.072 311.969 201.496L312.281 204.136C308.921 204.736 305.873 204.832 302.009 204.832H300.137V202.192ZM300.137 189.952H310.505V192.52H303.305V203.464H300.137V189.952ZM323.367 208C322.727 208 322.407 207.68 322.407 207.04V206.44C322.407 205.816 322.727 205.504 323.367 205.504H323.943C324.551 205.504 324.855 205.816 324.855 206.44V207.04C324.855 207.68 324.551 208 323.943 208H323.367ZM105.046 217.52H114.55V220.088H105.046V217.52ZM107.782 222.704H110.95V228.272H107.782V222.704ZM113.302 217.52H116.446V218.912C116.446 220.472 116.446 222.68 115.918 225.44L112.822 225.104C113.302 222.368 113.302 220.448 113.302 218.912V217.52ZM118.606 215.912H121.822V232.544H118.606V215.912ZM120.55 222.68H124.462V225.296H120.55V222.68ZM106.99 235.208H122.518V237.752H106.99V235.208ZM106.99 231.056H110.182V236H106.99V231.056ZM104.038 229.568L103.75 227.048C107.59 227.048 112.942 226.976 117.406 226.352L117.598 228.608C113.014 229.472 107.854 229.568 104.038 229.568ZM141.452 215.888H144.644V238.184H141.452V215.888ZM127.34 230.408H129.308C133.244 230.408 136.388 230.264 139.916 229.664L140.228 232.232C136.628 232.88 133.364 233 129.308 233H127.34V230.408ZM127.316 217.784H137.804V226.376H130.58V231.368H127.34V223.856H134.54V220.328H127.316V217.784ZM153.21 219.416H155.73V221.912C155.73 226.928 153.618 232.04 149.538 233.96L147.738 231.44C151.41 229.712 153.21 225.56 153.21 221.912V219.416ZM153.882 219.416H156.402V221.912C156.402 225.272 158.13 229.208 161.778 230.888L160.026 233.408C155.946 231.512 153.882 226.64 153.882 221.912V219.416ZM148.602 218.048H160.794V220.664H148.602V218.048ZM162.426 215.912H165.642V238.136H162.426V215.912ZM164.922 224.384H168.858V227.024H164.922V224.384ZM179.176 224.096H182.824V226.664H179.176V224.096ZM186.352 215.912H189.4V238.136H186.352V215.912ZM181.816 216.248H184.816V237.128H181.816V216.248ZM175.288 217.472C178.24 217.472 180.136 220.52 180.136 225.536C180.136 230.576 178.24 233.624 175.288 233.624C172.36 233.624 170.488 230.576 170.488 225.536C170.488 220.52 172.36 217.472 175.288 217.472ZM175.288 220.472C174.088 220.472 173.392 222.152 173.392 225.536C173.392 228.944 174.088 230.6 175.288 230.6C176.536 230.6 177.232 228.944 177.232 225.536C177.232 222.152 176.536 220.472 175.288 220.472ZM208.478 215.912H211.526V238.136H208.478V215.912ZM199.67 224.432H204.422V226.952H199.67V224.432ZM203.798 216.392H206.774V237.152H203.798V216.392ZM198.95 218.528H202.022C202.022 224.864 200.126 229.904 193.886 233.528L192.086 231.296C197.15 228.248 198.95 224.552 198.95 219.176V218.528ZM193.334 218.528H199.958V221.072H193.334V218.528ZM221.999 226.88H242.111V229.424H221.999V226.88ZM230.711 228.488H233.927V233.168H230.711V228.488ZM224.471 216.848H239.567V225.104H224.471V216.848ZM236.423 219.344H227.591V222.608H236.423V219.344ZM224.327 235.208H239.903V237.752H224.327V235.208ZM224.327 231.296H227.495V236.048H224.327V231.296ZM251.229 217.376C254.733 217.376 257.349 219.656 257.349 222.848C257.349 226.064 254.733 228.344 251.229 228.344C247.749 228.344 245.085 226.064 245.085 222.848C245.085 219.656 247.749 217.376 251.229 217.376ZM251.229 220.112C249.525 220.112 248.229 221.12 248.229 222.848C248.229 224.6 249.525 225.608 251.229 225.608C252.933 225.608 254.229 224.6 254.229 222.848C254.229 221.12 252.933 220.112 251.229 220.112ZM259.437 215.888H262.629V238.184H259.437V215.888ZM244.557 233.672L244.173 231.104C248.085 231.104 253.533 231.056 258.213 230.36L258.453 232.664C253.629 233.624 248.397 233.672 244.557 233.672ZM280.411 215.912H283.579V238.136H280.411V215.912ZM282.859 224.576H286.795V227.24H282.859V224.576ZM266.059 219.2H278.995V221.744H266.059V219.2ZM272.563 222.992C275.803 222.992 278.203 225.2 278.203 228.296C278.203 231.392 275.803 233.6 272.563 233.6C269.323 233.6 266.923 231.392 266.923 228.296C266.923 225.2 269.323 222.992 272.563 222.992ZM272.563 225.584C271.051 225.584 269.971 226.592 269.971 228.296C269.971 230 271.051 231.008 272.563 231.008C274.075 231.008 275.155 230 275.155 228.296C275.155 226.592 274.075 225.584 272.563 225.584ZM270.955 216.272H274.147V220.16H270.955V216.272ZM296.993 223.376H300.665V225.968H296.993V223.376ZM292.241 217.832H294.689V221.576C294.689 226.616 293.297 231.536 289.745 233.72L287.825 231.32C291.089 229.304 292.241 225.344 292.241 221.576V217.832ZM292.937 217.832H295.337V221.432C295.337 225.056 296.273 228.752 299.297 230.72L297.569 233.216C294.041 231.032 292.937 226.232 292.937 221.432V217.832ZM304.289 215.912H307.337V238.136H304.289V215.912ZM299.777 216.248H302.753V237.128H299.777V216.248ZM314.752 227.192H317.92V233.432H314.752V227.192ZM322.816 227.192H326.008V233.432H322.816V227.192ZM310.336 232.976H330.448V235.568H310.336V232.976ZM320.368 216.992C325.144 216.992 328.672 219.344 328.672 222.968C328.672 226.592 325.144 228.92 320.368 228.92C315.568 228.92 312.064 226.592 312.064 222.968C312.064 219.344 315.568 216.992 320.368 216.992ZM320.368 219.488C317.272 219.488 315.208 220.76 315.208 222.968C315.208 225.152 317.272 226.448 320.368 226.448C323.464 226.448 325.528 225.152 325.528 222.968C325.528 220.76 323.464 219.488 320.368 219.488ZM334.406 236C333.766 236 333.446 235.68 333.446 235.04V234.44C333.446 233.816 333.766 233.504 334.406 233.504H334.982C335.59 233.504 335.894 233.816 335.894 234.44V235.04C335.894 235.68 335.59 236 334.982 236H334.406Z" fill="white"/>
<path d="M271.321 47.476H223.153V31.3852C243.035 26.1592 236.016 -2.81092 215.892 1.42057C200.1 5.06873 200.134 27.7514 215.892 31.3852V47.476H167.723C156.904 47.4808 148.127 56.1398 148.117 66.8261V118.214C148.117 120.194 149.744 121.8 151.748 121.8C153.752 121.8 155.379 120.194 155.379 118.214V66.8261C155.389 60.0988 160.912 54.6481 167.723 54.6481H271.321C278.133 54.6481 283.656 60.0988 283.666 66.8261V148.515C283.656 155.243 278.133 160.693 271.321 160.693H167.723C160.844 160.636 155.316 155.08 155.374 148.286C155.505 146.278 153.781 144.576 151.748 144.7C149.696 144.81 148.098 146.498 148.117 148.525C148.132 159.211 156.904 167.861 167.723 167.865H271.321C282.136 167.856 290.903 159.197 290.913 148.515V66.8261C290.903 56.1446 282.141 47.4856 271.321 47.476ZM211.191 16.4435L211.176 16.4627C211.336 5.63771 227.636 5.60424 227.849 16.4244C227.679 27.2589 211.38 27.2733 211.191 16.4435Z" fill="white" stroke="white" stroke-width="0.7"/>
<path d="M188.781 137.733C188.781 139.712 190.408 141.319 192.412 141.319H246.631C248.636 141.319 250.262 139.712 250.262 137.733C250.262 135.753 248.636 134.147 246.631 134.147H192.412C190.403 134.147 188.781 135.753 188.781 137.733Z" fill="white" stroke="white" stroke-width="0.7"/>
<path d="M187.714 76.859C168.331 77.3372 168.321 105.404 187.705 105.891C207.093 105.408 207.083 77.3659 187.714 76.859ZM187.714 98.705V98.7193C177.94 98.5616 177.931 84.1984 187.705 84.0311C197.479 84.1936 197.479 98.5233 187.714 98.705Z" fill="white" stroke="white" stroke-width="0.7"/>
<path d="M251.332 76.8479C231.944 77.3356 231.953 105.402 251.337 105.88C270.71 105.373 270.715 77.3309 251.332 76.8479ZM243.901 91.3641C244.066 81.7106 258.608 81.7106 258.773 91.3641C258.608 101.018 244.08 101.013 243.901 91.3641Z" fill="white" stroke="white" stroke-width="0.7"/>
</svg>
