<svg width="441" height="230" viewBox="0 0 441 230" fill="none" xmlns="http://www.w3.org/2000/svg">
<path d="M64.1323 223C63.0123 223 62.4523 222.44 62.4523 221.32L62.4923 199.8L63.8123 198.84L51.9723 214.88L51.6923 214.04L68.1323 213.96C68.679 213.96 69.0923 214.12 69.3723 214.44C69.6657 214.76 69.8123 215.16 69.8123 215.64C69.8123 216.76 69.2523 217.32 68.1323 217.32H50.0923C48.9723 217.32 48.4123 216.76 48.4123 215.64C48.4123 215.107 48.639 214.52 49.0923 213.88L61.6523 196.92C61.999 196.453 62.3523 196.167 62.7123 196.06C63.0857 195.94 63.519 195.88 64.0123 195.88C65.239 195.88 65.8523 196.44 65.8523 197.56L65.8123 221.32C65.8123 222.44 65.2523 223 64.1323 223ZM84.0542 222.96C81.0009 222.96 78.7409 222.233 77.2742 220.78C75.8209 219.313 75.0942 217.053 75.0942 214V204.76C75.0942 201.68 75.8209 199.413 77.2742 197.96C78.7409 196.507 81.0009 195.8 84.0542 195.84H86.4542C89.5209 195.84 91.7809 196.567 93.2342 198.02C94.6876 199.46 95.4142 201.72 95.4142 204.8V214C95.4142 217.053 94.6876 219.313 93.2342 220.78C91.7809 222.233 89.5209 222.96 86.4542 222.96H84.0542ZM84.0542 219.6H86.4542C87.8809 219.6 89.0009 219.427 89.8142 219.08C90.6276 218.733 91.2009 218.153 91.5342 217.34C91.8809 216.527 92.0542 215.413 92.0542 214V204.8C92.0542 203.373 91.8809 202.253 91.5342 201.44C91.2009 200.627 90.6276 200.053 89.8142 199.72C89.0009 199.373 87.8809 199.2 86.4542 199.2H84.0542C82.6409 199.173 81.5276 199.327 80.7142 199.66C79.9009 199.98 79.3209 200.553 78.9742 201.38C78.6276 202.193 78.4542 203.32 78.4542 204.76V214C78.4542 215.413 78.6209 216.527 78.9542 217.34C79.3009 218.153 79.8809 218.733 80.6942 219.08C81.5076 219.427 82.6276 219.6 84.0542 219.6ZM84.7742 211.36C83.7076 211.36 83.1742 210.827 83.1742 209.76V208.76C83.1742 207.72 83.7076 207.2 84.7742 207.2H85.7342C86.7476 207.2 87.2542 207.72 87.2542 208.76V209.76C87.2542 210.827 86.7476 211.36 85.7342 211.36H84.7742ZM116.398 223C115.278 223 114.718 222.44 114.718 221.32L114.758 199.8L116.078 198.84L104.238 214.88L103.958 214.04L120.398 213.96C120.945 213.96 121.358 214.12 121.638 214.44C121.931 214.76 122.078 215.16 122.078 215.64C122.078 216.76 121.518 217.32 120.398 217.32H102.358C101.238 217.32 100.678 216.76 100.678 215.64C100.678 215.107 100.905 214.52 101.358 213.88L113.918 196.92C114.265 196.453 114.618 196.167 114.978 196.06C115.351 195.94 115.785 195.88 116.278 195.88C117.505 195.88 118.118 196.44 118.118 197.56L118.078 221.32C118.078 222.44 117.518 223 116.398 223ZM142.978 227.8C142.978 228.92 142.418 229.48 141.298 229.48C140.178 229.48 139.618 228.92 139.618 227.8V196.04C139.618 194.92 140.178 194.36 141.298 194.36C142.418 194.36 142.978 194.92 142.978 196.04V227.8ZM164.602 223C163.482 223 162.922 222.44 162.922 221.32V197.56C162.922 196.44 163.482 195.88 164.602 195.88C165.175 195.88 165.735 196.213 166.282 196.88L182.362 217.6H181.522V197.56C181.522 196.44 182.082 195.88 183.202 195.88C184.322 195.88 184.882 196.44 184.882 197.56V221.32C184.882 222.44 184.322 223 183.202 223C182.602 223 182.042 222.667 181.522 222L165.442 201.28H166.282V221.32C166.282 222.44 165.722 223 164.602 223ZM201.195 223C198.142 223 195.882 222.273 194.415 220.82C192.962 219.353 192.235 217.093 192.235 214.04V204.8C192.235 201.72 192.968 199.46 194.435 198.02C195.902 196.567 198.155 195.853 201.195 195.88H205.995C209.062 195.88 211.322 196.607 212.775 198.06C214.228 199.513 214.955 201.773 214.955 204.84V214.04C214.955 217.093 214.228 219.353 212.775 220.82C211.322 222.273 209.062 223 205.995 223H201.195ZM201.195 219.64H205.995C207.422 219.64 208.542 219.473 209.355 219.14C210.168 218.793 210.742 218.213 211.075 217.4C211.422 216.587 211.595 215.467 211.595 214.04V204.84C211.595 203.427 211.422 202.313 211.075 201.5C210.742 200.687 210.168 200.107 209.355 199.76C208.542 199.413 207.422 199.24 205.995 199.24H201.195C199.782 199.227 198.668 199.387 197.855 199.72C197.042 200.053 196.462 200.627 196.115 201.44C195.768 202.253 195.595 203.373 195.595 204.8V214.04C195.595 215.467 195.762 216.587 196.095 217.4C196.442 218.213 197.022 218.793 197.835 219.14C198.648 219.473 199.768 219.64 201.195 219.64ZM228.815 223C228.255 223 227.835 222.86 227.555 222.58C227.275 222.3 227.135 221.88 227.135 221.32V199.28H219.375C218.815 199.28 218.395 199.14 218.115 198.86C217.835 198.58 217.695 198.16 217.695 197.6C217.695 197.04 217.835 196.62 218.115 196.34C218.395 196.06 218.815 195.92 219.375 195.92H238.255C238.815 195.92 239.235 196.06 239.515 196.34C239.795 196.62 239.935 197.04 239.935 197.6C239.935 198.16 239.795 198.58 239.515 198.86C239.235 199.14 238.815 199.28 238.255 199.28H230.495V221.32C230.495 221.853 230.348 222.267 230.055 222.56C229.775 222.853 229.362 223 228.815 223ZM259.524 223C258.404 223 257.844 222.44 257.844 221.32V197.56C257.844 196.44 258.404 195.88 259.524 195.88H274.244C274.764 195.88 275.17 196.033 275.464 196.34C275.77 196.633 275.924 197.04 275.924 197.56C275.924 198.68 275.364 199.24 274.244 199.24H261.204V207.64H269.244C270.364 207.64 270.924 208.2 270.924 209.32C270.924 210.44 270.364 211 269.244 211H261.204V221.32C261.204 222.44 260.644 223 259.524 223ZM287.68 223C284.626 223 282.366 222.273 280.9 220.82C279.446 219.353 278.72 217.093 278.72 214.04V204.8C278.72 201.72 279.453 199.46 280.92 198.02C282.386 196.567 284.64 195.853 287.68 195.88H292.48C295.546 195.88 297.806 196.607 299.26 198.06C300.713 199.513 301.44 201.773 301.44 204.84V214.04C301.44 217.093 300.713 219.353 299.26 220.82C297.806 222.273 295.546 223 292.48 223H287.68ZM287.68 219.64H292.48C293.906 219.64 295.026 219.473 295.84 219.14C296.653 218.793 297.226 218.213 297.56 217.4C297.906 216.587 298.08 215.467 298.08 214.04V204.84C298.08 203.427 297.906 202.313 297.56 201.5C297.226 200.687 296.653 200.107 295.84 199.76C295.026 199.413 293.906 199.24 292.48 199.24H287.68C286.266 199.227 285.153 199.387 284.34 199.72C283.526 200.053 282.946 200.627 282.6 201.44C282.253 202.253 282.08 203.373 282.08 204.8V214.04C282.08 215.467 282.246 216.587 282.58 217.4C282.926 218.213 283.506 218.793 284.32 219.14C285.133 219.473 286.253 219.64 287.68 219.64ZM317.541 223C314.488 223 312.228 222.273 310.761 220.82C309.308 219.353 308.581 217.093 308.581 214.04V197.56C308.581 197 308.721 196.58 309.001 196.3C309.281 196.02 309.701 195.88 310.261 195.88C310.821 195.88 311.241 196.02 311.521 196.3C311.801 196.58 311.941 197 311.941 197.56V214.04C311.941 215.467 312.108 216.587 312.441 217.4C312.788 218.213 313.368 218.793 314.181 219.14C314.994 219.473 316.114 219.64 317.541 219.64H322.341C323.768 219.64 324.888 219.473 325.701 219.14C326.514 218.793 327.088 218.213 327.421 217.4C327.768 216.587 327.941 215.467 327.941 214.04V197.56C327.941 197 328.081 196.58 328.361 196.3C328.641 196.02 329.061 195.88 329.621 195.88C330.181 195.88 330.601 196.02 330.881 196.3C331.161 196.58 331.301 197 331.301 197.56V214.04C331.301 217.093 330.574 219.353 329.121 220.82C327.668 222.273 325.408 223 322.341 223H317.541ZM341.086 223C339.966 223 339.406 222.44 339.406 221.32V197.56C339.406 196.44 339.966 195.88 341.086 195.88C341.659 195.88 342.219 196.213 342.766 196.88L358.846 217.6H358.006V197.56C358.006 196.44 358.566 195.88 359.686 195.88C360.806 195.88 361.366 196.44 361.366 197.56V221.32C361.366 222.44 360.806 223 359.686 223C359.086 223 358.526 222.667 358.006 222L341.926 201.28H342.766V221.32C342.766 222.44 342.206 223 341.086 223ZM371.36 223C370.24 223 369.68 222.44 369.68 221.32V197.56C369.68 196.44 370.24 195.88 371.36 195.88H381C384.48 195.88 387.04 196.707 388.68 198.36C390.333 200 391.16 202.56 391.16 206.04V212.84C391.16 216.32 390.34 218.887 388.7 220.54C387.073 222.18 384.506 223 381 223H371.36ZM373.04 219.64H381C382.706 219.64 384.053 219.433 385.04 219.02C386.04 218.593 386.746 217.887 387.16 216.9C387.586 215.9 387.8 214.547 387.8 212.84V206.04C387.8 204.347 387.586 203.007 387.16 202.02C386.746 201.02 386.04 200.307 385.04 199.88C384.053 199.453 382.706 199.24 381 199.24H373.04V219.64Z" fill="white"/>
<path d="M271.321 47.476H223.153V31.3852C243.035 26.1592 236.016 -2.81092 215.892 1.42057C200.1 5.06873 200.134 27.7514 215.892 31.3852V47.476H167.723C156.904 47.4808 148.127 56.1398 148.117 66.8261V118.214C148.117 120.194 149.744 121.8 151.748 121.8C153.752 121.8 155.379 120.194 155.379 118.214V66.8261C155.389 60.0988 160.912 54.6481 167.723 54.6481H271.321C278.133 54.6481 283.656 60.0988 283.666 66.8261V148.515C283.656 155.243 278.133 160.693 271.321 160.693H167.723C160.844 160.636 155.316 155.08 155.374 148.286C155.505 146.278 153.781 144.576 151.748 144.7C149.696 144.81 148.098 146.498 148.117 148.525C148.132 159.211 156.904 167.861 167.723 167.865H271.321C282.136 167.856 290.903 159.197 290.913 148.515V66.8261C290.903 56.1446 282.141 47.4856 271.321 47.476ZM211.191 16.4435L211.176 16.4627C211.336 5.63771 227.636 5.60424 227.849 16.4244C227.679 27.2589 211.38 27.2733 211.191 16.4435Z" fill="white" stroke="white" stroke-width="0.7"/>
<path d="M188.781 137.733C188.781 139.712 190.408 141.319 192.412 141.319H246.631C248.636 141.319 250.262 139.712 250.262 137.733C250.262 135.753 248.636 134.147 246.631 134.147H192.412C190.403 134.147 188.781 135.753 188.781 137.733Z" fill="white" stroke="white" stroke-width="0.7"/>
<path d="M187.714 76.859C168.331 77.3372 168.321 105.404 187.705 105.891C207.093 105.408 207.083 77.3659 187.714 76.859ZM187.714 98.705V98.7193C177.94 98.5615 177.931 84.1984 187.705 84.0311C197.479 84.1936 197.479 98.5233 187.714 98.705Z" fill="white" stroke="white" stroke-width="0.7"/>
<path d="M251.332 76.848C231.944 77.3357 231.953 105.402 251.337 105.88C270.71 105.373 270.715 77.3309 251.332 76.848ZM243.901 91.3641C244.066 81.7106 258.608 81.7106 258.773 91.3641C258.608 101.018 244.08 101.013 243.901 91.3641Z" fill="white" stroke="white" stroke-width="0.7"/>
</svg>
