<svg width="40" height="40" viewBox="0 0 40 40" fill="none" xmlns="http://www.w3.org/2000/svg">
<path d="M31.603 11.8791H21.2022V8.34329C25.4953 7.19494 23.9796 0.8291 19.6343 1.75892C16.2245 2.56056 16.2318 7.5448 19.6343 8.34329V11.8791H9.23351C6.89726 11.8801 5.00213 13.7828 5.00004 16.131V27.4229C5.00004 27.8579 5.35126 28.2109 5.78401 28.2109C6.21677 28.2109 6.56799 27.8579 6.56799 27.4229V16.131C6.57008 14.6527 7.76277 13.455 9.23351 13.455H31.603C33.0737 13.455 34.2664 14.6527 34.2685 16.131V34.0812C34.2664 35.5595 33.0737 36.7572 31.603 36.7572H9.23351C7.74814 36.7446 6.5544 35.5237 6.56695 34.0308C6.59517 33.5895 6.22304 33.2155 5.78401 33.2428C5.34081 33.267 4.99586 33.6378 5.00004 34.0833C5.00317 36.4315 6.89726 38.3321 9.23351 38.3332H31.603C33.9382 38.3311 35.8312 36.4284 35.8333 34.0812V16.131C35.8312 13.7839 33.9392 11.8812 31.603 11.8791ZM18.6193 5.06004L18.6162 5.06424C18.6506 2.68558 22.1702 2.67823 22.2162 5.05583C22.1796 7.43659 18.6601 7.43974 18.6193 5.06004Z" fill="white" stroke="white" stroke-width="0.7"/>
<path d="M27 30C25.0933 28.4908 19.824 26.3778 14 30" stroke="white" stroke-width="2.5" stroke-linecap="round"/>
<path d="M11.5 21H17.5" stroke="white" stroke-width="2.5" stroke-linecap="round"/>
<path d="M23 21H29" stroke="white" stroke-width="2.5" stroke-linecap="round"/>
</svg>
