<svg width="19" height="20" viewBox="0 0 19 20" fill="none" xmlns="http://www.w3.org/2000/svg">
<path d="M16.1526 1.32918C17.0141 2.18764 17.4886 3.32906 17.4886 4.54314C17.4886 5.75723 17.0141 6.89864 16.1526 7.75716L8.96269 14.9222C7.89569 15.9855 6.15954 15.9855 5.09242 14.9222C4.02542 13.8588 4.02548 12.1286 5.09254 11.0653L9.827 6.34727C10.1833 5.99225 10.7608 5.99225 11.1171 6.34727C11.4733 6.70223 11.4733 7.27785 11.1171 7.63286L6.38261 12.3509C6.02684 12.7053 6.0269 13.2821 6.38255 13.6366C6.73826 13.991 7.31704 13.991 7.67268 13.6366L14.8625 6.47157C15.3794 5.95643 15.664 5.2716 15.664 4.54314C15.664 3.81468 15.3794 3.12985 14.8625 2.61478C13.7954 1.55148 12.0593 1.55141 10.9922 2.61465L3.1574 10.4225C1.37905 12.1948 1.3791 15.0784 3.1574 16.8505C4.01885 17.709 5.16424 18.1819 6.38255 18.1819C7.60086 18.1819 8.74631 17.709 9.60782 16.8505L17.4428 9.04288C17.799 8.68786 18.3766 8.68786 18.7328 9.04288C19.089 9.39784 19.0891 9.97346 18.7328 10.3285L10.8979 18.1361C9.69181 19.3381 8.08823 20 6.38255 20C4.67687 20 3.07329 19.3381 1.86727 18.1361C0.622261 16.8954 -0.000183049 15.2663 7.58833e-08 13.6366C0.000122166 12.0072 0.622566 10.3773 1.86727 9.13688L9.70221 1.32906C11.4806 -0.443068 14.3742 -0.443008 16.1526 1.32918Z" fill="white"/>
</svg>
