<svg width="40" height="40" viewBox="0 0 40 40" fill="none" xmlns="http://www.w3.org/2000/svg">
<path d="M31.603 11.8791H21.2022V8.34329C25.4953 7.19494 23.9796 0.8291 19.6343 1.75892C16.2245 2.56056 16.2318 7.5448 19.6343 8.34329V11.8791H9.23351C6.89726 11.8801 5.00213 13.7828 5.00004 16.131V27.4229C5.00004 27.8579 5.35126 28.2109 5.78401 28.2109C6.21677 28.2109 6.56799 27.8579 6.56799 27.4229V16.131C6.57008 14.6527 7.76277 13.455 9.23351 13.455H31.603C33.0737 13.455 34.2664 14.6527 34.2685 16.131V34.0812C34.2664 35.5595 33.0737 36.7572 31.603 36.7572H9.23351C7.74814 36.7446 6.5544 35.5237 6.56695 34.0308C6.59517 33.5895 6.22304 33.2155 5.78401 33.2428C5.34081 33.267 4.99586 33.6378 5.00004 34.0833C5.00317 36.4315 6.89726 38.3321 9.23351 38.3332H31.603C33.9382 38.3311 35.8312 36.4284 35.8333 34.0812V16.131C35.8312 13.7839 33.9392 11.8812 31.603 11.8791ZM18.6193 5.06004L18.6162 5.06424C18.6506 2.68558 22.1702 2.67823 22.2162 5.05583C22.1796 7.43659 18.6601 7.43974 18.6193 5.06004Z" fill="white" stroke="white" stroke-width="0.7"/>
<path d="M14 30C15.9067 31.5092 21.176 33.6222 27 30" stroke="white" stroke-width="2.5" stroke-linecap="round"/>
<path d="M13.5502 18.3354C9.36485 18.4405 9.36276 24.6078 13.5482 24.7149C17.7346 24.6088 17.7325 18.4468 13.5502 18.3354ZM13.5502 23.1358V23.139C11.4398 23.1043 11.4377 19.9482 13.5482 19.9114C15.6586 19.9471 15.6586 23.0959 13.5502 23.1358Z" fill="white" stroke="white" stroke-width="0.7"/>
<path d="M27.2864 18.333C23.0999 18.4402 23.102 24.6074 27.2874 24.7125C31.4707 24.6011 31.4718 18.4391 27.2864 18.333ZM25.6818 21.5228C25.7174 19.4015 28.8575 19.4015 28.893 21.5228C28.8575 23.644 25.7205 23.643 25.6818 21.5228Z" fill="white" stroke="white" stroke-width="0.7"/>
</svg>
