<svg width="29" height="27" viewBox="0 0 29 27" fill="none" xmlns="http://www.w3.org/2000/svg">
<path d="M19.5467 4.06582C17.9891 2.96367 16.2332 2.58398 14.0072 2.58398C12.3193 2.58398 10.875 2.90566 9.73086 3.62285C8.04297 4.69336 7.25 6.4916 7.25 9.33398H11.6C11.6 8.57461 11.5207 7.75723 11.9965 7.05586C12.4723 6.35449 13.135 5.8166 14.2734 5.8166C15.4289 5.8166 16.0236 6.12773 16.5844 6.77109C17.0602 7.31953 17.2414 7.97344 17.2414 8.66953C17.2414 9.2707 16.9129 9.82441 16.5221 10.3254C16.3068 10.6207 16.0236 10.8844 15.6668 11.1375C15.6668 11.1375 13.3162 12.44 12.4893 13.674C11.8719 14.5916 11.651 15.7412 11.6 17.1176C11.5943 17.2178 11.634 17.4234 12.0078 17.4234C12.376 17.4234 15.1797 17.4234 15.5082 17.4234C15.8367 17.4234 15.9047 17.1914 15.9104 17.0965C15.933 16.5955 16.001 15.8256 16.0973 15.5355C16.2842 14.9871 16.6467 14.5072 17.2131 14.0959L18.3855 13.3418C19.4447 12.5719 20.2887 11.9443 20.6625 11.4486C21.3025 10.6365 21.75 9.63457 21.75 8.44805C21.75 6.51269 20.9854 5.08359 19.5467 4.06582ZM13.707 19.5223C12.24 19.4801 11.0279 20.4293 10.977 21.9111C10.9316 23.3982 12.0814 24.3738 13.5541 24.416C15.0834 24.4582 16.2672 23.5406 16.3125 22.0588C16.3578 20.577 15.2363 19.5645 13.707 19.5223Z" fill="#797575"/>
</svg>
