<svg width="21" height="20" viewBox="0 0 21 20" fill="none" xmlns="http://www.w3.org/2000/svg">
<path d="M4.08226 18.9677C3.85153 18.9673 3.62169 18.9392 3.39766 18.8841C3.03223 18.7959 2.68797 18.636 2.38481 18.4137C2.08165 18.1914 1.82561 17.9111 1.63161 17.5891L0.414648 15.5857C0.0215139 14.9366 -0.0982131 14.1581 0.0818283 13.4209C0.26187 12.6837 0.726982 12.048 1.37506 11.6532L8.15402 7.53621C8.27065 7.46436 8.40038 7.41628 8.53566 7.39475C8.67095 7.37322 8.80911 7.37866 8.94229 7.41076C9.07546 7.44285 9.20101 7.50097 9.31163 7.58176C9.42225 7.66256 9.51578 7.76443 9.58688 7.88152C9.65797 7.99861 9.7052 8.1286 9.72586 8.26402C9.74652 8.39944 9.74024 8.53761 9.70729 8.67058C9.67433 8.80354 9.61537 8.92868 9.53387 9.03878C9.45237 9.14888 9.34992 9.24178 9.23237 9.31212L2.45386 13.4286C2.27597 13.5369 2.14835 13.7114 2.09897 13.9138C2.0496 14.1161 2.08253 14.3298 2.19053 14.5079L3.40705 16.5113C3.51529 16.6892 3.68973 16.8168 3.89204 16.8661C4.09435 16.9154 4.30791 16.8823 4.48584 16.7742L11.3293 12.6188C11.5268 12.4991 11.7585 12.4485 11.9879 12.4749L18.1633 13.1875L11.8715 2.82813L10.6374 6.16441C10.5418 6.42285 10.3475 6.63271 10.0971 6.74785C9.84676 6.86298 9.56094 6.87398 9.3025 6.77838C9.04406 6.68277 8.83417 6.4884 8.71903 6.23806C8.60389 5.98771 8.59293 5.70189 8.68854 5.44345L10.3419 0.976382C10.4393 0.712676 10.6092 0.481811 10.8319 0.310299C11.0547 0.138787 11.3213 0.0336024 11.6012 0.00680484C11.881 -0.0199927 12.1627 0.0326988 12.414 0.158821C12.6652 0.284944 12.8759 0.479387 13.0216 0.719809L20.5569 13.1278C20.702 13.3669 20.7772 13.6419 20.7738 13.9216C20.7705 14.2013 20.6888 14.4744 20.5379 14.71C20.387 14.9455 20.1732 15.134 19.9205 15.254C19.6679 15.374 19.3866 15.4207 19.1087 15.3889L12.1037 14.5801L5.56419 18.5511C5.11824 18.8233 4.60581 18.9671 4.08334 18.9667" fill="#0DCABF"/>
<path d="M9.919 19.9997C9.53816 19.9999 9.16365 19.9021 8.83159 19.7156C8.49953 19.5291 8.2211 19.2602 8.02309 18.9349L7.76858 18.5157C7.6614 18.339 7.62877 18.127 7.67791 17.9263C7.72705 17.7256 7.85396 17.5526 8.03064 17.4454C8.20732 17.3382 8.41928 17.3056 8.62 17.3548C8.82072 17.4039 8.9937 17.5308 9.10087 17.7075L9.35488 18.123C9.39853 18.1985 9.45682 18.2645 9.52633 18.3172C9.59584 18.3699 9.67518 18.4081 9.75966 18.4297C9.84415 18.4514 9.9321 18.4559 10.0184 18.443C10.1046 18.4302 10.1874 18.4003 10.262 18.355C10.3365 18.3097 10.4012 18.25 10.4524 18.1794C10.5035 18.1088 10.5401 18.0286 10.5599 17.9437C10.5796 17.8587 10.5822 17.7707 10.5675 17.6848C10.5528 17.5988 10.5211 17.5166 10.4743 17.4431L9.50655 15.849L7.72077 16.9335C7.54409 17.0408 7.33205 17.0734 7.13128 17.0243C6.93052 16.9752 6.75747 16.8484 6.65022 16.6717C6.54297 16.4951 6.51033 16.283 6.55942 16.0823C6.60852 15.8815 6.73535 15.7085 6.91202 15.6012L9.3642 14.1125C9.54057 14.0052 9.75237 13.9723 9.95299 14.021C10.1536 14.0697 10.3267 14.196 10.4342 14.3722L11.8065 16.6323C12.01 16.9677 12.1208 17.3511 12.1274 17.7433C12.134 18.1356 12.0363 18.5225 11.8443 18.8646C11.6523 19.2067 11.3728 19.4916 11.0345 19.6902C10.6962 19.8889 10.3113 19.994 9.919 19.995" fill="#0DCABF"/>
<path d="M11.8676 14.5454C11.6907 14.5454 11.5168 14.5002 11.3623 14.4141C11.2078 14.3281 11.0778 14.2039 10.9846 14.0535L7.83328 8.9715C7.69007 8.73735 7.64535 8.45604 7.70887 8.18903C7.77239 7.92202 7.93901 7.69102 8.17231 7.54644C8.40561 7.40186 8.6866 7.35549 8.95398 7.41744C9.22136 7.47939 9.45339 7.64463 9.59933 7.87707L12.7502 12.9591C12.8477 13.1165 12.9015 13.297 12.9058 13.4821C12.9102 13.6672 12.865 13.8501 12.775 14.0119C12.6849 14.1736 12.5533 14.3084 12.3936 14.4022C12.234 14.496 12.0528 14.5455 11.8676 14.5454Z" fill="#0DCABF"/>
</svg>
