<svg width="319" height="319" viewBox="0 0 319 319" fill="none" xmlns="http://www.w3.org/2000/svg">
<path d="M26 41.0001C26 32.7158 32.7157 26.0001 41 26.0001H277C285.284 26.0001 292 32.7158 292 41.0001V279C292 287.284 285.284 294 277 294H41C32.7157 294 26 287.284 26 279V41.0001Z" fill="#F7F7F7"/>
<path d="M173 176.04H145C143.409 176.038 141.884 175.405 140.76 174.281C139.635 173.156 139.002 171.631 139 170.04V154.449C139.002 152.858 139.634 151.333 140.759 150.208C141.884 149.083 143.409 148.451 145 148.449H147.582C147.948 148.45 148.307 148.35 148.62 148.16C148.932 147.97 149.187 147.698 149.355 147.373L149.955 146.227C150.461 145.253 151.224 144.436 152.163 143.867C153.101 143.298 154.178 142.998 155.276 143H162.729C163.826 142.998 164.903 143.297 165.842 143.866C166.78 144.436 167.544 145.252 168.049 146.226L168.649 147.373C168.817 147.698 169.072 147.97 169.385 148.16C169.697 148.35 170.056 148.45 170.422 148.449H173.004C174.595 148.451 176.12 149.083 177.245 150.208C178.37 151.333 179.002 152.858 179.004 154.449V170.04C179.002 171.631 178.369 173.156 177.245 174.281C176.12 175.405 174.595 176.038 173.004 176.04M145.004 152.449C144.474 152.449 143.965 152.66 143.59 153.035C143.215 153.41 143.004 153.919 143.004 154.449V170.04C143.004 170.57 143.215 171.079 143.59 171.454C143.965 171.829 144.474 172.04 145.004 172.04H173.004C173.534 172.04 174.043 171.829 174.418 171.454C174.793 171.079 175.004 170.57 175.004 170.04V154.449C175.004 153.919 174.793 153.41 174.418 153.035C174.043 152.66 173.534 152.449 173.004 152.449H170.422C169.325 152.451 168.248 152.151 167.31 151.582C166.371 151.013 165.608 150.197 165.102 149.223L164.502 148.075C164.334 147.75 164.079 147.478 163.766 147.289C163.454 147.099 163.095 146.999 162.729 147H155.276C154.91 146.999 154.552 147.099 154.239 147.289C153.926 147.479 153.672 147.751 153.503 148.075L152.903 149.221C152.398 150.196 151.634 151.012 150.695 151.582C149.757 152.151 148.68 152.451 147.582 152.449H145.004Z" fill="#858585"/>
<path d="M159.001 169.593C157.28 169.593 155.598 169.083 154.167 168.127C152.737 167.171 151.621 165.812 150.963 164.223C150.304 162.633 150.132 160.884 150.468 159.196C150.804 157.509 151.632 155.958 152.849 154.742C154.066 153.525 155.616 152.696 157.303 152.361C158.991 152.025 160.74 152.197 162.33 152.856C163.92 153.514 165.279 154.629 166.235 156.06C167.191 157.491 167.701 159.173 167.701 160.893C167.699 163.2 166.781 165.412 165.15 167.043C163.519 168.674 161.307 169.591 159.001 169.593ZM159.001 156.193C158.071 156.193 157.163 156.469 156.39 156.986C155.617 157.502 155.014 158.236 154.659 159.095C154.303 159.954 154.21 160.899 154.391 161.81C154.572 162.722 155.02 163.56 155.677 164.217C156.335 164.874 157.172 165.322 158.084 165.503C158.996 165.685 159.941 165.591 160.799 165.236C161.658 164.88 162.392 164.278 162.909 163.505C163.425 162.732 163.701 161.823 163.701 160.893C163.701 160.276 163.579 159.665 163.343 159.095C163.107 158.525 162.761 158.006 162.324 157.57C161.888 157.134 161.37 156.787 160.799 156.551C160.229 156.315 159.618 156.193 159.001 156.193Z" fill="#858585"/>
<path opacity="0.5" fill-rule="evenodd" clip-rule="evenodd" d="M10 319C4.47716 319 0 314.523 0 309V275.1C2.20914 275.1 4 276.891 4 279.1V309C4 312.314 6.6863 315 10 315H39.9C42.1091 315 43.9 316.791 43.9 319H10ZM319 275.1C316.791 275.1 315 276.891 315 279.1V309C315 312.314 312.314 315 309 315H279.1C276.891 315 275.1 316.791 275.1 319H309C314.523 319 319 314.523 319 309V275.1ZM275.1 6.10352e-05C275.1 2.2092 276.891 4.00006 279.1 4.00006H309C312.314 4.00006 315 6.68636 315 10.0001V39.9001C315 42.1092 316.791 43.9001 319 43.9001V10.0001C319 4.47721 314.523 6.10352e-05 309 6.10352e-05H275.1ZM43.9 6.10352e-05C43.9 2.2092 42.1091 4.00006 39.9 4.00006H10C6.6863 4.00006 4 6.68636 4 10.0001V39.9001C4 42.1092 2.20914 43.9001 0 43.9001V10.0001C0 4.47722 4.47715 6.10352e-05 10 6.10352e-05H43.9Z" fill="#919191"/>
</svg>
