<svg width="331" height="204" viewBox="0 0 331 204" fill="none" xmlns="http://www.w3.org/2000/svg">
<path d="M2 21.204C2 10.5979 10.598 1.99997 21.2041 1.99997H309.796C320.402 1.99997 329 10.5979 329 21.204V182.796C329 193.402 320.402 202 309.796 202H21.2041C10.598 202 2 193.402 2 182.796V21.204Z" fill="url(#paint0_linear_975_1939)"/>
<path d="M30.7676 36.3325C30.7676 33.1506 33.347 30.5713 36.5288 30.5713H59.5283C62.7102 30.5713 65.2896 33.1506 65.2896 36.3325V49.5719C65.2896 52.7538 62.7102 55.3332 59.5283 55.3332H36.5288C33.347 55.3332 30.7676 52.7538 30.7676 49.5719V36.3325Z" fill="url(#paint1_linear_975_1939)"/>
<path fill-rule="evenodd" clip-rule="evenodd" d="M59.5283 31.5315H36.5288C33.8773 31.5315 31.7278 33.681 31.7278 36.3325V49.5719C31.7278 52.2235 33.8773 54.373 36.5288 54.373H59.5283C62.1799 54.373 64.3294 52.2235 64.3294 49.5719V36.3325C64.3294 33.681 62.1799 31.5315 59.5283 31.5315ZM36.5288 30.5713C33.347 30.5713 30.7676 33.1506 30.7676 36.3325V49.5719C30.7676 52.7538 33.347 55.3332 36.5288 55.3332H59.5283C62.7102 55.3332 65.2896 52.7538 65.2896 49.5719V36.3325C65.2896 33.1506 62.7102 30.5713 59.5283 30.5713H36.5288Z" fill="#1D5C63"/>
<path fill-rule="evenodd" clip-rule="evenodd" d="M48.5035 30.9053L53.6031 34.957L53.0057 35.7088L48.5158 32.1415L43.2361 36.5112V48.9303L48.5097 53.7313L53.7832 48.9303V38.6623H65.2918V46.7654H54.7434V49.3546L48.5097 55.0298L42.2759 49.3546V46.7654H31.248V38.6623H42.2759V36.0594L48.5035 30.9053ZM42.2759 39.6225H32.2083V45.8052H42.2759V39.6225ZM54.7434 45.8052H64.3316V39.6225H54.7434V45.8052Z" fill="#87795A"/>
<defs>
<linearGradient id="paint0_linear_975_1939" x1="70.5645" y1="1.99998" x2="213.093" y2="204.828" gradientUnits="userSpaceOnUse">
<stop stop-color="#17D2E8"/>
<stop offset="0.5" stop-color="#1D5C63"/>
<stop offset="1" stop-color="#48294D"/>
</linearGradient>
<linearGradient id="paint1_linear_975_1939" x1="36.5212" y1="29.6189" x2="67.4864" y2="58.8787" gradientUnits="userSpaceOnUse">
<stop stop-color="white"/>
<stop offset="0.11465" stop-color="#E0DED2"/>
<stop offset="0.370556" stop-color="#A8A59F"/>
<stop offset="0.781267" stop-color="#FFFDF7"/>
</linearGradient>
</defs>
</svg>
