<svg width="30" height="30" viewBox="0 0 30 30" fill="none" xmlns="http://www.w3.org/2000/svg">
<path d="M22.5 22.5C21.8125 22.5 21.25 23.0625 21.25 23.75V25H7.5V5H15V11.25C15 11.9375 15.5625 12.5 16.25 12.5H21.25V13.75C21.25 14.4375 21.8125 15 22.5 15C23.1875 15 23.75 14.4375 23.75 13.75V11.25C23.75 11.0875 23.7125 10.9375 23.6625 10.7875C23.6375 10.7375 23.6125 10.6875 23.575 10.65C23.5375 10.5875 23.5125 10.5125 23.4625 10.45L17.2125 2.95C17.2 2.9375 17.1875 2.925 17.175 2.9125C17.0875 2.825 16.9875 2.75 16.8875 2.6875C16.85 2.6625 16.8125 2.625 16.7625 2.6125C16.6 2.5375 16.4375 2.5 16.25 2.5H6.25C5.5625 2.5 5 3.0625 5 3.75V26.25C5 26.9375 5.5625 27.5 6.25 27.5H22.5C23.1875 27.5 23.75 26.9375 23.75 26.25V23.75C23.75 23.0625 23.1875 22.5 22.5 22.5ZM17.5 7.2L19.825 10H17.5V7.2Z" fill="white" stroke="white" stroke-width="0.00064"/>
<path d="M10 12.5H12.5C13.1875 12.5 13.75 11.9375 13.75 11.25C13.75 10.5625 13.1875 10 12.5 10H10C9.3125 10 8.75 10.5625 8.75 11.25C8.75 11.9375 9.3125 12.5 10 12.5Z" fill="white" stroke="white" stroke-width="0.00064"/>
<path d="M16.25 13.75H10C9.3125 13.75 8.75 14.3125 8.75 15C8.75 15.6875 9.3125 16.25 10 16.25H16.25C16.9375 16.25 17.5 15.6875 17.5 15C17.5 14.3125 16.9375 13.75 16.25 13.75Z" fill="white" stroke="white" stroke-width="0.00064"/>
<path d="M16.25 17.5H10C9.3125 17.5 8.75 18.0625 8.75 18.75C8.75 19.4375 9.3125 20 10 20H16.25C16.9375 20 17.5 19.4375 17.5 18.75C17.5 18.0625 16.9375 17.5 16.25 17.5Z" fill="white" stroke="white" stroke-width="0.00064"/>
<path d="M16.25 21.25H10C9.3125 21.25 8.75 21.8125 8.75 22.5C8.75 23.1875 9.3125 23.75 10 23.75H16.25C16.9375 23.75 17.5 23.1875 17.5 22.5C17.5 21.8125 16.9375 21.25 16.25 21.25Z" fill="white" stroke="white" stroke-width="0.00064"/>
<path d="M25.8874 15.3627C25.3999 14.8752 24.6124 14.8752 24.1249 15.3627L22.4999 16.9877L20.8874 15.3752C20.3999 14.8877 19.6124 14.8877 19.1249 15.3752C18.6374 15.8627 18.6374 16.6502 19.1249 17.1377L20.7374 18.7502L19.1249 20.3627C18.6374 20.8502 18.6374 21.6377 19.1249 22.1252C19.6124 22.6127 20.3999 22.6127 20.8874 22.1252L22.4999 20.5127L24.1124 22.1252C24.3624 22.3752 24.6749 22.5002 24.9999 22.5002C25.3249 22.5002 25.6374 22.3752 25.8874 22.1377C26.3749 21.6502 26.3749 20.8627 25.8874 20.3752L24.2624 18.7502L25.8749 17.1377C26.3749 16.6502 26.3749 15.8502 25.8874 15.3627Z" fill="white" stroke="white" stroke-width="0.00064"/>
</svg>
