<svg width="50" height="50" viewBox="0 0 50 50" fill="none" xmlns="http://www.w3.org/2000/svg">
<path d="M50 25C50 38.8071 38.8071 50 25 50C11.1929 50 0 38.8071 0 25C0 11.1929 11.1929 0 25 0C38.8071 0 50 11.1929 50 25Z" fill="#F99C9C"/>
<path d="M25 16.9998C26.8129 17.0041 28.5705 17.6239 29.985 18.7578H28.242C27.9768 18.7578 27.7224 18.8632 27.5349 19.0507C27.3474 19.2382 27.242 19.4926 27.242 19.7578C27.242 20.023 27.3474 20.2774 27.5349 20.4649C27.7224 20.6525 27.9768 20.7578 28.242 20.7578H32.242C32.5072 20.7578 32.7616 20.6525 32.9491 20.4649C33.1367 20.2774 33.242 20.023 33.242 19.7578V15.7578C33.242 15.4926 33.1367 15.2382 32.9491 15.0507C32.7616 14.8632 32.5072 14.7578 32.242 14.7578C31.9768 14.7578 31.7224 14.8632 31.5349 15.0507C31.3474 15.2382 31.242 15.4926 31.242 15.7578V17.2058C29.774 16.0244 28.0016 15.2826 26.1297 15.0661C24.2578 14.8497 22.3629 15.1674 20.664 15.9827C18.9651 16.7979 17.5317 18.0773 16.5294 19.673C15.5271 21.2687 14.9968 23.1155 15 24.9998C15 25.265 15.1054 25.5194 15.2929 25.7069C15.4804 25.8945 15.7348 25.9998 16 25.9998C16.2652 25.9998 16.5196 25.8945 16.7071 25.7069C16.8947 25.5194 17 25.265 17 24.9998C17.0024 22.8788 17.846 20.8454 19.3458 19.3456C20.8456 17.8458 22.879 17.0022 25 16.9998Z" fill="#FEFEFF"/>
<path d="M33.9998 24C33.7346 24 33.4803 24.1054 33.2927 24.2929C33.1052 24.4804 32.9998 24.7348 32.9998 25C33.0025 26.5066 32.5789 27.9832 31.7781 29.2593C30.9772 30.5355 29.8316 31.559 28.4738 32.2117C27.1159 32.8645 25.6011 33.1198 24.1043 32.9482C22.6075 32.7766 21.1898 32.1851 20.0148 31.242H21.7568C22.0221 31.242 22.2764 31.1366 22.4639 30.9491C22.6515 30.7616 22.7568 30.5072 22.7568 30.242C22.7568 29.9768 22.6515 29.7224 22.4639 29.5349C22.2764 29.3474 22.0221 29.242 21.7568 29.242H17.7568C17.4916 29.242 17.2373 29.3474 17.0497 29.5349C16.8622 29.7224 16.7568 29.9768 16.7568 30.242V34.242C16.7568 34.5072 16.8622 34.7616 17.0497 34.9491C17.2373 35.1366 17.4916 35.242 17.7568 35.242C18.0221 35.242 18.2764 35.1366 18.4639 34.9491C18.6515 34.7616 18.7568 34.5072 18.7568 34.242V32.794C20.2249 33.9753 21.9974 34.717 23.8693 34.9334C25.7412 35.1498 27.6361 34.8321 29.335 34.0169C31.034 33.2017 32.4675 31.9223 33.4699 30.3267C34.4724 28.7311 35.0028 26.8844 34.9998 25C34.9998 24.7348 34.8945 24.4804 34.7069 24.2929C34.5194 24.1054 34.2651 24 33.9998 24Z" fill="#FEFEFF"/>
</svg>
