<svg width="24" height="24" viewBox="0 0 24 24" fill="none" xmlns="http://www.w3.org/2000/svg">
<path d="M18.9618 7.12753H12.7213V5.00607C15.2972 4.31706 14.3878 0.497558 11.7806 1.05545C9.7347 1.53643 9.73909 4.52698 11.7806 5.00607V7.12753H5.54011C4.13836 7.12816 3.00128 8.26979 3.00002 9.6787V16.4539C3.00002 16.7148 3.21076 16.9267 3.47041 16.9267C3.73006 16.9267 3.9408 16.7148 3.9408 16.4539V9.6787C3.94205 8.79175 4.65766 8.07311 5.54011 8.07311H18.9618C19.8442 8.07311 20.5599 8.79175 20.5611 9.6787V20.4488C20.5599 21.3358 19.8442 22.0544 18.9618 22.0544H5.54011C4.64888 22.0469 3.93264 21.3143 3.94017 20.4186C3.9571 20.1538 3.73383 19.9294 3.47041 19.9458C3.20448 19.9603 2.99751 20.1828 3.00002 20.4501C3.0019 21.859 4.13836 22.9994 5.54011 23H18.9618C20.3629 22.9987 21.4987 21.8571 21.5 20.4488V9.6787C21.4987 8.27042 20.3635 7.12879 18.9618 7.12753ZM11.1716 3.03612L11.1697 3.03864C11.1904 1.61145 13.3021 1.60704 13.3297 3.0336C13.3078 4.46205 11.196 4.46394 11.1716 3.03612Z" fill="#0DCABF" stroke="#0DCABF" stroke-width="0.7"/>
<path d="M8.26855 19.0272C8.26855 19.2882 8.47929 19.5 8.73894 19.5H15.7634C16.023 19.5 16.2338 19.2882 16.2338 19.0272C16.2338 18.7662 16.023 18.5544 15.7634 18.5544H8.73894C8.47866 18.5544 8.26855 18.7662 8.26855 19.0272Z" fill="#0DCABF" stroke="#0DCABF" stroke-width="0.7"/>
<path d="M8.13015 11.0015C5.61891 11.0645 5.61766 14.7649 8.12889 14.8292C10.6408 14.7655 10.6395 11.0683 8.13015 11.0015ZM8.13015 13.8817V13.8836C6.86387 13.8628 6.86261 11.9691 8.12889 11.947C9.39517 11.9685 9.39517 13.8577 8.13015 13.8817Z" fill="#0DCABF" stroke="#0DCABF" stroke-width="0.7"/>
<path d="M16.3716 11C13.8598 11.0643 13.861 14.7647 16.3723 14.8277C18.8822 14.7609 18.8829 11.0637 16.3716 11ZM15.4089 12.9138C15.4302 11.6411 17.3143 11.6411 17.3356 12.9138C17.3143 14.1866 15.4321 14.186 15.4089 12.9138Z" fill="#0DCABF" stroke="#0DCABF" stroke-width="0.7"/>
</svg>
