<svg width="40" height="40" viewBox="0 0 40 40" fill="none" xmlns="http://www.w3.org/2000/svg">
<g clip-path="url(#clip0_1076_1939)">
<path d="M14.7116 11.593C18.4866 12.6963 23.2266 11.1013 28.3316 8.48134L28.3333 8.61301C28.3333 10.7797 25.5966 13.4413 22.92 15.7597C22.4277 16.1911 22.005 16.696 21.6666 17.2563V28.4663C23.8683 29.0863 26.3583 31.948 28.045 34.558C28 34.7047 27.9733 34.8563 27.9166 34.9997H13.75C13.6933 34.8547 13.655 34.7163 13.6133 34.5763C15.2966 31.9597 17.795 29.088 20.0016 28.4663V17.2513C19.672 16.7042 19.2618 16.2097 18.785 15.7847C17.2938 14.5241 15.9301 13.1201 14.7133 11.593H14.7116ZM29.87 3.33301H33.3333V4.99967H30.8066C31.3667 6.21157 31.66 7.52963 31.6666 8.86467C31.6666 12.448 29.2016 16.0213 25.7583 19.018C25.4688 19.2315 25.2272 19.5033 25.0492 19.816C24.8712 20.1286 24.7608 20.4751 24.725 20.833C24.7608 21.191 24.8712 21.5374 25.0492 21.8501C25.2272 22.1627 25.4688 22.4345 25.7583 22.648C29.2016 25.6447 31.6666 29.2163 31.6666 32.7997C31.6602 34.1353 31.3669 35.4539 30.8066 36.6663H33.3333V38.333H8.33331V36.6663H10.8333C10.2859 35.4512 10.0019 34.134 9.99998 32.8013C9.99998 29.218 12.465 25.6447 15.9083 22.648C16.1978 22.4345 16.4394 22.1627 16.6174 21.8501C16.7954 21.5374 16.9058 21.191 16.9416 20.833C16.9058 20.4751 16.7954 20.1286 16.6174 19.816C16.4394 19.5033 16.1978 19.2315 15.9083 19.018C12.465 16.0213 9.99998 12.4497 9.99998 8.86634C10.0017 7.53308 10.2857 6.21528 10.8333 4.99967H8.33331V3.33301H29.87ZM28.9616 4.99967H12.7066C12.0294 6.17611 11.6709 7.50891 11.6666 8.86634C11.6666 11.608 13.5616 14.7663 17 17.7597C17.4788 18.1211 17.8716 18.5842 18.15 19.1156C18.4284 19.647 18.5855 20.2336 18.61 20.833C18.5858 21.4321 18.4289 22.0183 18.1508 22.5495C17.8727 23.0807 17.4802 23.5435 17.0016 23.9047C13.5616 26.8997 11.6683 30.058 11.6683 32.8013C11.6719 34.1579 12.0292 35.4901 12.705 36.6663H28.96C29.6397 35.4909 29.9983 34.1575 30 32.7997C30 30.058 28.105 26.8997 24.6666 23.9063C24.1878 23.5449 23.7951 23.0818 23.5167 22.5504C23.2383 22.019 23.0812 21.4324 23.0566 20.833C23.0809 20.2339 23.2377 19.6477 23.5158 19.1165C23.7939 18.5854 24.1864 18.1225 24.665 17.7613C28.105 14.7663 29.9983 11.608 29.9983 8.86467C29.9979 7.50791 29.6393 6.17508 28.9616 4.99967Z" fill="white" stroke="white" stroke-width="0.00024"/>
<path d="M0 0H40V40H0V0Z" stroke="white" stroke-width="0.00024"/>
</g>
<defs>
<clipPath id="clip0_1076_1939">
<rect width="40" height="40" fill="white"/>
</clipPath>
</defs>
</svg>
