<svg width="34" height="32" viewBox="0 0 34 32" fill="none" xmlns="http://www.w3.org/2000/svg">
<path d="M19.9452 2C20.1701 2.00001 20.3893 2.06721 20.571 2.19193C20.7528 2.31664 20.8878 2.49244 20.9567 2.694L22.1254 6.112C22.6163 6.338 23.0859 6.592 23.5343 6.878L27.2658 6.122C27.4858 6.07779 27.7151 6.10045 27.9205 6.18671C28.126 6.27297 28.297 6.41838 28.409 6.602L31.3543 11.4C31.4668 11.5835 31.5144 11.7959 31.4903 12.0065C31.4663 12.2172 31.3718 12.4152 31.2204 12.572L28.6598 15.232C28.6971 15.7421 28.6971 16.2539 28.6598 16.764L31.2204 19.428C31.3718 19.5848 31.4663 19.7828 31.4903 19.9935C31.5144 20.2041 31.4668 20.4165 31.3543 20.6L28.409 25.4C28.2967 25.5833 28.1255 25.7283 27.9201 25.8141C27.7147 25.9 27.4856 25.9224 27.2658 25.878L23.5343 25.122C23.088 25.406 22.6163 25.662 22.1275 25.888L20.9567 29.306C20.8878 29.5076 20.7528 29.6834 20.571 29.8081C20.3893 29.9328 20.1701 30 19.9452 30H14.0547C13.8297 30 13.6106 29.9328 13.4288 29.8081C13.247 29.6834 13.112 29.5076 13.0432 29.306L11.8765 25.89C11.387 25.6647 10.9148 25.4074 10.4634 25.12L6.73405 25.878C6.51404 25.9222 6.28479 25.8996 6.07934 25.8133C5.87389 25.727 5.70283 25.5816 5.5908 25.398L2.64555 20.6C2.53308 20.4165 2.48545 20.2041 2.50951 19.9935C2.53357 19.7828 2.62808 19.5848 2.77942 19.428L5.34005 16.764C5.30296 16.2553 5.30296 15.7447 5.34005 15.236L2.77942 12.572C2.62808 12.4152 2.53357 12.2172 2.50951 12.0065C2.48545 11.7959 2.53308 11.5835 2.64555 11.4L5.5908 6.6C5.70313 6.41675 5.87433 6.27175 6.07976 6.18586C6.28519 6.09997 6.51427 6.07761 6.73405 6.122L10.4634 6.88C10.9139 6.594 11.3857 6.336 11.8765 6.11L13.0453 2.694C13.1139 2.49309 13.2483 2.31776 13.4292 2.1931C13.6101 2.06844 13.8283 2.00085 14.0525 2H19.943H19.9452ZM19.1674 4H14.8324L13.6254 7.534L12.8115 7.908C12.4114 8.09227 12.0252 8.3021 11.6555 8.536L10.9033 9.016L7.0443 8.232L4.8768 11.768L7.52242 14.524L7.45867 15.372C7.42814 15.7902 7.42814 16.2098 7.45867 16.628L7.52242 17.476L4.87255 20.232L7.04217 23.768L10.9012 22.986L11.6534 23.464C12.0231 23.6979 12.4093 23.9077 12.8094 24.092L13.6233 24.466L14.8324 28H19.1717L20.3829 24.464L21.1947 24.092C21.5943 23.9082 21.9799 23.6983 22.3485 23.464L23.0987 22.986L26.9598 23.768L29.1273 20.232L26.4795 17.476L26.5433 16.628C26.5739 16.2092 26.5739 15.7888 26.5433 15.37L26.4795 14.522L29.1294 11.768L26.9598 8.232L23.0987 9.012L22.3485 8.536C21.9799 8.30163 21.5944 8.09178 21.1947 7.908L20.3829 7.536L19.1695 4H19.1674ZM16.9999 10C18.6907 10 20.3122 10.6321 21.5077 11.7574C22.7033 12.8826 23.3749 14.4087 23.3749 16C23.3749 17.5913 22.7033 19.1174 21.5077 20.2426C20.3122 21.3679 18.6907 22 16.9999 22C15.3092 22 13.6877 21.3679 12.4921 20.2426C11.2966 19.1174 10.6249 17.5913 10.6249 16C10.6249 14.4087 11.2966 12.8826 12.4921 11.7574C13.6877 10.6321 15.3092 10 16.9999 10ZM16.9999 12C15.8728 12 14.7917 12.4214 13.9947 13.1716C13.1977 13.9217 12.7499 14.9391 12.7499 16C12.7499 17.0609 13.1977 18.0783 13.9947 18.8284C14.7917 19.5786 15.8728 20 16.9999 20C18.1271 20 19.2081 19.5786 20.0051 18.8284C20.8022 18.0783 21.2499 17.0609 21.2499 16C21.2499 14.9391 20.8022 13.9217 20.0051 13.1716C19.2081 12.4214 18.1271 12 16.9999 12Z" fill="#797575"/>
</svg>
