<svg width="51" height="50" viewBox="0 0 51 50" fill="none" xmlns="http://www.w3.org/2000/svg">
<g opacity="0.5">
<circle cx="25.54" cy="25" r="25" fill="#0DCABF"/>
<path d="M33.917 17.1052C33.7768 16.965 33.5494 16.9649 33.4091 17.1052L29.6853 20.8288C29.545 20.9691 29.545 21.1964 29.6853 21.3368C29.7554 21.4069 29.8473 21.4419 29.9393 21.4419C30.0311 21.4419 30.1231 21.4069 30.1932 21.3368L33.917 17.6131C34.0573 17.4728 34.0573 17.2454 33.917 17.1052Z" fill="white" stroke="white" stroke-width="0.6"/>
<path d="M30.8522 24.4359L35.4748 19.8133C35.6151 19.673 35.6151 19.4456 35.4748 19.3054C35.3345 19.1652 35.1071 19.1651 34.9669 19.3054L30.3444 23.9279C29.7749 24.4974 28.9041 24.6468 28.1776 24.2998C28.033 24.2309 27.8605 24.2657 27.7542 24.3855L26.1835 26.1552C26.1829 26.1558 26.1822 26.1564 26.1816 26.1571C26.1809 26.1578 26.1805 26.1586 26.1798 26.1593L19.3912 33.8076C19.3895 33.8095 19.3878 33.8115 19.3861 33.8135C19.3637 33.8398 19.3426 33.8629 19.3212 33.8843C18.8729 34.3325 18.1436 34.3325 17.6956 33.8843C17.4785 33.6673 17.3589 33.3786 17.3589 33.0715C17.3589 32.7645 17.4785 32.4758 17.696 32.2583C17.7168 32.2373 17.7399 32.2163 17.7664 32.1937C17.7684 32.192 17.7704 32.1903 17.7723 32.1886L22.0164 28.4216C22.1648 28.29 22.1782 28.063 22.0466 27.9147C21.9149 27.7663 21.6879 27.7527 21.5396 27.8845L17.2984 31.6489C17.2578 31.6835 17.2215 31.717 17.1877 31.7508C16.8349 32.1036 16.6406 32.5726 16.6406 33.0715C16.6406 33.5704 16.8349 34.0395 17.1877 34.3922C17.5518 34.7563 18.0301 34.9384 18.5084 34.9384C18.9866 34.9384 19.465 34.7564 19.8289 34.3924C19.8634 34.358 19.8968 34.3217 19.9311 34.2815L25.1042 28.4532L30.2774 34.2816C30.3116 34.3218 30.345 34.3581 30.3793 34.3923C30.7434 34.7564 31.2217 34.9384 31.7 34.9384C32.1783 34.9384 32.6566 34.7564 33.0207 34.3923C33.7489 33.664 33.7489 32.4792 33.0209 31.7511C32.9866 31.7166 32.9502 31.6832 32.9101 31.649L26.9573 26.3654L28.122 25.0532C29.0656 25.3875 30.1333 25.1547 30.8522 24.4359ZM32.436 32.1886C32.438 32.1904 32.44 32.1921 32.4419 32.1938C32.4682 32.2161 32.4913 32.2373 32.5128 32.2587C32.9609 32.7069 32.9609 33.4361 32.5128 33.8843C32.0646 34.3324 31.3353 34.3324 30.8869 33.8841C30.8657 33.8629 30.8445 33.8397 30.8221 33.8134C30.8205 33.8114 30.8187 33.8095 30.817 33.8075L25.5843 27.9121L26.4804 26.9025L32.436 32.1886Z" fill="white" stroke="white" stroke-width="0.7"/>
<path d="M32.2746 16.1051C32.1342 15.965 31.9069 15.965 31.7666 16.1051L27.1441 20.7278C26.4251 21.4467 26.1923 22.5143 26.5267 23.4581L25.1042 24.7207L23.7371 23.5073C24.4441 22.1162 24.186 20.4271 23.0644 19.3055C21.9504 18.1915 20.6601 17.4075 19.4311 17.0981C18.1482 16.7752 17.0483 16.9908 16.3337 17.7053C15.6191 18.4199 15.4034 19.52 15.7264 20.8028C16.0359 22.0317 16.8198 23.322 17.9339 24.436C19.0555 25.5577 20.7445 25.8158 22.1357 25.1087C22.1357 25.1087 23.4726 26.6149 23.4895 26.634C23.5605 26.714 23.6591 26.7548 23.7583 26.7548C23.8431 26.7548 23.9282 26.7249 23.9966 26.6642L27.1944 23.8258C27.3142 23.7195 27.3491 23.5468 27.2801 23.4024C26.9331 22.6758 27.0825 21.8051 27.652 21.2357L32.2746 16.6131C32.4148 16.4728 32.4148 16.2454 32.2746 16.1051ZM23.7883 25.8887L22.481 24.4158C22.3652 24.2854 22.1723 24.2569 22.0239 24.3485C20.8724 25.0586 19.3993 24.8858 18.4417 23.9281C17.4181 22.9046 16.7012 21.7324 16.4229 20.6274C16.1641 19.5994 16.3128 18.742 16.8416 18.2133C17.3703 17.6844 18.2277 17.5358 19.2557 17.7947C20.3607 18.0729 21.5329 18.7898 22.5564 19.8133C23.5141 20.771 23.6869 22.244 22.9768 23.3955C22.8852 23.544 22.9136 23.7368 23.0441 23.8526L24.5631 25.2009L23.7883 25.8887Z" fill="white" stroke="white" stroke-width="0.7"/>
</g>
</svg>
