<svg width="51" height="50" viewBox="0 0 51 50" fill="none" xmlns="http://www.w3.org/2000/svg">
<g opacity="0.5">
<circle cx="25.54" cy="25" r="25" fill="#FFD28E"/>
<path d="M31.7327 16.3292C32.5942 17.1876 33.0686 18.3291 33.0686 19.5431C33.0686 20.7572 32.5942 21.8986 31.7327 22.7572L24.5428 29.9222C23.4758 30.9855 21.7396 30.9855 20.6725 29.9222C19.6055 28.8588 19.6056 27.1286 20.6726 26.0653L25.4071 21.3473C25.7633 20.9922 26.3409 20.9922 26.6971 21.3473C27.0534 21.7022 27.0534 22.2778 26.6971 22.6329L21.9627 27.3509C21.6069 27.7053 21.607 28.2821 21.9626 28.6366C22.3183 28.991 22.8971 28.991 23.2528 28.6366L30.4426 21.4716C30.9594 20.9564 31.2441 20.2716 31.2441 19.5431C31.2441 18.8147 30.9594 18.1299 30.4426 17.6148C29.3755 16.5515 27.6394 16.5514 26.5723 17.6147L18.7375 25.4225C16.9591 27.1948 16.9592 30.0784 18.7375 31.8505C19.5989 32.709 20.7443 33.1819 21.9626 33.1819C23.1809 33.1819 24.3264 32.709 25.1879 31.8505L33.0228 24.0429C33.3791 23.6879 33.9567 23.6879 34.3129 24.0429C34.6691 24.3978 34.6692 24.9735 34.3129 25.3285L26.478 33.1361C25.2719 34.3381 23.6683 35 21.9626 35C20.2569 35 18.6534 34.3381 17.4473 33.1361C16.2023 31.8954 15.5799 30.2663 15.5801 28.6366C15.5802 27.0072 16.2026 25.3773 17.4473 24.1369L25.2823 16.3291C27.0607 14.5569 29.9543 14.557 31.7327 16.3292Z" fill="white"/>
</g>
</svg>
