<svg width="895" height="701" viewBox="0 0 895 701" fill="none" xmlns="http://www.w3.org/2000/svg">
<path d="M505.88 199.854H440.676V177.688C467.59 170.489 458.088 130.581 430.846 136.41C409.47 141.435 409.516 172.682 430.846 177.688V199.854H365.643C350.997 199.861 339.116 211.789 339.103 226.51V297.3C339.103 300.027 341.305 302.24 344.018 302.24C346.731 302.24 348.932 300.027 348.932 297.3V226.51C348.946 217.243 356.423 209.734 365.643 209.734H505.88C515.1 209.734 522.577 217.243 522.59 226.51V339.042C522.577 348.309 515.1 355.818 505.88 355.818H365.643C356.331 355.739 348.847 348.085 348.926 338.726C349.103 335.959 346.77 333.614 344.018 333.786C341.239 333.937 339.077 336.262 339.103 339.055C339.122 353.776 350.997 365.691 365.643 365.698H505.88C520.519 365.685 532.387 353.756 532.4 339.042V226.51C532.387 211.796 520.526 199.867 505.88 199.854ZM424.483 157.105L424.464 157.131C424.68 142.219 446.744 142.173 447.033 157.079C446.803 172.004 424.739 172.024 424.483 157.105Z" fill="white" stroke="white" stroke-width="0.7"/>
<path d="M394.149 324.188C394.149 326.915 396.351 329.128 399.064 329.128H472.459C475.172 329.128 477.374 326.915 477.374 324.188C477.374 321.461 475.172 319.248 472.459 319.248H399.064C396.345 319.248 394.149 321.461 394.149 324.188Z" fill="white" stroke="white" stroke-width="0.7"/>
<path d="M392.703 240.331C366.464 240.99 366.451 279.653 392.69 280.325C418.935 279.659 418.922 241.029 392.703 240.331ZM392.703 270.425V270.445C379.472 270.227 379.459 250.441 392.69 250.211C405.921 250.435 405.921 270.175 392.703 270.425Z" fill="white" stroke="white" stroke-width="0.7"/>
<path d="M478.821 240.316C452.576 240.988 452.589 279.651 478.827 280.309C505.053 279.611 505.059 240.981 478.821 240.316ZM468.762 260.313C468.985 247.014 488.67 247.014 488.893 260.313C488.67 273.611 469.004 273.604 468.762 260.313Z" fill="white" stroke="white" stroke-width="0.7"/>
<path d="M415.183 656.707C414.959 656.707 414.847 656.595 414.847 656.371V651.411C414.847 651.187 414.959 651.075 415.183 651.075C415.407 651.075 415.519 651.187 415.519 651.411V653.079C415.658 652.938 415.831 652.831 416.039 652.759C416.247 652.687 416.49 652.651 416.767 652.651H417.071C417.604 652.651 417.999 652.779 418.255 653.035C418.511 653.291 418.639 653.686 418.639 654.219V655.139C418.639 655.67 418.511 656.065 418.255 656.323C417.999 656.579 417.604 656.707 417.071 656.707H416.767C416.49 656.707 416.247 656.671 416.039 656.599C415.831 656.527 415.658 656.422 415.519 656.283V656.371C415.519 656.595 415.407 656.707 415.183 656.707ZM416.767 656.035H417.071C417.42 656.035 417.656 655.973 417.779 655.847C417.904 655.719 417.967 655.483 417.967 655.139V654.219C417.967 653.87 417.903 653.634 417.775 653.511C417.65 653.386 417.415 653.323 417.071 653.323H416.767C416.415 653.323 416.119 653.369 415.879 653.459C415.639 653.547 415.519 653.686 415.519 653.875V655.483C415.519 655.67 415.639 655.809 415.879 655.899C416.119 655.99 416.415 656.035 416.767 656.035ZM421.185 658.307C420.798 658.307 420.509 658.21 420.317 658.015C420.127 657.823 420.033 657.534 420.033 657.147C420.033 656.923 420.145 656.811 420.369 656.811C420.593 656.811 420.705 656.923 420.705 657.147C420.705 657.347 420.734 657.478 420.793 657.539C420.854 657.603 420.985 657.635 421.185 657.635H422.737C422.934 657.635 423.063 657.603 423.125 657.539C423.186 657.478 423.217 657.347 423.217 657.147V656.131C423.057 656.371 422.87 656.527 422.657 656.599C422.446 656.671 422.217 656.707 421.969 656.707H421.577C421.049 656.707 420.659 656.582 420.409 656.331C420.158 656.081 420.033 655.694 420.033 655.171V652.987C420.033 652.763 420.145 652.651 420.369 652.651C420.593 652.651 420.705 652.763 420.705 652.987V655.171C420.705 655.507 420.765 655.735 420.885 655.855C421.007 655.975 421.238 656.035 421.577 656.035H421.969C422.406 656.035 422.723 655.965 422.921 655.823C423.118 655.679 423.217 655.462 423.217 655.171V652.987C423.217 652.763 423.329 652.651 423.553 652.651C423.777 652.651 423.889 652.763 423.889 652.987V657.147C423.889 657.534 423.793 657.823 423.601 658.015C423.409 658.21 423.121 658.307 422.737 658.307H421.185ZM429.442 656.707C428.911 656.707 428.516 656.579 428.258 656.323C428.002 656.065 427.874 655.67 427.874 655.139V654.211C427.874 653.678 428 653.283 428.254 653.027C428.51 652.771 428.906 652.646 429.442 652.651H430.098C430.495 652.651 430.807 652.718 431.034 652.851C431.263 652.985 431.41 653.19 431.474 653.467C431.498 653.579 431.478 653.666 431.414 653.727C431.352 653.789 431.263 653.819 431.146 653.819C431.042 653.819 430.966 653.793 430.918 653.739C430.87 653.686 430.826 653.611 430.786 653.515C430.746 653.443 430.672 653.394 430.566 653.367C430.459 653.338 430.303 653.323 430.098 653.323H429.442C429.098 653.318 428.862 653.378 428.734 653.503C428.608 653.626 428.546 653.862 428.546 654.211V655.139C428.546 655.486 428.608 655.722 428.734 655.847C428.862 655.973 429.098 656.035 429.442 656.035H430.098C430.303 656.035 430.459 656.022 430.566 655.995C430.672 655.966 430.746 655.915 430.786 655.843C430.826 655.742 430.87 655.666 430.918 655.615C430.968 655.565 431.047 655.539 431.154 655.539C431.266 655.539 431.352 655.57 431.414 655.631C431.478 655.693 431.498 655.779 431.474 655.891C431.41 656.166 431.263 656.371 431.034 656.507C430.807 656.641 430.495 656.707 430.098 656.707H429.442ZM434.247 656.707C433.716 656.707 433.321 656.579 433.063 656.323C432.807 656.067 432.679 655.675 432.679 655.147V654.219C432.679 653.683 432.807 653.289 433.063 653.035C433.321 652.779 433.716 652.651 434.247 652.651H434.903C435.436 652.651 435.831 652.779 436.087 653.035C436.343 653.291 436.471 653.686 436.471 654.219V655.139C436.471 655.67 436.343 656.065 436.087 656.323C435.831 656.579 435.436 656.707 434.903 656.707H434.247ZM433.351 655.147C433.351 655.491 433.413 655.726 433.539 655.851C433.664 655.974 433.9 656.035 434.247 656.035H434.903C435.252 656.035 435.488 655.973 435.611 655.847C435.736 655.722 435.799 655.486 435.799 655.139V654.219C435.799 653.87 435.736 653.634 435.611 653.511C435.488 653.386 435.252 653.323 434.903 653.323H434.247C434.015 653.323 433.833 653.35 433.703 653.403C433.575 653.454 433.484 653.545 433.431 653.675C433.377 653.803 433.351 653.985 433.351 654.219V655.147ZM439.317 656.707C438.786 656.707 438.391 656.579 438.133 656.323C437.877 656.065 437.749 655.67 437.749 655.139V654.219C437.749 653.686 437.877 653.291 438.133 653.035C438.391 652.779 438.786 652.651 439.317 652.651H440.869V651.411C440.869 651.187 440.981 651.075 441.205 651.075C441.429 651.075 441.541 651.187 441.541 651.411V656.371C441.541 656.595 441.429 656.707 441.205 656.707C440.981 656.707 440.869 656.595 440.869 656.371V656.315C440.743 656.443 440.579 656.541 440.377 656.607C440.174 656.674 439.922 656.707 439.621 656.707H439.317ZM439.317 656.035H439.621C439.973 656.035 440.269 655.99 440.509 655.899C440.749 655.809 440.869 655.67 440.869 655.483V653.323H439.317C438.97 653.323 438.734 653.387 438.609 653.515C438.483 653.641 438.421 653.875 438.421 654.219V655.139C438.421 655.486 438.483 655.722 438.609 655.847C438.737 655.973 438.973 656.035 439.317 656.035ZM443.608 654.955V655.147C443.608 655.491 443.671 655.726 443.796 655.851C443.922 655.974 444.158 656.035 444.504 656.035H445.16C445.432 656.035 445.634 656.01 445.764 655.959C445.895 655.909 445.982 655.819 446.024 655.691C446.054 655.59 446.094 655.513 446.144 655.459C446.198 655.406 446.278 655.379 446.384 655.379C446.496 655.379 446.582 655.409 446.64 655.467C446.699 655.526 446.718 655.611 446.696 655.723C446.638 656.054 446.48 656.301 446.224 656.463C445.968 656.626 445.614 656.707 445.16 656.707H444.504C443.974 656.707 443.579 656.579 443.32 656.323C443.064 656.067 442.936 655.675 442.936 655.147V654.219C442.936 653.678 443.064 653.281 443.32 653.027C443.579 652.771 443.974 652.646 444.504 652.651H445.16C445.694 652.651 446.088 652.779 446.344 653.035C446.6 653.289 446.728 653.683 446.728 654.219V654.619C446.728 654.843 446.616 654.955 446.392 654.955H443.608ZM444.504 653.323C444.158 653.318 443.922 653.378 443.796 653.503C443.671 653.629 443.608 653.867 443.608 654.219V654.283H446.056V654.219C446.056 653.87 445.994 653.634 445.868 653.511C445.746 653.386 445.51 653.323 445.16 653.323H444.504ZM451.05 656.707C450.826 656.707 450.714 656.595 450.714 656.371V652.987C450.714 652.763 450.826 652.651 451.05 652.651C451.274 652.651 451.386 652.763 451.386 652.987V653.299C451.544 653.086 451.744 652.925 451.986 652.815C452.232 652.706 452.512 652.651 452.826 652.651C453.05 652.651 453.162 652.763 453.162 652.987C453.162 653.211 453.05 653.323 452.826 653.323C452.365 653.323 452.013 653.409 451.77 653.579C451.528 653.75 451.4 653.975 451.386 654.255V656.371C451.386 656.595 451.274 656.707 451.05 656.707ZM454.452 654.955V655.147C454.452 655.491 454.515 655.726 454.64 655.851C454.765 655.974 455.001 656.035 455.348 656.035H456.004C456.276 656.035 456.477 656.01 456.608 655.959C456.739 655.909 456.825 655.819 456.868 655.691C456.897 655.59 456.937 655.513 456.988 655.459C457.041 655.406 457.121 655.379 457.228 655.379C457.34 655.379 457.425 655.409 457.484 655.467C457.543 655.526 457.561 655.611 457.54 655.723C457.481 656.054 457.324 656.301 457.068 656.463C456.812 656.626 456.457 656.707 456.004 656.707H455.348C454.817 656.707 454.423 656.579 454.164 656.323C453.908 656.067 453.78 655.675 453.78 655.147V654.219C453.78 653.678 453.908 653.281 454.164 653.027C454.423 652.771 454.817 652.646 455.348 652.651H456.004C456.537 652.651 456.932 652.779 457.188 653.035C457.444 653.289 457.572 653.683 457.572 654.219V654.619C457.572 654.843 457.46 654.955 457.236 654.955H454.452ZM455.348 653.323C455.001 653.318 454.765 653.378 454.64 653.503C454.515 653.629 454.452 653.867 454.452 654.219V654.283H456.9V654.219C456.9 653.87 456.837 653.634 456.712 653.511C456.589 653.386 456.353 653.323 456.004 653.323H455.348ZM460.418 656.707C459.888 656.707 459.493 656.579 459.234 656.323C458.978 656.065 458.85 655.67 458.85 655.139V654.211C458.85 653.678 458.977 653.283 459.23 653.027C459.486 652.771 459.882 652.646 460.418 652.651H461.074C461.472 652.651 461.784 652.718 462.01 652.851C462.24 652.985 462.386 653.19 462.45 653.467C462.474 653.579 462.454 653.666 462.39 653.727C462.329 653.789 462.24 653.819 462.122 653.819C462.018 653.819 461.942 653.793 461.894 653.739C461.846 653.686 461.802 653.611 461.762 653.515C461.722 653.443 461.649 653.394 461.542 653.367C461.436 653.338 461.28 653.323 461.074 653.323H460.418C460.074 653.318 459.838 653.378 459.71 653.503C459.585 653.626 459.522 653.862 459.522 654.211V655.139C459.522 655.486 459.585 655.722 459.71 655.847C459.838 655.973 460.074 656.035 460.418 656.035H461.074C461.28 656.035 461.436 656.022 461.542 655.995C461.649 655.966 461.722 655.915 461.762 655.843C461.802 655.742 461.846 655.666 461.894 655.615C461.945 655.565 462.024 655.539 462.13 655.539C462.242 655.539 462.329 655.57 462.39 655.631C462.454 655.693 462.474 655.779 462.45 655.891C462.386 656.166 462.24 656.371 462.01 656.507C461.784 656.641 461.472 656.707 461.074 656.707H460.418ZM464.327 654.955V655.147C464.327 655.491 464.39 655.726 464.515 655.851C464.64 655.974 464.876 656.035 465.223 656.035H465.879C466.151 656.035 466.352 656.01 466.483 655.959C466.614 655.909 466.7 655.819 466.743 655.691C466.772 655.59 466.812 655.513 466.863 655.459C466.916 655.406 466.996 655.379 467.103 655.379C467.215 655.379 467.3 655.409 467.359 655.467C467.418 655.526 467.436 655.611 467.415 655.723C467.356 656.054 467.199 656.301 466.943 656.463C466.687 656.626 466.332 656.707 465.879 656.707H465.223C464.692 656.707 464.298 656.579 464.039 656.323C463.783 656.067 463.655 655.675 463.655 655.147V654.219C463.655 653.678 463.783 653.281 464.039 653.027C464.298 652.771 464.692 652.646 465.223 652.651H465.879C466.412 652.651 466.807 652.779 467.063 653.035C467.319 653.289 467.447 653.683 467.447 654.219V654.619C467.447 654.843 467.335 654.955 467.111 654.955H464.327ZM465.223 653.323C464.876 653.318 464.64 653.378 464.515 653.503C464.39 653.629 464.327 653.867 464.327 654.219V654.283H466.775V654.219C466.775 653.87 466.712 653.634 466.587 653.511C466.464 653.386 466.228 653.323 465.879 653.323H465.223ZM469.141 651.995C468.888 651.995 468.761 651.867 468.761 651.611V651.375C468.761 651.125 468.888 650.999 469.141 650.999H469.373C469.616 650.999 469.737 651.125 469.737 651.375V651.611C469.737 651.867 469.616 651.995 469.373 651.995H469.141ZM469.253 656.707C469.029 656.707 468.917 656.595 468.917 656.371V652.987C468.917 652.763 469.029 652.651 469.253 652.651C469.477 652.651 469.589 652.763 469.589 652.987V656.371C469.589 656.595 469.477 656.707 469.253 656.707ZM471.589 658.307C471.365 658.307 471.253 658.195 471.253 657.971V652.987C471.253 652.763 471.365 652.651 471.589 652.651C471.813 652.651 471.925 652.763 471.925 652.987V653.087C472.069 652.943 472.247 652.835 472.457 652.763C472.671 652.689 472.909 652.651 473.173 652.651H473.477C474.011 652.651 474.405 652.779 474.661 653.035C474.917 653.291 475.045 653.686 475.045 654.219V655.139C475.045 655.67 474.917 656.065 474.661 656.323C474.405 656.579 474.011 656.707 473.477 656.707H471.925V657.971C471.925 658.195 471.813 658.307 471.589 658.307ZM471.925 656.035H473.477C473.827 656.035 474.063 655.973 474.185 655.847C474.311 655.722 474.373 655.486 474.373 655.139V654.219C474.373 653.87 474.311 653.634 474.185 653.511C474.063 653.386 473.827 653.323 473.477 653.323H473.173C472.84 653.323 472.552 653.363 472.309 653.443C472.067 653.523 471.939 653.65 471.925 653.823V656.035ZM476.999 654.955V655.147C476.999 655.491 477.062 655.726 477.187 655.851C477.312 655.974 477.548 656.035 477.895 656.035H478.551C478.823 656.035 479.024 656.01 479.155 655.959C479.286 655.909 479.372 655.819 479.415 655.691C479.444 655.59 479.484 655.513 479.535 655.459C479.588 655.406 479.668 655.379 479.775 655.379C479.887 655.379 479.972 655.409 480.031 655.467C480.09 655.526 480.108 655.611 480.087 655.723C480.028 656.054 479.871 656.301 479.615 656.463C479.359 656.626 479.004 656.707 478.551 656.707H477.895C477.364 656.707 476.97 656.579 476.711 656.323C476.455 656.067 476.327 655.675 476.327 655.147V654.219C476.327 653.678 476.455 653.281 476.711 653.027C476.97 652.771 477.364 652.646 477.895 652.651H478.551C479.084 652.651 479.479 652.779 479.735 653.035C479.991 653.289 480.119 653.683 480.119 654.219V654.619C480.119 654.843 480.007 654.955 479.783 654.955H476.999ZM477.895 653.323C477.548 653.318 477.312 653.378 477.187 653.503C477.062 653.629 476.999 653.867 476.999 654.219V654.283H479.447V654.219C479.447 653.87 479.384 653.634 479.259 653.511C479.136 653.386 478.9 653.323 478.551 653.323H477.895Z" fill="white"/>
<path d="M126.493 560.194C121.952 560.194 119.682 557.923 119.682 553.382V457.05C119.682 452.509 121.952 450.239 126.493 450.239H168.821C177.416 450.239 184.011 452.509 188.606 457.05C193.255 461.591 195.58 468.078 195.58 476.511V480.89C195.58 488.188 193.282 493.837 188.687 497.837C197.283 502.648 201.58 511.433 201.58 524.191V529.705C201.58 539.651 198.931 547.22 193.634 552.409C188.39 557.599 180.822 560.194 170.929 560.194H126.493ZM133.304 546.571H170.929C177.038 546.571 181.389 545.274 183.984 542.679C186.633 540.03 187.958 535.705 187.958 529.705V524.191C187.958 518.19 186.687 513.92 184.146 511.379C181.606 508.784 177.2 507.487 170.929 507.487H133.304V546.571ZM133.304 493.864C133.304 493.864 140.705 493.864 145.447 493.864C150.189 493.864 157.59 493.864 157.59 493.864H171.74C175.686 493.864 178.362 492.648 179.768 490.215C181.227 487.782 181.957 484.674 181.957 480.89V476.511C181.957 471.808 180.984 468.537 179.038 466.699C177.092 464.807 173.686 463.861 168.821 463.861H133.304V493.864Z" fill="white"/>
<path d="M284.266 560.194C281.941 560.194 280.211 559.653 279.076 558.572C277.995 557.437 277.454 555.707 277.454 553.382V457.212C277.454 454.834 277.995 453.104 279.076 452.023C280.211 450.941 281.941 450.401 284.266 450.401C286.644 450.401 288.374 450.941 289.455 452.023C290.537 453.104 291.077 454.834 291.077 457.212V553.382C291.077 555.707 290.537 557.437 289.455 558.572C288.374 559.653 286.644 560.194 284.266 560.194Z" fill="white"/>
<path d="M380.273 560.194C375.732 560.194 373.461 557.923 373.461 553.382V457.05C373.461 452.509 375.732 450.239 380.273 450.239H422.6C431.196 450.239 437.791 452.509 442.386 457.05C447.035 461.591 449.359 468.078 449.359 476.511V480.89C449.359 488.188 447.062 493.837 442.467 497.837C451.062 502.648 455.36 511.433 455.36 524.191V529.705C455.36 539.651 452.711 547.22 447.413 552.409C442.17 557.599 434.601 560.194 424.709 560.194H380.273ZM387.084 546.571H424.709C430.817 546.571 435.169 545.274 437.764 542.679C440.413 540.03 441.737 535.705 441.737 529.705V524.191C441.737 518.19 440.467 513.92 437.926 511.379C435.385 508.784 430.979 507.487 424.709 507.487H387.084V546.571ZM387.084 493.864H425.52C429.466 493.864 432.142 492.648 433.547 490.215C435.007 487.782 435.737 484.674 435.737 480.89V476.511C435.737 471.808 434.764 468.537 432.817 466.699C430.871 464.807 427.466 463.861 422.6 463.861H387.084V493.864Z" fill="white"/>
<path d="M563.669 560.194C551.29 560.194 542.127 557.248 536.18 551.355C530.288 545.409 527.342 536.246 527.342 523.866V486.404C527.342 473.916 530.315 464.753 536.261 458.915C542.208 453.023 551.344 450.131 563.669 450.239H583.13C595.564 450.239 604.727 453.185 610.619 459.077C616.511 464.97 619.458 474.133 619.458 486.566V523.866C619.458 536.246 616.511 545.409 610.619 551.355C604.727 557.248 595.564 560.194 583.13 560.194H563.669ZM563.669 546.571H583.13C588.915 546.571 593.455 545.895 596.753 544.544C600.051 543.138 602.375 540.787 603.727 537.489C605.132 534.192 605.835 529.651 605.835 523.866V486.566C605.835 480.836 605.132 476.322 603.727 473.024C602.375 469.727 600.051 467.375 596.753 465.97C593.455 464.564 588.915 463.861 583.13 463.861H563.669C557.939 463.807 553.425 464.456 550.127 465.808C546.83 467.159 544.478 469.483 543.073 472.781C541.667 476.079 540.965 480.62 540.965 486.404V523.866C540.965 529.651 541.64 534.192 542.992 537.489C544.397 540.787 546.749 543.138 550.046 544.544C553.344 545.895 557.885 546.571 563.669 546.571Z" fill="white"/>
<path d="M724.304 560.194C722.034 560.194 720.331 559.626 719.196 558.491C718.06 557.356 717.493 555.653 717.493 553.382V464.024H686.031C683.76 464.024 682.057 463.456 680.922 462.321C679.787 461.185 679.219 459.483 679.219 457.212C679.219 454.942 679.787 453.239 680.922 452.104C682.057 450.968 683.76 450.401 686.031 450.401H762.578C764.848 450.401 766.551 450.968 767.686 452.104C768.821 453.239 769.389 454.942 769.389 457.212C769.389 459.483 768.821 461.185 767.686 462.321C766.551 463.456 764.848 464.024 762.578 464.024H731.116V553.382C731.116 555.545 730.521 557.221 729.332 558.41C728.196 559.599 726.521 560.194 724.304 560.194Z" fill="white"/>
<path d="M152.624 500.916C152.624 507.213 147.518 512.319 141.221 512.319C134.923 512.319 129.818 507.213 129.818 500.916C129.818 494.618 134.923 489.513 141.221 489.513C147.518 489.513 152.624 494.618 152.624 500.916Z" fill="white"/>
<path d="M407.29 500.916C407.29 507.213 402.185 512.319 395.887 512.319C389.589 512.319 384.484 507.213 384.484 500.916C384.484 494.618 389.589 489.513 395.887 489.513C402.185 489.513 407.29 494.618 407.29 500.916Z" fill="white"/>
</svg>
