<svg width="25" height="26" viewBox="0 0 25 26" fill="none" xmlns="http://www.w3.org/2000/svg">
<path d="M19.7842 7.99788L13.4145 7.95927L13.4278 5.76255C16.0613 5.06502 15.157 1.10437 12.4923 1.66593C10.4011 2.15133 10.3868 5.24801 12.4675 5.75673L12.4542 7.95345L6.08454 7.91485C4.65375 7.90683 3.48596 9.08193 3.47583 10.5408L3.43332 17.5564C3.43168 17.8266 3.64545 18.0472 3.91048 18.0489C4.17551 18.0505 4.39193 17.8324 4.39357 17.5622L4.43609 10.5466C4.44294 9.62823 5.17788 8.88852 6.0786 8.89398L19.7783 8.977C20.679 8.98246 21.4049 9.73103 21.4006 10.6495L21.333 21.8017C21.3262 22.7201 20.5912 23.4598 19.6905 23.4544L5.99086 23.3714C5.08123 23.358 4.35475 22.5951 4.36805 21.6676C4.387 21.3935 4.16051 21.1598 3.89153 21.1751C3.62001 21.1885 3.40735 21.4176 3.40824 21.6944C3.40132 23.1533 4.55415 24.3412 5.98493 24.3505L19.6846 24.4335C21.1147 24.4409 22.2812 23.2658 22.2914 21.8075L22.359 10.6553C22.3665 9.19701 21.215 8.00785 19.7842 7.99788ZM11.8583 3.71311L11.8564 3.71571C11.8865 2.23801 14.0419 2.2465 14.0611 3.72385C14.0298 5.20285 11.8743 5.19174 11.8583 3.71311Z" fill="#797575" stroke="#797575" stroke-width="0.7"/>
<path d="M8.79439 20.2535C8.79276 20.5237 9.00653 20.7443 9.27156 20.7459L16.4415 20.7894C16.7065 20.791 16.9229 20.573 16.9246 20.3027C16.9262 20.0325 16.7124 19.8119 16.4474 19.8103L9.27749 19.7668C9.01182 19.7652 8.79603 19.9832 8.79439 20.2535Z" fill="#797575" stroke="#797575" stroke-width="0.7"/>
<path d="M8.70383 11.9423C6.1402 11.9921 6.11569 15.8237 8.67853 15.9058C11.2428 15.8554 11.2647 12.027 8.70383 11.9423ZM8.68576 14.9247L8.68575 14.9267C7.39337 14.8973 7.40398 12.9365 8.69662 12.9214C9.98899 12.9515 9.97713 14.9078 8.68576 14.9247Z" fill="#797575" stroke="#797575" stroke-width="0.7"/>
<path d="M17.1167 11.9916C14.5524 12.0427 14.5305 15.8743 17.0933 15.9551C19.6557 15.9015 19.6795 12.0731 17.1167 11.9916ZM16.122 13.9674C16.1518 12.6497 18.0748 12.6613 18.0886 13.9793C18.0589 15.2971 16.1377 15.2848 16.122 13.9674Z" fill="#797575" stroke="#797575" stroke-width="0.7"/>
</svg>
