<svg width="60" height="60" viewBox="0 0 60 60" fill="none" xmlns="http://www.w3.org/2000/svg">
<path d="M38.7022 23.9094H30.9017V21.2576C34.1215 20.3963 32.9847 15.6219 29.7257 16.3193C27.1684 16.9205 27.1739 20.6587 29.7257 21.2576V23.9094H21.9251C20.1729 23.9102 18.7516 25.3372 18.75 27.0984V35.5673C18.75 35.8936 19.0134 36.1583 19.338 36.1583C19.6626 36.1583 19.926 35.8936 19.926 35.5673V27.0984C19.9276 25.9897 20.8221 25.0914 21.9251 25.0914H38.7022C39.8053 25.0914 40.6998 25.9897 40.7014 27.0984V40.561C40.6998 41.6697 39.8053 42.568 38.7022 42.568H21.9251C20.8111 42.5586 19.9158 41.6429 19.9252 40.5232C19.9464 40.1923 19.6673 39.9117 19.338 39.9322C19.0056 39.9503 18.7469 40.2285 18.75 40.5626C18.7524 42.3238 20.1729 43.7492 21.9251 43.75H38.7022C40.4537 43.7484 41.8734 42.3214 41.875 40.561V27.0984C41.8734 25.338 40.4544 23.911 38.7022 23.9094ZM28.9645 18.7951L28.9621 18.7983C28.988 17.0143 31.6276 17.0088 31.6621 18.792C31.6347 20.5776 28.995 20.5799 28.9645 18.7951Z" fill="#72767F" fill-opacity="0.5" stroke="#72767F" stroke-opacity="0.5" stroke-width="0.7"/>
<path d="M25.3359 38.7841C25.3359 39.1104 25.5994 39.3751 25.9239 39.3751H34.7045C35.029 39.3751 35.2924 39.1104 35.2924 38.7841C35.2924 38.4579 35.029 38.1931 34.7045 38.1931H25.9239C25.5986 38.1931 25.3359 38.4579 25.3359 38.7841Z" fill="#72767F" fill-opacity="0.5" stroke="#72767F" stroke-opacity="0.5" stroke-width="0.7"/>
<path d="M25.1627 28.752C22.0236 28.8308 22.0221 33.4562 25.1611 33.5366C28.3009 33.457 28.2994 28.8355 25.1627 28.752ZM25.1627 32.3522V32.3546C23.5798 32.3286 23.5783 29.9615 25.1611 29.9339C26.744 29.9607 26.744 32.3223 25.1627 32.3522Z" fill="#72767F" fill-opacity="0.5" stroke="#72767F" stroke-opacity="0.5" stroke-width="0.7"/>
<path d="M35.4655 28.75C32.3257 28.8304 32.3273 33.4558 35.4663 33.5346C38.6038 33.4511 38.6046 28.8296 35.4655 28.75ZM34.2621 31.1423C34.2888 29.5514 36.6438 29.5514 36.6705 31.1423C36.6438 32.7332 34.2911 32.7325 34.2621 31.1423Z" fill="#72767F" fill-opacity="0.5" stroke="#72767F" stroke-opacity="0.5" stroke-width="0.7"/>
</svg>
