<svg width="390" height="269" viewBox="0 0 390 269" fill="none" xmlns="http://www.w3.org/2000/svg">
<g filter="url(#filter0_d_487_2364)">
<rect x="30" y="22" width="327" height="200" rx="19.2041" fill="url(#paint0_linear_487_2364)"/>
<path d="M305.121 145.142V155.143H306.181V144.143H302.878V145.142H305.121ZM315.414 155.143V154.114H309.868L312.433 151.871C314.63 149.95 315.352 148.89 315.352 147.292C315.352 145.28 313.97 143.943 311.896 143.943C309.729 143.943 308.27 145.464 308.208 147.769H309.315C309.361 146.063 310.359 144.957 311.88 144.957C313.34 144.957 314.231 145.864 314.231 147.354C314.231 148.66 313.708 149.428 311.68 151.195L308.162 154.267V155.143H315.414ZM317.443 155.143L321.76 144.143H320.684L316.398 155.143H317.443ZM324.76 145.142V155.143H325.82V144.143H322.517V145.142H324.76ZM335.867 152.808V151.825H334.577V144.143H333.102L327.725 151.825V152.808H333.501V155.143H334.577V152.808H335.867ZM328.923 151.825L333.501 145.28V151.825H328.923Z" fill="white"/>
<path d="M289.288 196.429V195.013H281.662L285.189 191.929C288.21 189.289 289.203 187.831 289.203 185.634C289.203 182.867 287.302 181.029 284.45 181.029C281.472 181.029 279.465 183.12 279.38 186.289H280.901C280.965 183.944 282.338 182.423 284.429 182.423C286.436 182.423 287.661 183.67 287.661 185.719C287.661 187.514 286.943 188.57 284.154 191L279.317 195.225V196.429H289.288ZM299.91 182.677V196.429H301.368V181.304H296.826V182.677H299.91ZM312.824 182.677V196.429H314.282V181.304H309.74V182.677H312.824ZM328.041 196.682C331.21 196.682 333.364 194.528 333.364 191.486C333.364 188.655 331.421 186.395 328.273 186.395C327.09 186.395 325.992 186.775 325.147 187.451L326.288 182.698H332.498V181.304H325.189L323.372 188.908L324.577 189.289C325.4 188.38 326.668 187.747 328.062 187.747C330.449 187.747 331.822 189.415 331.822 191.528C331.822 193.767 330.343 195.288 328.062 195.288C325.907 195.288 324.577 193.978 324.577 191.802H323.056C323.056 194.781 324.999 196.682 328.041 196.682Z" fill="white"/>
<path d="M139.675 184.891L141.655 187.707L140.335 188.565L138.597 185.617L136.859 188.565L135.517 187.707L137.497 184.891L134.219 183.901L134.791 182.383L137.937 183.681L137.783 180.249H139.389L139.235 183.681L142.403 182.383L142.953 183.901L139.675 184.891Z" fill="white"/>
<path d="M155.392 184.891L157.372 187.707L156.052 188.565L154.314 185.617L152.576 188.565L151.234 187.707L153.214 184.891L149.936 183.901L150.508 182.383L153.654 183.681L153.5 180.249H155.106L154.952 183.681L158.12 182.383L158.67 183.901L155.392 184.891Z" fill="white"/>
<path d="M171.11 184.891L173.09 187.707L171.77 188.565L170.032 185.617L168.294 188.565L166.952 187.707L168.932 184.891L165.654 183.901L166.226 182.383L169.372 183.681L169.218 180.249H170.824L170.67 183.681L173.838 182.383L174.388 183.901L171.11 184.891Z" fill="white"/>
<path d="M186.828 184.891L188.808 187.707L187.488 188.565L185.75 185.617L184.012 188.565L182.67 187.707L184.65 184.891L181.372 183.901L181.944 182.383L185.09 183.681L184.936 180.249H186.542L186.388 183.681L189.556 182.383L190.106 183.901L186.828 184.891Z" fill="white"/>
<path d="M212.369 184.891L214.349 187.707L213.029 188.565L211.291 185.617L209.553 188.565L208.211 187.707L210.191 184.891L206.913 183.901L207.485 182.383L210.631 183.681L210.477 180.249H212.083L211.929 183.681L215.097 182.383L215.647 183.901L212.369 184.891Z" fill="white"/>
<path d="M228.085 184.891L230.065 187.707L228.745 188.565L227.007 185.617L225.269 188.565L223.927 187.707L225.907 184.891L222.629 183.901L223.201 182.383L226.347 183.681L226.193 180.249H227.799L227.645 183.681L230.813 182.383L231.363 183.901L228.085 184.891Z" fill="white"/>
<path d="M243.803 184.891L245.783 187.707L244.463 188.565L242.725 185.617L240.987 188.565L239.645 187.707L241.625 184.891L238.347 183.901L238.919 182.383L242.065 183.681L241.911 180.249H243.517L243.363 183.681L246.531 182.383L247.081 183.901L243.803 184.891Z" fill="white"/>
<path d="M259.521 184.891L261.501 187.707L260.181 188.565L258.443 185.617L256.705 188.565L255.363 187.707L257.343 184.891L254.065 183.901L254.637 182.383L257.783 183.681L257.629 180.249H259.235L259.081 183.681L262.249 182.383L262.799 183.901L259.521 184.891Z" fill="white"/>
<rect x="59.2477" y="51.0514" width="33.5618" height="23.8017" rx="5.28112" fill="url(#paint1_linear_487_2364)" stroke="#1D5C63" stroke-width="0.960203"/>
<path d="M81.3038 55.333L76.5091 51.5234L70.7554 56.2853V59.1425M82.2627 66.2853V69.1425L76.5091 74.3806L70.7554 69.1425V66.2853M82.2627 66.2853V59.1425H92.8111V66.2853H82.2627ZM70.7554 66.2853H59.7275V59.1425H70.7554M70.7554 66.2853V59.1425" stroke="#87795A" stroke-width="0.960203"/>
<path d="M62.9697 148.034H60.2016L60.1866 146.872H62.6996C63.1147 146.872 63.4773 146.802 63.7874 146.662C64.0974 146.522 64.3375 146.322 64.5075 146.062C64.6826 145.797 64.7701 145.481 64.7701 145.116C64.7701 144.716 64.6926 144.391 64.5375 144.141C64.3875 143.886 64.1549 143.701 63.8399 143.586C63.5298 143.466 63.1347 143.406 62.6546 143.406H60.5242V153.143H59.0764V142.221H62.6546C63.2147 142.221 63.7148 142.278 64.1549 142.393C64.595 142.503 64.9676 142.678 65.2727 142.918C65.5827 143.153 65.8178 143.454 65.9778 143.819C66.1379 144.184 66.2179 144.621 66.2179 145.131C66.2179 145.581 66.1029 145.989 65.8728 146.354C65.6428 146.714 65.3227 147.009 64.9126 147.239C64.5075 147.469 64.0324 147.617 63.4873 147.682L62.9697 148.034ZM62.9022 153.143H59.6315L60.4492 151.965H62.9022C63.3623 151.965 63.7524 151.885 64.0724 151.725C64.3975 151.565 64.645 151.34 64.8151 151.05C64.9851 150.755 65.0701 150.407 65.0701 150.007C65.0701 149.602 64.9976 149.252 64.8526 148.957C64.7076 148.662 64.48 148.435 64.1699 148.275C63.8599 148.115 63.4598 148.034 62.9697 148.034H60.9068L60.9218 146.872H63.7424L64.0499 147.292C64.575 147.337 65.0201 147.487 65.3852 147.742C65.7503 147.992 66.0278 148.312 66.2179 148.702C66.4129 149.092 66.5104 149.522 66.5104 149.992C66.5104 150.673 66.3604 151.248 66.0603 151.718C65.7653 152.183 65.3477 152.538 64.8076 152.783C64.2675 153.023 63.6323 153.143 62.9022 153.143ZM69.9462 145.026V153.143H68.5509V145.026H69.9462ZM68.4458 142.873C68.4458 142.648 68.5134 142.458 68.6484 142.303C68.7884 142.148 68.9935 142.071 69.2635 142.071C69.5286 142.071 69.7311 142.148 69.8711 142.303C70.0162 142.458 70.0887 142.648 70.0887 142.873C70.0887 143.088 70.0162 143.273 69.8711 143.429C69.7311 143.579 69.5286 143.654 69.2635 143.654C68.9935 143.654 68.7884 143.579 68.6484 143.429C68.5134 143.273 68.4458 143.088 68.4458 142.873ZM72.1666 141.621H73.5619V151.568L73.4419 153.143H72.1666V141.621ZM79.0456 149.017V149.175C79.0456 149.765 78.9756 150.312 78.8355 150.818C78.6955 151.318 78.4905 151.753 78.2204 152.123C77.9504 152.493 77.6203 152.78 77.2302 152.986C76.8401 153.191 76.3925 153.293 75.8874 153.293C75.3723 153.293 74.9197 153.206 74.5296 153.031C74.1446 152.851 73.8195 152.593 73.5544 152.258C73.2894 151.923 73.0768 151.518 72.9168 151.043C72.7618 150.568 72.6542 150.032 72.5942 149.437V148.747C72.6542 148.147 72.7618 147.609 72.9168 147.134C73.0768 146.659 73.2894 146.254 73.5544 145.919C73.8195 145.579 74.1446 145.321 74.5296 145.146C74.9147 144.966 75.3623 144.876 75.8724 144.876C76.3825 144.876 76.8351 144.976 77.2302 145.176C77.6253 145.371 77.9554 145.651 78.2204 146.017C78.4905 146.382 78.6955 146.819 78.8355 147.329C78.9756 147.834 79.0456 148.397 79.0456 149.017ZM77.6503 149.175V149.017C77.6503 148.612 77.6128 148.232 77.5378 147.877C77.4628 147.517 77.3427 147.202 77.1777 146.932C77.0127 146.657 76.7951 146.442 76.5251 146.287C76.255 146.127 75.9224 146.047 75.5273 146.047C75.1773 146.047 74.8722 146.107 74.6122 146.227C74.3571 146.347 74.1396 146.509 73.9595 146.714C73.7795 146.914 73.6319 147.144 73.5169 147.404C73.4069 147.659 73.3244 147.924 73.2694 148.2V150.007C73.3494 150.357 73.4794 150.695 73.6595 151.02C73.8445 151.34 74.0895 151.603 74.3946 151.808C74.7047 152.013 75.0873 152.115 75.5424 152.115C75.9174 152.115 76.2375 152.04 76.5026 151.89C76.7726 151.735 76.9902 151.523 77.1552 151.253C77.3252 150.983 77.4503 150.67 77.5303 150.315C77.6103 149.96 77.6503 149.58 77.6503 149.175ZM80.4334 149.175V149.002C80.4334 148.417 80.5184 147.874 80.6884 147.374C80.8585 146.869 81.1035 146.432 81.4236 146.062C81.7437 145.686 82.1312 145.396 82.5863 145.191C83.0414 144.981 83.5515 144.876 84.1167 144.876C84.6868 144.876 85.1994 144.981 85.6545 145.191C86.1146 145.396 86.5047 145.686 86.8247 146.062C87.1498 146.432 87.3974 146.869 87.5674 147.374C87.7374 147.874 87.8225 148.417 87.8225 149.002V149.175C87.8225 149.76 87.7374 150.302 87.5674 150.803C87.3974 151.303 87.1498 151.74 86.8247 152.115C86.5047 152.485 86.1171 152.775 85.662 152.986C85.2119 153.191 84.7018 153.293 84.1317 153.293C83.5616 153.293 83.0489 153.191 82.5938 152.986C82.1387 152.775 81.7487 152.485 81.4236 152.115C81.1035 151.74 80.8585 151.303 80.6884 150.803C80.5184 150.302 80.4334 149.76 80.4334 149.175ZM81.8212 149.002V149.175C81.8212 149.58 81.8687 149.962 81.9637 150.322C82.0587 150.678 82.2013 150.993 82.3913 151.268C82.5863 151.543 82.8289 151.76 83.119 151.92C83.409 152.075 83.7466 152.153 84.1317 152.153C84.5118 152.153 84.8443 152.075 85.1294 151.92C85.4194 151.76 85.6595 151.543 85.8495 151.268C86.0396 150.993 86.1821 150.678 86.2771 150.322C86.3771 149.962 86.4272 149.58 86.4272 149.175V149.002C86.4272 148.602 86.3771 148.225 86.2771 147.869C86.1821 147.509 86.0371 147.192 85.842 146.917C85.652 146.637 85.4119 146.417 85.1219 146.257C84.8368 146.097 84.5018 146.017 84.1167 146.017C83.7366 146.017 83.4015 146.097 83.1115 146.257C82.8264 146.417 82.5863 146.637 82.3913 146.917C82.2013 147.192 82.0587 147.509 81.9637 147.869C81.8687 148.225 81.8212 148.602 81.8212 149.002ZM92.961 145.026V146.092H88.5726V145.026H92.961ZM90.0579 143.053H91.4457V151.133C91.4457 151.408 91.4882 151.615 91.5732 151.755C91.6583 151.895 91.7683 151.988 91.9033 152.033C92.0383 152.078 92.1834 152.1 92.3384 152.1C92.4534 152.1 92.5735 152.09 92.6985 152.07C92.8285 152.045 92.926 152.025 92.991 152.01L92.9986 153.143C92.8885 153.178 92.7435 153.211 92.5635 153.241C92.3884 153.276 92.1759 153.293 91.9258 153.293C91.5858 153.293 91.2732 153.226 90.9881 153.091C90.7031 152.956 90.4755 152.73 90.3055 152.415C90.1404 152.095 90.0579 151.665 90.0579 151.125V143.053ZM100.058 142.221V153.143H98.6097V142.221H100.058ZM106.651 142.221L102.113 147.314L99.5624 149.962L99.3224 148.417L101.243 146.302L104.911 142.221H106.651ZM105.256 153.143L101.213 147.817L102.075 146.669L106.982 153.143H105.256ZM109.555 145.026V153.143H108.159V145.026H109.555ZM108.054 142.873C108.054 142.648 108.122 142.458 108.257 142.303C108.397 142.148 108.602 142.071 108.872 142.071C109.137 142.071 109.34 142.148 109.48 142.303C109.625 142.458 109.697 142.648 109.697 142.873C109.697 143.088 109.625 143.273 109.48 143.429C109.34 143.579 109.137 143.654 108.872 143.654C108.602 143.654 108.397 143.579 108.257 143.429C108.122 143.273 108.054 143.088 108.054 142.873ZM113.163 146.639V153.143H111.768V145.026H113.088L113.163 146.639ZM112.878 148.777L112.233 148.755C112.238 148.2 112.31 147.687 112.45 147.217C112.59 146.742 112.798 146.329 113.073 145.979C113.348 145.629 113.69 145.359 114.101 145.169C114.511 144.974 114.986 144.876 115.526 144.876C115.906 144.876 116.256 144.931 116.576 145.041C116.896 145.146 117.174 145.314 117.409 145.544C117.644 145.774 117.826 146.069 117.956 146.429C118.086 146.789 118.151 147.224 118.151 147.734V153.143H116.764V147.802C116.764 147.377 116.691 147.037 116.546 146.782C116.406 146.527 116.206 146.342 115.946 146.227C115.686 146.107 115.381 146.047 115.031 146.047C114.621 146.047 114.278 146.119 114.003 146.264C113.728 146.409 113.508 146.609 113.343 146.864C113.178 147.119 113.058 147.412 112.983 147.742C112.913 148.067 112.878 148.412 112.878 148.777ZM118.136 148.012L117.206 148.297C117.211 147.852 117.284 147.424 117.424 147.014C117.569 146.604 117.776 146.239 118.046 145.919C118.321 145.599 118.659 145.346 119.059 145.161C119.459 144.971 119.917 144.876 120.432 144.876C120.867 144.876 121.252 144.934 121.587 145.049C121.927 145.164 122.212 145.341 122.442 145.581C122.677 145.817 122.855 146.119 122.975 146.489C123.095 146.859 123.155 147.299 123.155 147.809V153.143H121.76V147.794C121.76 147.339 121.687 146.987 121.542 146.737C121.402 146.482 121.202 146.304 120.942 146.204C120.687 146.099 120.382 146.047 120.027 146.047C119.722 146.047 119.452 146.099 119.217 146.204C118.982 146.309 118.784 146.454 118.624 146.639C118.464 146.819 118.341 147.027 118.256 147.262C118.176 147.497 118.136 147.747 118.136 148.012Z" fill="white"/>
<path d="M63.1531 188.317C65.857 188.317 67.3357 189.606 67.3357 191.676C67.3357 193.873 65.8781 195.309 63.6178 195.309C61.4843 195.309 60.1323 193.999 60.1323 191.824H58.6324C58.6324 194.844 60.6393 196.682 63.6178 196.682C66.6809 196.682 68.8778 194.718 68.8778 191.718C68.8778 188.972 66.8499 187.176 64.0192 187.028L68.5398 182.529V181.304H59.3718V182.656H66.6175L61.949 187.261V188.317H63.1531ZM87.7146 193.218V191.866H85.9401V181.304H83.9122L76.5186 191.866V193.218H84.4614V196.429H85.9401V193.218H87.7146ZM78.1663 191.866L84.4614 182.867V191.866H78.1663ZM98.6 182.677V196.429H100.058V181.304H95.5158V182.677H98.6ZM107.881 181.304V182.698H116.626L110.648 196.429H112.211L118.168 182.698V181.304H107.881Z" fill="white"/>
</g>
<defs>
<filter id="filter0_d_487_2364" x="-3.60712" y="0.875525" width="394.214" height="267.214" filterUnits="userSpaceOnUse" color-interpolation-filters="sRGB">
<feFlood flood-opacity="0" result="BackgroundImageFix"/>
<feColorMatrix in="SourceAlpha" type="matrix" values="0 0 0 0 0 0 0 0 0 0 0 0 0 0 0 0 0 0 127 0" result="hardAlpha"/>
<feOffset dy="12.4826"/>
<feGaussianBlur stdDeviation="16.8036"/>
<feComposite in2="hardAlpha" operator="out"/>
<feColorMatrix type="matrix" values="0 0 0 0 0.101961 0 0 0 0 0.235294 0 0 0 0 0.25098 0 0 0 0.15 0"/>
<feBlend mode="normal" in2="BackgroundImageFix" result="effect1_dropShadow_487_2364"/>
<feBlend mode="normal" in="SourceGraphic" in2="effect1_dropShadow_487_2364" result="shape"/>
</filter>
<linearGradient id="paint0_linear_487_2364" x1="98.5645" y1="22" x2="241.093" y2="224.828" gradientUnits="userSpaceOnUse">
<stop stop-color="#17D2E8"/>
<stop offset="0.5" stop-color="#1D5C63"/>
<stop offset="1" stop-color="#48294D"/>
</linearGradient>
<linearGradient id="paint1_linear_487_2364" x1="64.5212" y1="49.6189" x2="95.4864" y2="78.8788" gradientUnits="userSpaceOnUse">
<stop stop-color="white"/>
<stop offset="0.11465" stop-color="#E0DED2"/>
<stop offset="0.370556" stop-color="#A8A59F"/>
<stop offset="0.781267" stop-color="#FFFDF7"/>
</linearGradient>
</defs>
</svg>
