<svg width="189" height="76" viewBox="0 0 189 76" fill="none" xmlns="http://www.w3.org/2000/svg">
<g clip-path="url(#clip0_570_1948)">
<path d="M96.8869 0L36.8467 3.56096V4.66101L96.8869 8.22073V0Z" fill="#FEAA00"/>
<path d="M0 7.07116L26.8631 4.65969V3.56088L0 1.14941V7.07116Z" fill="#FEAA00"/>
<path d="M73.7464 14.7516C74.1278 14.3488 74.5862 14.0281 75.0939 13.809C75.6016 13.5899 76.148 13.4769 76.7001 13.4769C77.2523 13.4769 77.7987 13.5899 78.3064 13.809C78.814 14.0281 79.2724 14.3488 79.6538 14.7516C80.4559 15.6755 80.8724 16.8768 80.8162 18.1037C80.8692 19.3216 80.4526 20.5128 79.6538 21.4274C79.2723 21.8301 78.8139 22.1506 78.3063 22.3696C77.7986 22.5886 77.2522 22.7015 76.7001 22.7015C76.148 22.7015 75.6017 22.5886 75.094 22.3696C74.5863 22.1506 74.1279 21.8301 73.7464 21.4274C72.9475 20.5129 72.5308 19.3216 72.5841 18.1037C72.5276 16.8767 72.9442 15.6754 73.7464 14.7516ZM82.0337 23.4223C83.3813 21.9914 84.1139 20.081 84.0718 18.1074C84.1133 16.1284 83.3811 14.2125 82.0337 12.774C80.6107 11.3627 78.6954 10.5718 76.7001 10.5718C74.7049 10.5718 72.7895 11.3627 71.3666 12.774C70.0189 14.2124 69.2867 16.1284 69.3285 18.1074C69.286 20.0811 70.0186 21.9916 71.3666 23.4223C72.7936 24.8258 74.7075 25.6112 76.7001 25.6112C78.6928 25.6112 80.6066 24.8258 82.0337 23.4223ZM69.0676 10.763C68.2419 10.6853 67.4112 10.8441 66.6709 11.2213C65.9306 11.5984 65.3106 12.1786 64.8823 12.8952V10.9015H61.8717V25.2837H65.126V17.7997C65.126 15.1406 66.3476 13.811 68.7908 13.811C69.0367 13.8121 69.2823 13.8307 69.5257 13.8667V10.7902L69.0676 10.763ZM51.8366 13.5057C52.3886 13.4829 52.9384 13.5885 53.4434 13.8144C53.9485 14.0403 54.3953 14.3804 54.7492 14.8085C55.4911 15.7401 55.8747 16.9107 55.8295 18.105C55.8746 19.2992 55.491 20.4698 54.7492 21.4014C54.3822 21.8124 53.9335 22.1409 53.4322 22.3652C52.931 22.5896 52.3886 22.7049 51.8403 22.7036C51.292 22.7023 50.7501 22.5845 50.2499 22.3578C49.7498 22.1311 49.3025 21.8006 48.9374 21.3878C48.1909 20.4632 47.8018 19.2969 47.8424 18.105C47.8018 16.913 48.1909 15.7467 48.9374 14.8221C49.2882 14.393 49.7322 14.0511 50.2349 13.8228C50.7376 13.5945 51.2857 13.4861 51.8366 13.5057ZM55.9386 12.9792C55.4302 12.181 54.7161 11.5374 53.8728 11.1176C53.0295 10.6978 52.089 10.5175 51.1519 10.5962C50.2419 10.5564 49.3352 10.7295 48.5025 11.1019C47.6698 11.4744 46.9337 12.0361 46.3518 12.7431C45.1466 14.2592 44.5208 16.1614 44.588 18.1037C44.5208 20.0461 45.1466 21.9483 46.3518 23.4643C46.9336 24.1715 47.6697 24.7332 48.5024 25.1057C49.3351 25.4781 50.2419 25.6511 51.1519 25.6113C52.0889 25.6902 53.0294 25.5101 53.8727 25.0905C54.716 24.6709 55.4301 24.0276 55.9386 23.2295V25.2837H58.9468V10.9299H55.9398L55.9386 12.9792ZM30.1484 3.56201V25.2837H33.4028V16.9678C33.3448 16.0068 33.6643 15.0614 34.292 14.3363C34.612 14.0147 34.9955 13.7645 35.4175 13.6023C35.8396 13.44 36.2908 13.3692 36.7417 13.3945C37.1378 13.3641 37.5354 13.4271 37.9032 13.5786C38.271 13.73 38.5988 13.9657 38.8607 14.2671C39.3611 14.9605 39.6078 15.8074 39.5588 16.6638V25.2837H42.8132V16.2472C42.8868 14.7449 42.3935 13.2702 41.4328 12.1202C40.9336 11.5921 40.3263 11.1802 39.6532 10.9134C38.98 10.6466 38.2573 10.5311 37.5354 10.5752C36.745 10.508 35.9506 10.6457 35.2278 10.9754C34.5049 11.3051 33.8776 11.8157 33.4053 12.4588V3.56201H30.1484ZM18.0985 14.7381C18.4632 14.3232 18.9112 13.9913 19.4127 13.7644C19.9142 13.5375 20.4578 13.4209 21.0074 13.4221C21.5571 13.4234 22.1001 13.5426 22.6006 13.7718C23.1011 14.0011 23.5475 14.335 23.9103 14.7516C24.6616 15.7005 25.0502 16.89 25.0053 18.1037C25.0456 19.2956 24.6566 20.4618 23.9103 21.3866C23.5451 21.7992 23.0978 22.1295 22.5977 22.3561C22.0975 22.5827 21.5557 22.7005 21.0074 22.7017C20.4592 22.703 19.9168 22.5878 19.4156 22.3635C18.9144 22.1393 18.4656 21.811 18.0985 21.4002C17.3566 20.4686 16.973 19.298 17.0182 18.1037C16.9689 16.8877 17.352 15.694 18.0985 14.7381ZM21.6677 25.615C22.5818 25.6567 23.4931 25.4847 24.3305 25.1122C25.1678 24.7398 25.9085 24.1771 26.4947 23.468C27.6998 21.952 28.3257 20.0498 28.2585 18.1074C28.3239 16.1612 27.6985 14.2553 26.4947 12.7332C25.9105 12.0214 25.1706 11.4561 24.3332 11.0816C23.4959 10.7072 22.5839 10.5338 21.6689 10.5752C20.733 10.5049 19.7955 10.6887 18.9538 11.1075C18.112 11.5263 17.3968 12.1649 16.8822 12.957V10.9015H13.874V31.0411H17.1284V23.3951C17.6235 24.1366 18.3046 24.7324 19.1022 25.1217C19.8998 25.511 20.7855 25.6799 21.6689 25.6113" fill="black"/>
<path d="M8.80423 15.3311L11.8259 14.9405C11.7706 14.5405 11.6673 14.1487 11.5185 13.7737C11.287 13.2229 10.9735 12.7111 10.5888 12.2559C10.121 11.7189 9.52902 11.3066 8.86548 11.0557C8.05029 10.7382 7.18167 10.5837 6.30802 10.6009C4.83283 10.5271 3.38062 10.9917 2.21707 11.9098C1.73526 12.2868 1.34559 12.7704 1.07803 13.3232C0.81048 13.8761 0.67218 14.4835 0.673776 15.0987C0.622005 16.0299 0.919829 16.9465 1.50789 17.6659C2.04522 18.2808 2.7677 18.7007 3.56439 18.8612L5.97119 19.3716C6.66901 19.5086 7.34853 19.7277 7.99584 20.0242C8.24284 20.1182 8.45529 20.2864 8.60447 20.5061C8.75365 20.7258 8.83236 20.9865 8.82996 21.2528C8.83143 21.4945 8.76869 21.7322 8.64828 21.9411C8.52786 22.15 8.35417 22.3225 8.14527 22.4407C7.55193 22.7685 6.87922 22.9214 6.20391 22.8819C5.41944 22.9295 4.64113 22.7164 3.98818 22.275C3.73641 22.0915 3.52936 21.8526 3.38271 21.5763C3.23607 21.3001 3.15369 20.9937 3.14182 20.6806L0.0380859 21.0761C0.167963 22.2765 0.724506 23.3888 1.60465 24.2069C2.847 25.2162 4.42376 25.7099 6.01406 25.5875C7.5787 25.6888 9.12982 25.2403 10.4039 24.3182C10.8904 23.9428 11.283 23.4575 11.5502 22.9014C11.8173 22.3452 11.9516 21.7336 11.9423 21.1156C11.9896 20.1621 11.6982 19.2229 11.1204 18.4669C10.6022 17.821 9.881 17.3732 9.07615 17.1975L6.66935 16.6586C5.97179 16.512 5.28973 16.2984 4.63244 16.0208C4.39606 15.9511 4.18733 15.8083 4.03569 15.6124C3.88406 15.4166 3.79718 15.1777 3.78731 14.9294C3.78018 14.6897 3.83436 14.4523 3.94464 14.2399C4.05491 14.0275 4.21755 13.8474 4.41687 13.7169C4.96149 13.3913 5.5905 13.2384 6.22228 13.2781C6.88371 13.2357 7.53568 13.4536 8.04116 13.8862C8.453 14.2615 8.71079 14.7787 8.76382 15.336L8.80423 15.3311Z" fill="black"/>
<path d="M93.8902 15.3315L96.9118 14.9409C96.8565 14.5408 96.7532 14.149 96.6044 13.7741C96.3729 13.2233 96.0594 12.7115 95.6747 12.2563C95.2069 11.7192 94.615 11.3069 93.9514 11.0561C93.1362 10.7385 92.2676 10.584 91.3939 10.6012C89.919 10.5281 88.4673 10.9932 87.3042 11.9114C86.8224 12.2882 86.4325 12.7715 86.1648 13.3241C85.897 13.8767 85.7584 14.4839 85.7597 15.0991C85.7079 16.0302 86.0057 16.9469 86.5938 17.6663C87.1297 18.2807 87.8503 18.701 88.6454 18.8628L91.0522 19.3732C91.75 19.5102 92.4295 19.7293 93.0769 20.0258C93.3238 20.1199 93.5361 20.2882 93.6853 20.5079C93.8344 20.7275 93.9132 20.9881 93.911 21.2544C93.9124 21.4961 93.8497 21.7338 93.7293 21.9427C93.6089 22.1516 93.4352 22.3241 93.2263 22.4422C92.5724 22.7585 91.8518 22.9087 91.1272 22.8796C90.4026 22.8505 89.6961 22.6431 89.0692 22.2754C88.8171 22.0921 88.6098 21.8532 88.4629 21.5769C88.3161 21.3007 88.2335 20.9942 88.2216 20.6809L85.124 21.0814C85.2547 22.2799 85.8107 23.3902 86.6893 24.2073C87.9317 25.2166 89.5085 25.7103 91.0988 25.5879C92.6634 25.6892 94.2145 25.2406 95.4886 24.3185C95.9764 23.9439 96.3705 23.459 96.6389 22.9028C96.9074 22.3466 97.0428 21.7346 97.0343 21.116C97.0816 20.1623 96.7897 19.2229 96.2112 18.4672C95.6944 17.8222 94.975 17.3744 94.1719 17.1978L91.7651 16.6589C91.0675 16.5123 90.3855 16.2988 89.7282 16.0212C89.4918 15.9515 89.2831 15.8086 89.1314 15.6128C88.9798 15.417 88.8929 15.1781 88.883 14.9298C88.8759 14.6901 88.9301 14.4526 89.0404 14.2402C89.1506 14.0279 89.3133 13.8477 89.5126 13.7172C90.0572 13.3917 90.6862 13.2388 91.318 13.2784C91.9794 13.236 92.6314 13.454 93.1369 13.8866C93.5482 14.2621 93.8055 14.7792 93.8583 15.3364L93.8902 15.3315Z" fill="black"/>
<path d="M103.882 25.1686L109.67 10.9644H111.237L117.041 25.1686H115.436L114.108 21.8475H106.772L105.425 25.1686H103.882ZM110.427 12.7442L107.295 20.4866H113.58L110.468 12.7442H110.427Z" fill="black"/>
<path d="M122.137 14.7551C123.253 14.7135 124.347 15.082 125.214 15.792C126.082 16.5021 126.665 17.5056 126.855 18.6164H125.428C125.272 17.8625 124.855 17.1892 124.252 16.7165C123.649 16.2439 122.9 16.0026 122.137 16.0356C120.016 16.0356 118.585 17.7364 118.585 20.0972C118.534 20.6023 118.587 21.1126 118.741 21.5959C118.896 22.0792 119.148 22.5249 119.482 22.9047C119.816 23.2845 120.224 23.5902 120.681 23.8025C121.138 24.0147 121.634 24.1289 122.137 24.1377C122.9 24.1708 123.649 23.9295 124.252 23.4568C124.855 22.9842 125.272 22.3108 125.428 21.5569H126.855C126.665 22.6677 126.082 23.6713 125.214 24.3813C124.347 25.0914 123.253 25.4598 122.137 25.4182C120.79 25.338 119.524 24.7414 118.598 23.7503C117.672 22.7593 117.156 21.4487 117.156 20.0867C117.156 18.7246 117.672 17.4141 118.598 16.423C119.524 15.432 120.79 14.8353 122.137 14.7551Z" fill="black"/>
<path d="M137.598 25.1773H136.251V23.3023C135.878 23.9853 135.32 24.5473 134.642 24.9226C133.965 25.2979 133.196 25.4711 132.424 25.4221C129.332 25.4221 127.667 22.9018 127.667 20.101C127.667 17.3002 129.333 14.7602 132.424 14.7602C133.195 14.7109 133.964 14.8835 134.641 15.2579C135.318 15.6323 135.876 16.1931 136.249 16.875V14.995H137.597L137.598 25.1773ZM132.699 24.1378C134.958 24.1378 136.251 22.3172 136.251 20.0973C136.251 17.8774 134.962 16.0358 132.699 16.0358C132.191 16.0426 131.69 16.1557 131.227 16.3679C130.765 16.58 130.351 16.8866 130.012 17.2682C129.673 17.6499 129.416 18.0983 129.257 18.5853C129.099 19.0722 129.042 19.5871 129.09 20.0973C129.043 20.6062 129.101 21.1195 129.261 21.6046C129.42 22.0898 129.677 22.5363 130.016 22.916C130.356 23.2957 130.769 23.6004 131.231 23.8107C131.692 24.021 132.192 24.1324 132.699 24.1378Z" fill="black"/>
<path d="M147.906 10.1079H149.314V25.2108H147.966V23.3184C147.596 24.0046 147.039 24.5699 146.361 24.948C145.684 25.3261 144.913 25.5013 144.14 25.453C141.047 25.453 139.383 22.9155 139.383 20.0961C139.383 17.2533 141.049 14.7195 144.14 14.7195C144.899 14.6787 145.654 14.8532 146.32 15.2233C146.985 15.5934 147.535 16.1442 147.906 16.8133V10.1079ZM144.417 16.0086C142.157 16.0086 140.809 17.8206 140.809 20.0961C140.759 20.6069 140.815 21.1224 140.974 21.6101C141.132 22.0977 141.389 22.547 141.728 22.9293C142.067 23.3117 142.481 23.6188 142.944 23.8313C143.407 24.0438 143.908 24.157 144.417 24.1639C146.677 24.1639 147.969 22.3309 147.969 20.0961C147.969 17.8206 146.68 16.0086 144.417 16.0086Z" fill="black"/>
<path d="M152.599 20.4966C152.593 20.9746 152.682 21.449 152.86 21.8921C153.038 22.3351 153.302 22.7378 153.636 23.0768C153.97 23.4158 154.368 23.6842 154.806 23.8664C155.244 24.0486 155.714 24.1409 156.187 24.1379C156.872 24.162 157.546 23.9683 158.116 23.5841C158.685 23.1999 159.12 22.6447 159.36 21.9971H160.829C160.537 23.0062 159.922 23.8892 159.08 24.5082C158.238 25.1271 157.216 25.4472 156.175 25.4184C155.492 25.4279 154.814 25.2937 154.185 25.0244C153.556 24.7551 152.989 24.3566 152.521 23.8542C152.053 23.3518 151.693 22.7566 151.466 22.1064C151.238 21.4561 151.147 20.7652 151.199 20.0776C151.162 19.396 151.263 18.7141 151.495 18.073C151.728 17.4319 152.086 16.845 152.549 16.3476C153.012 15.8501 153.57 15.4526 154.19 15.1789C154.81 14.9053 155.478 14.7612 156.154 14.7553C156.82 14.7465 157.48 14.8774 158.093 15.1397C158.706 15.402 159.259 15.7899 159.715 16.2789C160.172 16.7679 160.523 17.3473 160.746 17.9803C160.969 18.6134 161.059 19.2863 161.011 19.9564C161.011 20.1765 160.991 20.4966 160.991 20.4966H152.599ZM152.638 19.336H159.596C159.587 18.8898 159.491 18.4499 159.312 18.0417C159.133 17.6336 158.876 17.2653 158.555 16.9583C158.234 16.6513 157.856 16.4116 157.443 16.2533C157.029 16.0949 156.589 16.021 156.147 16.0358C155.255 16.0308 154.395 16.3696 153.743 16.983C153.091 17.5964 152.695 18.4381 152.638 19.336Z" fill="black"/>
<path d="M170.974 25.1776H169.567V18.9555C169.567 17.1756 168.794 15.989 167.029 15.989C166.629 15.9788 166.232 16.0541 165.862 16.2101C165.493 16.3661 165.161 16.5991 164.888 16.8939C164.614 17.1887 164.406 17.5386 164.276 17.9206C164.146 18.3025 164.098 18.7079 164.135 19.11V25.1664H162.728V14.994H164.075V16.5551C164.419 15.9913 164.904 15.5284 165.48 15.2125C166.057 14.8967 166.706 14.7389 167.362 14.7551C168.018 14.7712 168.658 14.9606 169.219 15.3045C169.78 15.6483 170.241 16.1345 170.558 16.7146C170.923 16.0975 171.444 15.5901 172.069 15.2454C172.694 14.9007 173.398 14.7311 174.11 14.7543C174.617 14.7323 175.123 14.8204 175.594 15.0125C176.064 15.2045 176.489 15.4961 176.838 15.8677C177.188 16.2392 177.454 16.682 177.62 17.1663C177.785 17.6505 177.846 18.1649 177.798 18.6749V25.1763H176.391V18.9555C176.391 17.2349 175.637 15.989 173.874 15.989C173.464 15.9813 173.057 16.0626 172.681 16.2272C172.305 16.3918 171.968 16.636 171.694 16.9433C171.42 17.2506 171.214 17.6137 171.09 18.0082C170.967 18.4027 170.929 18.8193 170.979 19.2299L170.974 25.1776Z" fill="black"/>
<path d="M183.008 25.2121L178.785 15.0298H180.313L183.742 23.5719L187.211 15.0298H188.698L182.711 29.3675H181.284L183.008 25.2121Z" fill="black"/>
</g>
<path d="M4.29691 74C4.07291 74 3.96091 73.888 3.96091 73.664V68.704C3.96091 68.48 4.07291 68.368 4.29691 68.368C4.52091 68.368 4.63291 68.48 4.63291 68.704V70.372C4.77157 70.2307 4.94491 70.124 5.15291 70.052C5.36091 69.98 5.60357 69.944 5.88091 69.944H6.18491C6.71824 69.944 7.11291 70.072 7.36891 70.328C7.62491 70.584 7.75291 70.9787 7.75291 71.512V72.432C7.75291 72.9627 7.62491 73.3573 7.36891 73.616C7.11291 73.872 6.71824 74 6.18491 74H5.88091C5.60357 74 5.36091 73.964 5.15291 73.892C4.94491 73.82 4.77157 73.7147 4.63291 73.576V73.664C4.63291 73.888 4.52091 74 4.29691 74ZM5.88091 73.328H6.18491C6.53424 73.328 6.77024 73.2653 6.89291 73.14C7.01824 73.012 7.08091 72.776 7.08091 72.432V71.512C7.08091 71.1627 7.01691 70.9267 6.88891 70.804C6.76357 70.6787 6.52891 70.616 6.18491 70.616H5.88091C5.52891 70.616 5.23291 70.6613 4.99291 70.752C4.75291 70.84 4.63291 70.9787 4.63291 71.168V72.776C4.63291 72.9627 4.75291 73.1013 4.99291 73.192C5.23291 73.2827 5.52891 73.328 5.88091 73.328ZM10.2985 75.6C9.91186 75.6 9.62253 75.5027 9.43053 75.308C9.2412 75.116 9.14653 74.8267 9.14653 74.44C9.14653 74.216 9.25853 74.104 9.48253 74.104C9.70653 74.104 9.81853 74.216 9.81853 74.44C9.81853 74.64 9.84786 74.7707 9.90653 74.832C9.96786 74.896 10.0985 74.928 10.2985 74.928H11.8505C12.0479 74.928 12.1772 74.896 12.2385 74.832C12.2999 74.7707 12.3305 74.64 12.3305 74.44V73.424C12.1705 73.664 11.9839 73.82 11.7705 73.892C11.5599 73.964 11.3305 74 11.0825 74H10.6905C10.1625 74 9.7732 73.8747 9.52253 73.624C9.27186 73.3733 9.14653 72.9867 9.14653 72.464V70.28C9.14653 70.056 9.25853 69.944 9.48253 69.944C9.70653 69.944 9.81853 70.056 9.81853 70.28V72.464C9.81853 72.8 9.87853 73.028 9.99853 73.148C10.1212 73.268 10.3519 73.328 10.6905 73.328H11.0825C11.5199 73.328 11.8372 73.2573 12.0345 73.116C12.2319 72.972 12.3305 72.7547 12.3305 72.464V70.28C12.3305 70.056 12.4425 69.944 12.6665 69.944C12.8905 69.944 13.0025 70.056 13.0025 70.28V74.44C13.0025 74.8267 12.9065 75.116 12.7145 75.308C12.5225 75.5027 12.2345 75.6 11.8505 75.6H10.2985ZM18.5557 74C18.025 74 17.6303 73.872 17.3717 73.616C17.1157 73.3573 16.9877 72.9627 16.9877 72.432V71.504C16.9877 70.9707 17.1143 70.576 17.3677 70.32C17.6237 70.064 18.0197 69.9387 18.5557 69.944H19.2117C19.609 69.944 19.921 70.0107 20.1477 70.144C20.377 70.2773 20.5237 70.4827 20.5877 70.76C20.6117 70.872 20.5917 70.9587 20.5277 71.02C20.4663 71.0813 20.377 71.112 20.2597 71.112C20.1557 71.112 20.0797 71.0853 20.0317 71.032C19.9837 70.9787 19.9397 70.904 19.8997 70.808C19.8597 70.736 19.7863 70.6867 19.6797 70.66C19.573 70.6307 19.417 70.616 19.2117 70.616H18.5557C18.2117 70.6107 17.9757 70.6707 17.8477 70.796C17.7223 70.9187 17.6597 71.1547 17.6597 71.504V72.432C17.6597 72.7787 17.7223 73.0147 17.8477 73.14C17.9757 73.2653 18.2117 73.328 18.5557 73.328H19.2117C19.417 73.328 19.573 73.3147 19.6797 73.288C19.7863 73.2587 19.8597 73.208 19.8997 73.136C19.9397 73.0347 19.9837 72.9587 20.0317 72.908C20.0823 72.8573 20.161 72.832 20.2677 72.832C20.3797 72.832 20.4663 72.8627 20.5277 72.924C20.5917 72.9853 20.6117 73.072 20.5877 73.184C20.5237 73.4587 20.377 73.664 20.1477 73.8C19.921 73.9333 19.609 74 19.2117 74H18.5557ZM23.3603 74C22.8297 74 22.435 73.872 22.1763 73.616C21.9203 73.36 21.7923 72.968 21.7923 72.44V71.512C21.7923 70.976 21.9203 70.5813 22.1763 70.328C22.435 70.072 22.8297 69.944 23.3603 69.944H24.0163C24.5497 69.944 24.9443 70.072 25.2003 70.328C25.4563 70.584 25.5843 70.9787 25.5843 71.512V72.432C25.5843 72.9627 25.4563 73.3573 25.2003 73.616C24.9443 73.872 24.5497 74 24.0163 74H23.3603ZM22.4643 72.44C22.4643 72.784 22.527 73.0187 22.6523 73.144C22.7777 73.2667 23.0137 73.328 23.3603 73.328H24.0163C24.3657 73.328 24.6017 73.2653 24.7243 73.14C24.8497 73.0147 24.9123 72.7787 24.9123 72.432V71.512C24.9123 71.1627 24.8497 70.9267 24.7243 70.804C24.6017 70.6787 24.3657 70.616 24.0163 70.616H23.3603C23.1283 70.616 22.947 70.6427 22.8163 70.696C22.6883 70.7467 22.5977 70.8373 22.5443 70.968C22.491 71.096 22.4643 71.2773 22.4643 71.512V72.44ZM28.4307 74C27.9 74 27.5053 73.872 27.2467 73.616C26.9907 73.3573 26.8627 72.9627 26.8627 72.432V71.512C26.8627 70.9787 26.9907 70.584 27.2467 70.328C27.5053 70.072 27.9 69.944 28.4307 69.944H29.9827V68.704C29.9827 68.48 30.0947 68.368 30.3187 68.368C30.5427 68.368 30.6547 68.48 30.6547 68.704V73.664C30.6547 73.888 30.5427 74 30.3187 74C30.0947 74 29.9827 73.888 29.9827 73.664V73.608C29.8573 73.736 29.6933 73.8333 29.4907 73.9C29.288 73.9667 29.036 74 28.7347 74H28.4307ZM28.4307 73.328H28.7347C29.0867 73.328 29.3827 73.2827 29.6227 73.192C29.8627 73.1013 29.9827 72.9627 29.9827 72.776V70.616H28.4307C28.084 70.616 27.848 70.68 27.7227 70.808C27.5973 70.9333 27.5347 71.168 27.5347 71.512V72.432C27.5347 72.7787 27.5973 73.0147 27.7227 73.14C27.8507 73.2653 28.0867 73.328 28.4307 73.328ZM32.7222 72.248V72.44C32.7222 72.784 32.7848 73.0187 32.9102 73.144C33.0355 73.2667 33.2715 73.328 33.6182 73.328H34.2742C34.5462 73.328 34.7475 73.3027 34.8782 73.252C35.0088 73.2013 35.0955 73.112 35.1382 72.984C35.1675 72.8827 35.2075 72.8053 35.2582 72.752C35.3115 72.6987 35.3915 72.672 35.4982 72.672C35.6102 72.672 35.6955 72.7013 35.7542 72.76C35.8128 72.8187 35.8315 72.904 35.8102 73.016C35.7515 73.3467 35.5942 73.5933 35.3382 73.756C35.0822 73.9187 34.7275 74 34.2742 74H33.6182C33.0875 74 32.6928 73.872 32.4342 73.616C32.1782 73.36 32.0502 72.968 32.0502 72.44V71.512C32.0502 70.9707 32.1782 70.5733 32.4342 70.32C32.6928 70.064 33.0875 69.9387 33.6182 69.944H34.2742C34.8075 69.944 35.2022 70.072 35.4582 70.328C35.7142 70.5813 35.8422 70.976 35.8422 71.512V71.912C35.8422 72.136 35.7302 72.248 35.5062 72.248H32.7222ZM33.6182 70.616C33.2715 70.6107 33.0355 70.6707 32.9102 70.796C32.7848 70.9213 32.7222 71.16 32.7222 71.512V71.576H35.1702V71.512C35.1702 71.1627 35.1075 70.9267 34.9822 70.804C34.8595 70.6787 34.6235 70.616 34.2742 70.616H33.6182ZM40.1641 74C39.9401 74 39.8281 73.888 39.8281 73.664V70.28C39.8281 70.056 39.9401 69.944 40.1641 69.944C40.3881 69.944 40.5001 70.056 40.5001 70.28V70.592C40.6574 70.3787 40.8574 70.2173 41.1001 70.108C41.3454 69.9987 41.6254 69.944 41.9401 69.944C42.1641 69.944 42.2761 70.056 42.2761 70.28C42.2761 70.504 42.1641 70.616 41.9401 70.616C41.4788 70.616 41.1268 70.7013 40.8841 70.872C40.6414 71.0427 40.5134 71.268 40.5001 71.548V73.664C40.5001 73.888 40.3881 74 40.1641 74ZM43.5659 72.248V72.44C43.5659 72.784 43.6286 73.0187 43.7539 73.144C43.8792 73.2667 44.1152 73.328 44.4619 73.328H45.1179C45.3899 73.328 45.5912 73.3027 45.7219 73.252C45.8526 73.2013 45.9392 73.112 45.9819 72.984C46.0112 72.8827 46.0512 72.8053 46.1019 72.752C46.1552 72.6987 46.2352 72.672 46.3419 72.672C46.4539 72.672 46.5392 72.7013 46.5979 72.76C46.6566 72.8187 46.6752 72.904 46.6539 73.016C46.5952 73.3467 46.4379 73.5933 46.1819 73.756C45.9259 73.9187 45.5712 74 45.1179 74H44.4619C43.9312 74 43.5366 73.872 43.2779 73.616C43.0219 73.36 42.8939 72.968 42.8939 72.44V71.512C42.8939 70.9707 43.0219 70.5733 43.2779 70.32C43.5366 70.064 43.9312 69.9387 44.4619 69.944H45.1179C45.6512 69.944 46.0459 70.072 46.3019 70.328C46.5579 70.5813 46.6859 70.976 46.6859 71.512V71.912C46.6859 72.136 46.5739 72.248 46.3499 72.248H43.5659ZM44.4619 70.616C44.1152 70.6107 43.8792 70.6707 43.7539 70.796C43.6286 70.9213 43.5659 71.16 43.5659 71.512V71.576H46.0139V71.512C46.0139 71.1627 45.9512 70.9267 45.8259 70.804C45.7032 70.6787 45.4672 70.616 45.1179 70.616H44.4619ZM49.5322 74C49.0016 74 48.6069 73.872 48.3482 73.616C48.0922 73.3573 47.9642 72.9627 47.9642 72.432V71.504C47.9642 70.9707 48.0909 70.576 48.3442 70.32C48.6002 70.064 48.9962 69.9387 49.5322 69.944H50.1882C50.5856 69.944 50.8976 70.0107 51.1242 70.144C51.3536 70.2773 51.5002 70.4827 51.5642 70.76C51.5882 70.872 51.5682 70.9587 51.5042 71.02C51.4429 71.0813 51.3536 71.112 51.2362 71.112C51.1322 71.112 51.0562 71.0853 51.0082 71.032C50.9602 70.9787 50.9162 70.904 50.8762 70.808C50.8362 70.736 50.7629 70.6867 50.6562 70.66C50.5496 70.6307 50.3936 70.616 50.1882 70.616H49.5322C49.1882 70.6107 48.9522 70.6707 48.8242 70.796C48.6989 70.9187 48.6362 71.1547 48.6362 71.504V72.432C48.6362 72.7787 48.6989 73.0147 48.8242 73.14C48.9522 73.2653 49.1882 73.328 49.5322 73.328H50.1882C50.3936 73.328 50.5496 73.3147 50.6562 73.288C50.7629 73.2587 50.8362 73.208 50.8762 73.136C50.9162 73.0347 50.9602 72.9587 51.0082 72.908C51.0589 72.8573 51.1376 72.832 51.2442 72.832C51.3562 72.832 51.4429 72.8627 51.5042 72.924C51.5682 72.9853 51.5882 73.072 51.5642 73.184C51.5002 73.4587 51.3536 73.664 51.1242 73.8C50.8976 73.9333 50.5856 74 50.1882 74H49.5322ZM53.4409 72.248V72.44C53.4409 72.784 53.5036 73.0187 53.6289 73.144C53.7542 73.2667 53.9902 73.328 54.3369 73.328H54.9929C55.2649 73.328 55.4662 73.3027 55.5969 73.252C55.7276 73.2013 55.8142 73.112 55.8569 72.984C55.8862 72.8827 55.9262 72.8053 55.9769 72.752C56.0302 72.6987 56.1102 72.672 56.2169 72.672C56.3289 72.672 56.4142 72.7013 56.4729 72.76C56.5316 72.8187 56.5502 72.904 56.5289 73.016C56.4702 73.3467 56.3129 73.5933 56.0569 73.756C55.8009 73.9187 55.4462 74 54.9929 74H54.3369C53.8062 74 53.4116 73.872 53.1529 73.616C52.8969 73.36 52.7689 72.968 52.7689 72.44V71.512C52.7689 70.9707 52.8969 70.5733 53.1529 70.32C53.4116 70.064 53.8062 69.9387 54.3369 69.944H54.9929C55.5262 69.944 55.9209 70.072 56.1769 70.328C56.4329 70.5813 56.5609 70.976 56.5609 71.512V71.912C56.5609 72.136 56.4489 72.248 56.2249 72.248H53.4409ZM54.3369 70.616C53.9902 70.6107 53.7542 70.6707 53.6289 70.796C53.5036 70.9213 53.4409 71.16 53.4409 71.512V71.576H55.8889V71.512C55.8889 71.1627 55.8262 70.9267 55.7009 70.804C55.5782 70.6787 55.3422 70.616 54.9929 70.616H54.3369ZM58.2552 69.288C58.0019 69.288 57.8752 69.16 57.8752 68.904V68.668C57.8752 68.4173 58.0019 68.292 58.2552 68.292H58.4872C58.7299 68.292 58.8512 68.4173 58.8512 68.668V68.904C58.8512 69.16 58.7299 69.288 58.4872 69.288H58.2552ZM58.3672 74C58.1432 74 58.0312 73.888 58.0312 73.664V70.28C58.0312 70.056 58.1432 69.944 58.3672 69.944C58.5912 69.944 58.7032 70.056 58.7032 70.28V73.664C58.7032 73.888 58.5912 74 58.3672 74ZM60.7032 75.6C60.4792 75.6 60.3672 75.488 60.3672 75.264V70.28C60.3672 70.056 60.4792 69.944 60.7032 69.944C60.9272 69.944 61.0392 70.056 61.0392 70.28V70.38C61.1832 70.236 61.3605 70.128 61.5712 70.056C61.7845 69.9813 62.0232 69.944 62.2872 69.944H62.5912C63.1245 69.944 63.5192 70.072 63.7752 70.328C64.0312 70.584 64.1592 70.9787 64.1592 71.512V72.432C64.1592 72.9627 64.0312 73.3573 63.7752 73.616C63.5192 73.872 63.1245 74 62.5912 74H61.0392V75.264C61.0392 75.488 60.9272 75.6 60.7032 75.6ZM61.0392 73.328H62.5912C62.9405 73.328 63.1765 73.2653 63.2992 73.14C63.4245 73.0147 63.4872 72.7787 63.4872 72.432V71.512C63.4872 71.1627 63.4245 70.9267 63.2992 70.804C63.1765 70.6787 62.9405 70.616 62.5912 70.616H62.2872C61.9538 70.616 61.6658 70.656 61.4232 70.736C61.1805 70.816 61.0525 70.9427 61.0392 71.116V73.328ZM66.1128 72.248V72.44C66.1128 72.784 66.1754 73.0187 66.3008 73.144C66.4261 73.2667 66.6621 73.328 67.0088 73.328H67.6648C67.9368 73.328 68.1381 73.3027 68.2688 73.252C68.3994 73.2013 68.4861 73.112 68.5288 72.984C68.5581 72.8827 68.5981 72.8053 68.6488 72.752C68.7021 72.6987 68.7821 72.672 68.8888 72.672C69.0008 72.672 69.0861 72.7013 69.1448 72.76C69.2034 72.8187 69.2221 72.904 69.2008 73.016C69.1421 73.3467 68.9848 73.5933 68.7288 73.756C68.4728 73.9187 68.1181 74 67.6648 74H67.0088C66.4781 74 66.0834 73.872 65.8248 73.616C65.5688 73.36 65.4408 72.968 65.4408 72.44V71.512C65.4408 70.9707 65.5688 70.5733 65.8248 70.32C66.0834 70.064 66.4781 69.9387 67.0088 69.944H67.6648C68.1981 69.944 68.5928 70.072 68.8488 70.328C69.1048 70.5813 69.2328 70.976 69.2328 71.512V71.912C69.2328 72.136 69.1208 72.248 68.8968 72.248H66.1128ZM67.0088 70.616C66.6621 70.6107 66.4261 70.6707 66.3008 70.796C66.1754 70.9213 66.1128 71.16 66.1128 71.512V71.576H68.5608V71.512C68.5608 71.1627 68.4981 70.9267 68.3728 70.804C68.2501 70.6787 68.0141 70.616 67.6648 70.616H67.0088Z" fill="#ADA1A1"/>
<path d="M4.19515 61.2936C3.39838 61.2936 3 60.8952 3 60.0985V43.1957C3 42.3989 3.39838 42.0005 4.19515 42.0005H11.6221C13.1303 42.0005 14.2875 42.3989 15.0938 43.1957C15.9095 43.9924 16.3174 45.1307 16.3174 46.6104V47.3787C16.3174 48.6592 15.9142 49.6504 15.108 50.3523C16.6162 51.1965 17.3702 52.7379 17.3702 54.9764V55.9439C17.3702 57.6892 16.9055 59.0172 15.9759 59.9277C15.0558 60.8383 13.7279 61.2936 11.9921 61.2936H4.19515ZM5.3903 58.9033H11.9921C13.0639 58.9033 13.8275 58.6757 14.2828 58.2204C14.7476 57.7556 14.9799 56.9968 14.9799 55.9439V54.9764C14.9799 53.9235 14.757 53.1742 14.3112 52.7284C13.8654 52.2731 13.0924 52.0455 11.9921 52.0455H5.3903V58.9033ZM5.3903 49.6552C5.3903 49.6552 6.68887 49.6552 7.52094 49.6552C8.353 49.6552 9.65157 49.6552 9.65157 49.6552H12.1344C12.8268 49.6552 13.2963 49.4417 13.5429 49.0149C13.799 48.5881 13.9271 48.0427 13.9271 47.3787V46.6104C13.9271 45.7852 13.7563 45.2113 13.4149 44.8888C13.0734 44.5568 12.4758 44.3908 11.6221 44.3908H5.3903V49.6552Z" fill="#ADA1A1"/>
<path d="M31.8785 61.2936C31.4707 61.2936 31.1671 61.1988 30.9679 61.0091C30.7782 60.8099 30.6834 60.5064 30.6834 60.0985V43.2241C30.6834 42.8068 30.7782 42.5032 30.9679 42.3135C31.1671 42.1238 31.4707 42.029 31.8785 42.029C32.2959 42.029 32.5994 42.1238 32.7891 42.3135C32.9788 42.5032 33.0737 42.8068 33.0737 43.2241V60.0985C33.0737 60.5064 32.9788 60.8099 32.7891 61.0091C32.5994 61.1988 32.2959 61.2936 31.8785 61.2936Z" fill="#ADA1A1"/>
<path d="M48.7242 61.2936C47.9275 61.2936 47.5291 60.8952 47.5291 60.0985V43.1957C47.5291 42.3989 47.9275 42.0005 48.7242 42.0005H56.1512C57.6594 42.0005 58.8166 42.3989 59.6228 43.1957C60.4386 43.9924 60.8464 45.1307 60.8464 46.6104V47.3787C60.8464 48.6592 60.4433 49.6504 59.6371 50.3523C61.1452 51.1965 61.8993 52.7379 61.8993 54.9764V55.9439C61.8993 57.6892 61.4345 59.0172 60.505 59.9277C59.5849 60.8383 58.257 61.2936 56.5212 61.2936H48.7242ZM49.9194 58.9033H56.5212C57.593 58.9033 58.3566 58.6757 58.8118 58.2204C59.2766 57.7556 59.509 56.9968 59.509 55.9439V54.9764C59.509 53.9235 59.2861 53.1742 58.8403 52.7284C58.3945 52.2731 57.6214 52.0455 56.5212 52.0455H49.9194V58.9033ZM49.9194 49.6552H56.6634C57.3559 49.6552 57.8254 49.4417 58.072 49.0149C58.3281 48.5881 58.4562 48.0427 58.4562 47.3787V46.6104C58.4562 45.7852 58.2854 45.2113 57.9439 44.8888C57.6025 44.5568 57.0049 44.3908 56.1512 44.3908H49.9194V49.6552Z" fill="#ADA1A1"/>
<path d="M80.9037 61.2936C78.7315 61.2936 77.1238 60.7767 76.0804 59.7428C75.0465 58.6994 74.5295 57.0916 74.5295 54.9195V48.3462C74.5295 46.1551 75.0512 44.5473 76.0946 43.5229C77.138 42.489 78.741 41.9815 80.9037 42.0005H84.3184C86.5 42.0005 88.1078 42.5175 89.1417 43.5514C90.1756 44.5853 90.6925 46.193 90.6925 48.3746V54.9195C90.6925 57.0916 90.1756 58.6994 89.1417 59.7428C88.1078 60.7767 86.5 61.2936 84.3184 61.2936H80.9037ZM80.9037 58.9033H84.3184C85.3333 58.9033 86.1301 58.7848 86.7087 58.5476C87.2873 58.301 87.6951 57.8884 87.9323 57.3098C88.1789 56.7312 88.3022 55.9344 88.3022 54.9195V48.3746C88.3022 47.3692 88.1789 46.5772 87.9323 45.9986C87.6951 45.42 87.2873 45.0074 86.7087 44.7607C86.1301 44.5141 85.3333 44.3908 84.3184 44.3908H80.9037C79.8982 44.3813 79.1062 44.4951 78.5276 44.7323C77.949 44.9694 77.5364 45.3773 77.2898 45.9559C77.0431 46.5345 76.9198 47.3313 76.9198 48.3462V54.9195C76.9198 55.9344 77.0384 56.7312 77.2755 57.3098C77.5221 57.8884 77.9348 58.301 78.5134 58.5476C79.092 58.7848 79.8887 58.9033 80.9037 58.9033Z" fill="#ADA1A1"/>
<path d="M109.089 61.2936C108.691 61.2936 108.392 61.194 108.193 60.9948C107.994 60.7957 107.894 60.4969 107.894 60.0985V44.4193H102.374C101.975 44.4193 101.676 44.3197 101.477 44.1205C101.278 43.9213 101.179 43.6225 101.179 43.2241C101.179 42.8257 101.278 42.5269 101.477 42.3278C101.676 42.1286 101.975 42.029 102.374 42.029H115.805C116.203 42.029 116.502 42.1286 116.701 42.3278C116.9 42.5269 117 42.8257 117 43.2241C117 43.6225 116.9 43.9213 116.701 44.1205C116.502 44.3197 116.203 44.4193 115.805 44.4193H110.284V60.0985C110.284 60.4779 110.18 60.7719 109.971 60.9806C109.772 61.1893 109.478 61.2936 109.089 61.2936Z" fill="#ADA1A1"/>
<path d="M8.78011 50.8925C8.78011 51.9975 7.88432 52.8933 6.7793 52.8933C5.67429 52.8933 4.7785 51.9975 4.7785 50.8925C4.7785 49.7875 5.67429 48.8917 6.7793 48.8917C7.88432 48.8917 8.78011 49.7875 8.78011 50.8925Z" fill="#ADA1A1"/>
<path d="M53.4648 50.8925C53.4648 51.9975 52.569 52.8933 51.464 52.8933C50.359 52.8933 49.4632 51.9975 49.4632 50.8925C49.4632 49.7875 50.359 48.8917 51.464 48.8917C52.569 48.8917 53.4648 49.7875 53.4648 50.8925Z" fill="#ADA1A1"/>
<defs>
<clipPath id="clip0_570_1948">
<rect width="188.698" height="31.0413" fill="white"/>
</clipPath>
</defs>
</svg>
