<svg width="135" height="46" viewBox="0 0 135 46" fill="none" xmlns="http://www.w3.org/2000/svg">
<path d="M2.336 44.3955C2.112 44.3955 2 44.2835 2 44.0595V39.0995C2 38.8755 2.112 38.7635 2.336 38.7635C2.56 38.7635 2.672 38.8755 2.672 39.0995V40.7675C2.81067 40.6262 2.984 40.5195 3.192 40.4475C3.4 40.3755 3.64267 40.3395 3.92 40.3395H4.224C4.75733 40.3395 5.152 40.4675 5.408 40.7235C5.664 40.9795 5.792 41.3742 5.792 41.9075V42.8275C5.792 43.3582 5.664 43.7528 5.408 44.0115C5.152 44.2675 4.75733 44.3955 4.224 44.3955H3.92C3.64267 44.3955 3.4 44.3595 3.192 44.2875C2.984 44.2155 2.81067 44.1102 2.672 43.9715V44.0595C2.672 44.2835 2.56 44.3955 2.336 44.3955ZM3.92 43.7235H4.224C4.57333 43.7235 4.80933 43.6608 4.932 43.5355C5.05733 43.4075 5.12 43.1715 5.12 42.8275V41.9075C5.12 41.5582 5.056 41.3222 4.928 41.1995C4.80267 41.0742 4.568 41.0115 4.224 41.0115H3.92C3.568 41.0115 3.272 41.0568 3.032 41.1475C2.792 41.2355 2.672 41.3742 2.672 41.5635V43.1715C2.672 43.3582 2.792 43.4968 3.032 43.5875C3.272 43.6782 3.568 43.7235 3.92 43.7235Z" fill="#ADA1A1"/>
<path d="M8.33763 45.9955C7.95096 45.9955 7.66163 45.8982 7.46963 45.7035C7.28029 45.5115 7.18563 45.2222 7.18563 44.8355C7.18563 44.6115 7.29763 44.4995 7.52163 44.4995C7.74563 44.4995 7.85763 44.6115 7.85763 44.8355C7.85763 45.0355 7.88696 45.1662 7.94563 45.2275C8.00696 45.2915 8.13763 45.3235 8.33763 45.3235H9.88963C10.087 45.3235 10.2163 45.2915 10.2776 45.2275C10.339 45.1662 10.3696 45.0355 10.3696 44.8355V43.8195C10.2096 44.0595 10.023 44.2155 9.80963 44.2875C9.59896 44.3595 9.36962 44.3955 9.12162 44.3955H8.72962C8.20162 44.3955 7.81229 44.2702 7.56163 44.0195C7.31096 43.7688 7.18563 43.3822 7.18563 42.8595V40.6755C7.18563 40.4515 7.29763 40.3395 7.52163 40.3395C7.74563 40.3395 7.85763 40.4515 7.85763 40.6755V42.8595C7.85763 43.1955 7.91763 43.4235 8.03763 43.5435C8.16029 43.6635 8.39096 43.7235 8.72962 43.7235H9.12162C9.55896 43.7235 9.87629 43.6528 10.0736 43.5115C10.271 43.3675 10.3696 43.1502 10.3696 42.8595V40.6755C10.3696 40.4515 10.4816 40.3395 10.7056 40.3395C10.9296 40.3395 11.0416 40.4515 11.0416 40.6755V44.8355C11.0416 45.2222 10.9456 45.5115 10.7536 45.7035C10.5616 45.8982 10.2736 45.9955 9.88963 45.9955H8.33763Z" fill="#ADA1A1"/>
<path d="M16.5948 44.3955C16.0641 44.3955 15.6694 44.2675 15.4108 44.0115C15.1548 43.7528 15.0267 43.3582 15.0267 42.8275V41.8995C15.0267 41.3662 15.1534 40.9715 15.4068 40.7155C15.6628 40.4595 16.0588 40.3342 16.5948 40.3395H17.2508C17.6481 40.3395 17.9601 40.4062 18.1867 40.5395C18.4161 40.6728 18.5628 40.8782 18.6268 41.1555C18.6508 41.2675 18.6307 41.3542 18.5667 41.4155C18.5054 41.4768 18.4161 41.5075 18.2988 41.5075C18.1948 41.5075 18.1188 41.4808 18.0708 41.4275C18.0228 41.3742 17.9788 41.2995 17.9388 41.2035C17.8988 41.1315 17.8254 41.0822 17.7188 41.0555C17.6121 41.0262 17.4561 41.0115 17.2508 41.0115H16.5948C16.2508 41.0062 16.0148 41.0662 15.8868 41.1915C15.7614 41.3142 15.6988 41.5502 15.6988 41.8995V42.8275C15.6988 43.1742 15.7614 43.4102 15.8868 43.5355C16.0148 43.6608 16.2508 43.7235 16.5948 43.7235H17.2508C17.4561 43.7235 17.6121 43.7102 17.7188 43.6835C17.8254 43.6542 17.8988 43.6035 17.9388 43.5315C17.9788 43.4302 18.0228 43.3542 18.0708 43.3035C18.1214 43.2528 18.2001 43.2275 18.3068 43.2275C18.4188 43.2275 18.5054 43.2582 18.5667 43.3195C18.6307 43.3808 18.6508 43.4675 18.6268 43.5795C18.5628 43.8542 18.4161 44.0595 18.1867 44.1955C17.9601 44.3288 17.6481 44.3955 17.2508 44.3955H16.5948Z" fill="#ADA1A1"/>
<path d="M21.3994 44.3955C20.8688 44.3955 20.4741 44.2675 20.2154 44.0115C19.9594 43.7555 19.8314 43.3635 19.8314 42.8355V41.9075C19.8314 41.3715 19.9594 40.9768 20.2154 40.7235C20.4741 40.4675 20.8688 40.3395 21.3994 40.3395H22.0554C22.5888 40.3395 22.9834 40.4675 23.2394 40.7235C23.4954 40.9795 23.6234 41.3742 23.6234 41.9075V42.8275C23.6234 43.3582 23.4954 43.7528 23.2394 44.0115C22.9834 44.2675 22.5888 44.3955 22.0554 44.3955H21.3994ZM20.5034 42.8355C20.5034 43.1795 20.5661 43.4142 20.6914 43.5395C20.8168 43.6622 21.0528 43.7235 21.3994 43.7235H22.0554C22.4048 43.7235 22.6408 43.6608 22.7634 43.5355C22.8888 43.4102 22.9514 43.1742 22.9514 42.8275V41.9075C22.9514 41.5582 22.8888 41.3222 22.7634 41.1995C22.6408 41.0742 22.4048 41.0115 22.0554 41.0115H21.3994C21.1674 41.0115 20.9861 41.0382 20.8554 41.0915C20.7274 41.1422 20.6368 41.2328 20.5834 41.3635C20.5301 41.4915 20.5034 41.6728 20.5034 41.9075V42.8355Z" fill="#ADA1A1"/>
<path d="M26.4697 44.3955C25.9391 44.3955 25.5444 44.2675 25.2858 44.0115C25.0298 43.7528 24.9017 43.3582 24.9017 42.8275V41.9075C24.9017 41.3742 25.0298 40.9795 25.2858 40.7235C25.5444 40.4675 25.9391 40.3395 26.4697 40.3395H28.0217V39.0995C28.0217 38.8755 28.1337 38.7635 28.3577 38.7635C28.5817 38.7635 28.6937 38.8755 28.6937 39.0995V44.0595C28.6937 44.2835 28.5817 44.3955 28.3577 44.3955C28.1337 44.3955 28.0217 44.2835 28.0217 44.0595V44.0035C27.8964 44.1315 27.7324 44.2288 27.5298 44.2955C27.3271 44.3622 27.0751 44.3955 26.7738 44.3955H26.4697ZM26.4697 43.7235H26.7738C27.1258 43.7235 27.4218 43.6782 27.6618 43.5875C27.9018 43.4968 28.0217 43.3582 28.0217 43.1715V41.0115H26.4697C26.1231 41.0115 25.8871 41.0755 25.7617 41.2035C25.6364 41.3288 25.5737 41.5635 25.5737 41.9075V42.8275C25.5737 43.1742 25.6364 43.4102 25.7617 43.5355C25.8897 43.6608 26.1257 43.7235 26.4697 43.7235Z" fill="#ADA1A1"/>
<path d="M30.7612 42.6435V42.8355C30.7612 43.1795 30.8239 43.4142 30.9492 43.5395C31.0746 43.6622 31.3106 43.7235 31.6572 43.7235H32.3132C32.5852 43.7235 32.7866 43.6982 32.9172 43.6475C33.0479 43.5968 33.1346 43.5075 33.1772 43.3795C33.2066 43.2782 33.2466 43.2008 33.2972 43.1475C33.3506 43.0942 33.4306 43.0675 33.5373 43.0675C33.6493 43.0675 33.7346 43.0968 33.7933 43.1555C33.8519 43.2142 33.8706 43.2995 33.8493 43.4115C33.7906 43.7422 33.6333 43.9888 33.3773 44.1515C33.1213 44.3142 32.7666 44.3955 32.3132 44.3955H31.6572C31.1266 44.3955 30.7319 44.2675 30.4732 44.0115C30.2172 43.7555 30.0892 43.3635 30.0892 42.8355V41.9075C30.0892 41.3662 30.2172 40.9688 30.4732 40.7155C30.7319 40.4595 31.1266 40.3342 31.6572 40.3395H32.3132C32.8466 40.3395 33.2412 40.4675 33.4972 40.7235C33.7532 40.9768 33.8812 41.3715 33.8812 41.9075V42.3075C33.8812 42.5315 33.7692 42.6435 33.5452 42.6435H30.7612ZM31.6572 41.0115C31.3106 41.0062 31.0746 41.0662 30.9492 41.1915C30.8239 41.3168 30.7612 41.5555 30.7612 41.9075V41.9715H33.2092V41.9075C33.2092 41.5582 33.1466 41.3222 33.0212 41.1995C32.8986 41.0742 32.6626 41.0115 32.3132 41.0115H31.6572Z" fill="#ADA1A1"/>
<path d="M38.2032 44.3955C37.9792 44.3955 37.8672 44.2835 37.8672 44.0595V40.6755C37.8672 40.4515 37.9792 40.3395 38.2032 40.3395C38.4272 40.3395 38.5392 40.4515 38.5392 40.6755V40.9875C38.6965 40.7742 38.8965 40.6128 39.1392 40.5035C39.3845 40.3942 39.6645 40.3395 39.9792 40.3395C40.2032 40.3395 40.3152 40.4515 40.3152 40.6755C40.3152 40.8995 40.2032 41.0115 39.9792 41.0115C39.5179 41.0115 39.1659 41.0968 38.9232 41.2675C38.6805 41.4382 38.5525 41.6635 38.5392 41.9435V44.0595C38.5392 44.2835 38.4272 44.3955 38.2032 44.3955Z" fill="#ADA1A1"/>
<path d="M41.605 42.6435V42.8355C41.605 43.1795 41.6677 43.4142 41.793 43.5395C41.9183 43.6622 42.1543 43.7235 42.501 43.7235H43.157C43.429 43.7235 43.6303 43.6982 43.761 43.6475C43.8917 43.5968 43.9783 43.5075 44.021 43.3795C44.0503 43.2782 44.0903 43.2008 44.141 43.1475C44.1943 43.0942 44.2743 43.0675 44.381 43.0675C44.493 43.0675 44.5783 43.0968 44.637 43.1555C44.6957 43.2142 44.7143 43.2995 44.693 43.4115C44.6343 43.7422 44.477 43.9888 44.221 44.1515C43.965 44.3142 43.6103 44.3955 43.157 44.3955H42.501C41.9703 44.3955 41.5757 44.2675 41.317 44.0115C41.061 43.7555 40.933 43.3635 40.933 42.8355V41.9075C40.933 41.3662 41.061 40.9688 41.317 40.7155C41.5757 40.4595 41.9703 40.3342 42.501 40.3395H43.157C43.6903 40.3395 44.085 40.4675 44.341 40.7235C44.597 40.9768 44.725 41.3715 44.725 41.9075V42.3075C44.725 42.5315 44.613 42.6435 44.389 42.6435H41.605ZM42.501 41.0115C42.1543 41.0062 41.9183 41.0662 41.793 41.1915C41.6677 41.3168 41.605 41.5555 41.605 41.9075V41.9715H44.053V41.9075C44.053 41.5582 43.9903 41.3222 43.865 41.1995C43.7423 41.0742 43.5063 41.0115 43.157 41.0115H42.501Z" fill="#ADA1A1"/>
<path d="M47.5713 44.3955C47.0406 44.3955 46.646 44.2675 46.3873 44.0115C46.1313 43.7528 46.0033 43.3582 46.0033 42.8275V41.8995C46.0033 41.3662 46.13 40.9715 46.3833 40.7155C46.6393 40.4595 47.0353 40.3342 47.5713 40.3395H48.2273C48.6246 40.3395 48.9366 40.4062 49.1633 40.5395C49.3926 40.6728 49.5393 40.8782 49.6033 41.1555C49.6273 41.2675 49.6073 41.3542 49.5433 41.4155C49.482 41.4768 49.3926 41.5075 49.2753 41.5075C49.1713 41.5075 49.0953 41.4808 49.0473 41.4275C48.9993 41.3742 48.9553 41.2995 48.9153 41.2035C48.8753 41.1315 48.802 41.0822 48.6953 41.0555C48.5886 41.0262 48.4326 41.0115 48.2273 41.0115H47.5713C47.2273 41.0062 46.9913 41.0662 46.8633 41.1915C46.738 41.3142 46.6753 41.5502 46.6753 41.8995V42.8275C46.6753 43.1742 46.738 43.4102 46.8633 43.5355C46.9913 43.6608 47.2273 43.7235 47.5713 43.7235H48.2273C48.4326 43.7235 48.5886 43.7102 48.6953 43.6835C48.802 43.6542 48.8753 43.6035 48.9153 43.5315C48.9553 43.4302 48.9993 43.3542 49.0473 43.3035C49.098 43.2528 49.1766 43.2275 49.2833 43.2275C49.3953 43.2275 49.482 43.2582 49.5433 43.3195C49.6073 43.3808 49.6273 43.4675 49.6033 43.5795C49.5393 43.8542 49.3926 44.0595 49.1633 44.1955C48.9366 44.3288 48.6246 44.3955 48.2273 44.3955H47.5713Z" fill="#ADA1A1"/>
<path d="M51.48 42.6435V42.8355C51.48 43.1795 51.5427 43.4142 51.668 43.5395C51.7933 43.6622 52.0293 43.7235 52.376 43.7235H53.032C53.304 43.7235 53.5053 43.6982 53.636 43.6475C53.7667 43.5968 53.8533 43.5075 53.896 43.3795C53.9253 43.2782 53.9653 43.2008 54.016 43.1475C54.0693 43.0942 54.1493 43.0675 54.256 43.0675C54.368 43.0675 54.4533 43.0968 54.512 43.1555C54.5707 43.2142 54.5893 43.2995 54.568 43.4115C54.5093 43.7422 54.352 43.9888 54.096 44.1515C53.84 44.3142 53.4853 44.3955 53.032 44.3955H52.376C51.8453 44.3955 51.4507 44.2675 51.192 44.0115C50.936 43.7555 50.808 43.3635 50.808 42.8355V41.9075C50.808 41.3662 50.936 40.9688 51.192 40.7155C51.4507 40.4595 51.8453 40.3342 52.376 40.3395H53.032C53.5653 40.3395 53.96 40.4675 54.216 40.7235C54.472 40.9768 54.6 41.3715 54.6 41.9075V42.3075C54.6 42.5315 54.488 42.6435 54.264 42.6435H51.48ZM52.376 41.0115C52.0293 41.0062 51.7933 41.0662 51.668 41.1915C51.5427 41.3168 51.48 41.5555 51.48 41.9075V41.9715H53.928V41.9075C53.928 41.5582 53.8653 41.3222 53.74 41.1995C53.6173 41.0742 53.3813 41.0115 53.032 41.0115H52.376Z" fill="#ADA1A1"/>
<path d="M56.2943 39.6835C56.041 39.6835 55.9143 39.5555 55.9143 39.2995V39.0635C55.9143 38.8128 56.041 38.6875 56.2943 38.6875H56.5263C56.769 38.6875 56.8903 38.8128 56.8903 39.0635V39.2995C56.8903 39.5555 56.769 39.6835 56.5263 39.6835H56.2943ZM56.4063 44.3955C56.1823 44.3955 56.0703 44.2835 56.0703 44.0595V40.6755C56.0703 40.4515 56.1823 40.3395 56.4063 40.3395C56.6303 40.3395 56.7423 40.4515 56.7423 40.6755V44.0595C56.7423 44.2835 56.6303 44.3955 56.4063 44.3955Z" fill="#ADA1A1"/>
<path d="M58.7422 45.9955C58.5182 45.9955 58.4062 45.8835 58.4062 45.6595V40.6755C58.4062 40.4515 58.5182 40.3395 58.7422 40.3395C58.9662 40.3395 59.0783 40.4515 59.0783 40.6755V40.7755C59.2223 40.6315 59.3996 40.5235 59.6102 40.4515C59.8236 40.3768 60.0623 40.3395 60.3263 40.3395H60.6303C61.1636 40.3395 61.5583 40.4675 61.8143 40.7235C62.0703 40.9795 62.1982 41.3742 62.1982 41.9075V42.8275C62.1982 43.3582 62.0703 43.7528 61.8143 44.0115C61.5583 44.2675 61.1636 44.3955 60.6303 44.3955H59.0783V45.6595C59.0783 45.8835 58.9662 45.9955 58.7422 45.9955ZM59.0783 43.7235H60.6303C60.9796 43.7235 61.2156 43.6608 61.3383 43.5355C61.4636 43.4102 61.5262 43.1742 61.5262 42.8275V41.9075C61.5262 41.5582 61.4636 41.3222 61.3383 41.1995C61.2156 41.0742 60.9796 41.0115 60.6303 41.0115H60.3263C59.9929 41.0115 59.7049 41.0515 59.4622 41.1315C59.2196 41.2115 59.0916 41.3382 59.0783 41.5115V43.7235Z" fill="#ADA1A1"/>
<path d="M64.1519 42.6435V42.8355C64.1519 43.1795 64.2145 43.4142 64.3399 43.5395C64.4652 43.6622 64.7012 43.7235 65.0479 43.7235H65.7039C65.9759 43.7235 66.1772 43.6982 66.3079 43.6475C66.4385 43.5968 66.5252 43.5075 66.5679 43.3795C66.5972 43.2782 66.6372 43.2008 66.6879 43.1475C66.7412 43.0942 66.8212 43.0675 66.9279 43.0675C67.0399 43.0675 67.1252 43.0968 67.1839 43.1555C67.2425 43.2142 67.2612 43.2995 67.2399 43.4115C67.1812 43.7422 67.0239 43.9888 66.7679 44.1515C66.5119 44.3142 66.1572 44.3955 65.7039 44.3955H65.0479C64.5172 44.3955 64.1225 44.2675 63.8639 44.0115C63.6079 43.7555 63.4799 43.3635 63.4799 42.8355V41.9075C63.4799 41.3662 63.6079 40.9688 63.8639 40.7155C64.1225 40.4595 64.5172 40.3342 65.0479 40.3395H65.7039C66.2372 40.3395 66.6319 40.4675 66.8879 40.7235C67.1439 40.9768 67.2719 41.3715 67.2719 41.9075V42.3075C67.2719 42.5315 67.1599 42.6435 66.9359 42.6435H64.1519ZM65.0479 41.0115C64.7012 41.0062 64.4652 41.0662 64.3399 41.1915C64.2145 41.3168 64.1519 41.5555 64.1519 41.9075V41.9715H66.5999V41.9075C66.5999 41.5582 66.5372 41.3222 66.4119 41.1995C66.2892 41.0742 66.0532 41.0115 65.7039 41.0115H65.0479Z" fill="#ADA1A1"/>
<path d="M1.41531 24.8786C0.471771 24.8786 0 24.3649 0 23.3375V1.54177C0 0.514365 0.471771 0.000661121 1.41531 0.000661121H10.2104C11.9964 0.000661121 13.3668 0.514365 14.3216 1.54177C15.2876 2.56918 15.7706 4.03691 15.7706 5.94495V6.93567C15.7706 8.58686 15.2932 9.86501 14.3384 10.7701C16.1244 11.8587 17.0174 13.8462 17.0174 16.7327V17.9803C17.0174 20.2308 16.467 21.9432 15.3662 23.1174C14.2766 24.2915 12.7041 24.8786 10.6485 24.8786H1.41531ZM2.83062 21.7964H10.6485C11.9178 21.7964 12.822 21.5029 13.3612 20.9158C13.9116 20.3164 14.1868 19.338 14.1868 17.9803V16.7327C14.1868 15.3751 13.9228 14.4088 13.3949 13.834C12.8669 13.2469 11.9515 12.9533 10.6485 12.9533H2.83062V21.7964ZM2.83062 9.87112C2.83062 9.87112 4.3684 9.87112 5.35374 9.87112C6.33908 9.87112 7.87686 9.87112 7.87686 9.87112H10.817C11.637 9.87112 12.193 9.59592 12.485 9.04553C12.7883 8.49513 12.94 7.79184 12.94 6.93567V5.94495C12.94 4.88085 12.7378 4.14087 12.3334 3.72502C11.929 3.29693 11.2214 3.08289 10.2104 3.08289H2.83062V9.87112Z" fill="#ADA1A1"/>
<path d="M34.1983 24.8786C33.7153 24.8786 33.3558 24.7563 33.1199 24.5117C32.8953 24.2548 32.783 23.8635 32.783 23.3375V1.57847C32.783 1.0403 32.8953 0.648907 33.1199 0.404285C33.3558 0.159664 33.7153 0.0373538 34.1983 0.0373538C34.6925 0.0373538 35.0519 0.159664 35.2766 0.404285C35.5013 0.648907 35.6136 1.0403 35.6136 1.57847V23.3375C35.6136 23.8635 35.5013 24.2548 35.2766 24.5117C35.0519 24.7563 34.6925 24.8786 34.1983 24.8786Z" fill="#ADA1A1"/>
<path d="M54.1471 24.8786C53.2036 24.8786 52.7318 24.3649 52.7318 23.3375V1.54177C52.7318 0.514365 53.2036 0.000661121 54.1471 0.000661121H62.9422C64.7282 0.000661121 66.0986 0.514365 67.0534 1.54177C68.0194 2.56918 68.5024 4.03691 68.5024 5.94495V6.93567C68.5024 8.58686 68.025 9.86501 67.0702 10.7701C68.8562 11.8587 69.7492 13.8462 69.7492 16.7327V17.9803C69.7492 20.2308 69.1988 21.9432 68.098 23.1174C67.0084 24.2915 65.4359 24.8786 63.3803 24.8786H54.1471ZM55.5624 21.7964H63.3803C64.6496 21.7964 65.5538 21.5029 66.093 20.9158C66.6434 20.3164 66.9186 19.338 66.9186 17.9803V16.7327C66.9186 15.3751 66.6546 14.4088 66.1267 13.834C65.5987 13.2469 64.6833 12.9533 63.3803 12.9533H55.5624V21.7964ZM55.5624 9.87112H63.5488C64.3688 9.87112 64.9248 9.59592 65.2168 9.04553C65.5201 8.49513 65.6718 7.79184 65.6718 6.93567V5.94495C65.6718 4.88085 65.4696 4.14087 65.0652 3.72502C64.6608 3.29693 63.9532 3.08289 62.9422 3.08289H55.5624V9.87112Z" fill="#ADA1A1"/>
<path d="M92.2543 24.8786C89.6821 24.8786 87.7781 24.212 86.5425 22.8789C85.3182 21.5334 84.706 19.4603 84.706 16.6594V8.18324C84.706 5.35786 85.3238 3.2847 86.5594 1.96375C87.795 0.630561 89.6933 -0.0238007 92.2543 0.000661121H96.2981C98.8816 0.000661121 100.785 0.667253 102.01 2.00044C103.234 3.33362 103.846 5.40679 103.846 8.21993V16.6594C103.846 19.4603 103.234 21.5334 102.01 22.8789C100.785 24.212 98.8816 24.8786 96.2981 24.8786H92.2543ZM92.2543 21.7964H96.2981C97.5 21.7964 98.4435 21.6435 99.1287 21.3377C99.8139 21.0197 100.297 20.4877 100.578 19.7416C100.87 18.9955 101.016 17.9681 101.016 16.6594V8.21993C101.016 6.92344 100.87 5.90215 100.578 5.15605C100.297 4.40996 99.8139 3.87791 99.1287 3.5599C98.4435 3.24189 97.5 3.08289 96.2981 3.08289H92.2543C91.0637 3.07066 90.1257 3.21743 89.4406 3.52321C88.7554 3.82898 88.2668 4.35492 87.9747 5.10101C87.6827 5.84711 87.5366 6.87451 87.5366 8.18324V16.6594C87.5366 17.9681 87.677 18.9955 87.9579 19.7416C88.2499 20.4877 88.7385 21.0197 89.4237 21.3377C90.1089 21.6435 91.0524 21.7964 92.2543 21.7964Z" fill="#ADA1A1"/>
<path d="M125.632 24.8786C125.16 24.8786 124.806 24.7502 124.571 24.4933C124.335 24.2365 124.217 23.8512 124.217 23.3375V3.11958H117.679C117.208 3.11958 116.854 2.99115 116.618 2.7343C116.382 2.47745 116.264 2.09217 116.264 1.57847C116.264 1.06476 116.382 0.679485 116.618 0.422633C116.854 0.16578 117.208 0.0373538 117.679 0.0373538H133.585C134.056 0.0373538 134.41 0.16578 134.646 0.422633C134.882 0.679485 135 1.06476 135 1.57847C135 2.09217 134.882 2.47745 134.646 2.7343C134.41 2.99115 134.056 3.11958 133.585 3.11958H127.047V23.3375C127.047 23.8268 126.924 24.2059 126.677 24.475C126.441 24.7441 126.093 24.8786 125.632 24.8786Z" fill="#ADA1A1"/>
<path d="M6.84487 11.4666C6.84487 12.8915 5.78406 14.0466 4.47549 14.0466C3.16692 14.0466 2.10611 12.8915 2.10611 11.4666C2.10611 10.0417 3.16692 8.88663 4.47549 8.88663C5.78406 8.88663 6.84487 10.0417 6.84487 11.4666Z" fill="#ADA1A1"/>
<path d="M59.761 11.4666C59.761 12.8915 58.7001 14.0466 57.3916 14.0466C56.083 14.0466 55.0222 12.8915 55.0222 11.4666C55.0222 10.0417 56.083 8.88663 57.3916 8.88663C58.7001 8.88663 59.761 10.0417 59.761 11.4666Z" fill="#ADA1A1"/>
</svg>
