<svg width="319" height="319" viewBox="0 0 319 319" fill="none" xmlns="http://www.w3.org/2000/svg">
<path opacity="0.5" fill-rule="evenodd" clip-rule="evenodd" d="M10 319C4.47716 319 0 314.523 0 309V275.1C2.20914 275.1 4 276.891 4 279.1V309C4 312.314 6.6863 315 10 315H39.9C42.1091 315 43.9 316.791 43.9 319H10ZM319 275.1C316.791 275.1 315 276.891 315 279.1V309C315 312.314 312.314 315 309 315H279.1C276.891 315 275.1 316.791 275.1 319H309C314.523 319 319 314.523 319 309V275.1ZM275.1 0C275.1 2.20914 276.891 4 279.1 4H309C312.314 4 315 6.6863 315 10V39.9C315 42.1091 316.791 43.9 319 43.9V10C319 4.47715 314.523 0 309 0H275.1ZM43.9 0C43.9 2.20914 42.1091 4 39.9 4H10C6.6863 4 4 6.6863 4 10V39.9C4 42.1091 2.20914 43.9 0 43.9V10C0 4.47716 4.47715 0 10 0H43.9Z" fill="#919191"/>
</svg>
