<svg width="269" height="269" viewBox="0 0 269 269" fill="none" xmlns="http://www.w3.org/2000/svg">
<path opacity="0.5" fill-rule="evenodd" clip-rule="evenodd" d="M9.99999 269C4.47715 269 0 264.523 0 259V230.1C2.20914 230.1 4 231.891 4 234.1V259C4 262.314 6.68629 265 9.99999 265H34.9C37.1091 265 38.9 266.791 38.9 269H9.99999ZM269 230.1C266.791 230.1 265 231.891 265 234.1V259C265 262.314 262.314 265 259 265H234.1C231.891 265 230.1 266.791 230.1 269H259C264.523 269 269 264.523 269 259V230.1ZM230.1 0C230.1 2.20914 231.891 4 234.1 4H259C262.314 4 265 6.68629 265 10V34.9C265 37.1091 266.791 38.9 269 38.9V10C269 4.47715 264.523 0 259 0H230.1ZM38.9 0C38.9 2.20914 37.1091 4 34.9 4H10C6.68629 4 4 6.68629 4 9.99999V34.9C4 37.1091 2.20914 38.9 0 38.9V9.99999C0 4.47715 4.47715 0 10 0H38.9Z" fill="#0DCABF"/>
</svg>
